<svg width="24" height="24" viewBox="0 0 24 24" fill="none" xmlns="http://www.w3.org/2000/svg">
<path fill-rule="evenodd" clip-rule="evenodd" d="M12 4C7.58172 4 4 7.58172 4 12C4 16.4183 7.58172 20 12 20C16.4183 20 20 16.4183 20 12C20 7.58172 16.4183 4 12 4ZM2 12C2 6.47715 6.47715 2 12 2C17.5228 2 22 6.47715 22 12C22 17.5228 17.5228 22 12 22C6.47715 22 2 17.5228 2 12Z" fill="#627EF7"/>
<path fill-rule="evenodd" clip-rule="evenodd" d="M12 10.1C12.5522 10.1 13 10.5477 13 11.1V14.6H13.8C14.3522 14.6 14.8 15.0477 14.8 15.6C14.8 16.1523 14.3522 16.6 13.8 16.6H10.2C9.64767 16.6 9.19995 16.1523 9.19995 15.6C9.19995 15.0477 9.64767 14.6 10.2 14.6H11V11.1C11 10.5477 11.4477 10.1 12 10.1Z" fill="#627EF7"/>
<path fill-rule="evenodd" clip-rule="evenodd" d="M13 11C13 11.5523 12.5523 12 12 12L10 12C9.44772 12 9 11.5523 9 11C9 10.4477 9.44772 10 10 10L12 10C12.5523 10 13 10.4477 13 11Z" fill="#627EF7"/>
<circle cx="12" cy="8" r="1" fill="#627EF7"/>
</svg>
