<svg width="20" height="20" viewBox="0 0 20 20" fill="none" xmlns="http://www.w3.org/2000/svg">
<path fill-rule="evenodd" clip-rule="evenodd" d="M16.5175 11.1465C16.8392 10.8869 17 10.4434 17 10C17 9.55657 16.8392 9.11314 16.5175 8.85348L12.5425 5.64459C13.2682 5.23422 14.1067 5 15 5C17.7614 5 20 7.23858 20 10C20 12.7614 17.7614 15 15 15C14.1067 15 13.2682 14.7658 12.5425 14.3554L16.5175 11.1465Z" fill="#BCCEFD"/>
<path d="M16 10C16 10.3167 15.8749 10.6335 15.6247 10.8189L10.1706 14.8624C9.65543 15.2444 9 14.7858 9 14.0435V5.95652C9 5.21417 9.65543 4.75564 10.1706 5.13758L15.6247 9.18106C15.8749 9.36653 16 9.68326 16 10Z" fill="#27AE60"/>
<path d="M0 10C0 8.89543 0.895431 8 2 8H10C11.1046 8 12 8.89543 12 10C12 11.1046 11.1046 12 10 12H2C0.895431 12 0 11.1046 0 10Z" fill="#27AE60"/>
</svg>
