<svg width="12" height="14" viewBox="0 0 12 14" fill="none" xmlns="http://www.w3.org/2000/svg">
<path fill-rule="evenodd" clip-rule="evenodd" d="M3.33333 6.36364H8.66667V6.36011H10.6667V6.36364H11C11.2778 6.36364 11.5139 6.45644 11.7083 6.64205C11.9028 6.82765 12 7.05303 12 7.31818V13.0455C12 13.3106 11.9028 13.536 11.7083 13.7216C11.5139 13.9072 11.2778 14 11 14H1C0.722222 14 0.486111 13.9072 0.291666 13.7216C0.0972223 13.536 0 13.3106 0 13.0455V7.31818C0 7.05303 0.0972223 6.82765 0.291666 6.64205C0.486111 6.45644 0.722222 6.36364 1 6.36364H1.33333V4.45455C1.33333 3.23485 1.79167 2.1875 2.70833 1.3125C3.625 0.4375 4.72222 0 6 0C7.27778 0 8.375 0.4375 9.29167 1.3125C9.92325 1.91538 10.3373 2.60007 10.5337 3.36658L8.59659 3.85085C8.48731 3.40176 8.25026 3.00309 7.88542 2.65483C7.36458 2.15767 6.73611 1.90909 6 1.90909C5.26389 1.90909 4.63542 2.15767 4.11458 2.65483C3.59375 3.15199 3.33333 3.75189 3.33333 4.45455V6.36364Z" fill="#BCCEFD"/>
</svg>
