<svg xmlns="http://www.w3.org/2000/svg" id="prefix__logo" width="148" height="88" viewBox="0 0 148 88">
    <defs>
        <style>
            .prefix__cls-1{fill:#070047}.prefix__cls-2{fill:#fff}.prefix__cls-4{fill:#8f9bb2}
        </style>
    </defs>
    <g id="prefix__Group_4690_2_">
        <path id="prefix__Path_2985_1_" d="M0 62.1a7.832 7.832 0 0 0 3.928 6.786l31.405 18.071a7.866 7.866 0 0 0 7.84 0L74.563 68.9a7.823 7.823 0 0 0 3.928-6.784v-36.2a7.828 7.828 0 0 0-3.926-6.782L43.175 1.052a7.869 7.869 0 0 0-7.86.006L3.914 19.217A7.827 7.827 0 0 0 0 25.994z" class="prefix__cls-1" transform="translate(0 -.004)"/>
        <path id="prefix__Path_2986_2_" d="M55.987 134.68a.976.976 0 0 1-.008 1.7l-4.4 2.482-.033-.02-6.832 3.948a1.966 1.966 0 0 1-1.966 0l-8.83-5.09A7.818 7.818 0 0 1 30 130.927v-29.356a7.813 7.813 0 0 1 3.979-6.8l.443-.25a.984.984 0 0 1 1.339.369.964.964 0 0 1 .127.482v36.187a.979.979 0 0 0 .488.845l4.909 2.855a.984.984 0 0 0 .981 0l.063-.035a.977.977 0 0 0 0-1.7l-3.994-2.3a.978.978 0 0 1-.49-.847V93.654a1.955 1.955 0 0 1 .995-1.7l3.429-1.936a.986.986 0 0 1 1.339.369.962.962 0 0 1 .127.48v36.187a.978.978 0 0 0 .49.847z" class="prefix__cls-2" transform="translate(-24.126 -72.289)"/>
        <path id="prefix__Path_2987_2_" d="M117.554 80.338a.981.981 0 0 1-.366-1.338.969.969 0 0 1 .37-.368l9.788-5.733a.981.981 0 0 0 .484-.846V37.572a1.961 1.961 0 0 0-2.951-1.694l-8.823 5.148-4.891 2.767a1.962 1.962 0 0 0-.995 1.707v36.849a.982.982 0 0 0 .49.85l12.246 7.086a1.965 1.965 0 0 0 1.991-.016l3.46-2.076a.983.983 0 0 0-.018-1.694zM116.532 47.6l3.924-2.356a.98.98 0 0 1 1.484.842v22.619a.982.982 0 0 1-.5.854l-3.924 2.224a.984.984 0 0 1-1.339-.37.97.97 0 0 1-.127-.484V48.447a1 1 0 0 1 .482-.847z" class="prefix__cls-2" transform="translate(-88.598 -28.638)"/>
        <path id="prefix__Path_2988_2_" d="M133.819 43.492V77.9a.979.979 0 0 1-.49.848l-7.858 4.545a.978.978 0 0 0 0 1.693l10.8 6.235a.977.977 0 0 1 0 1.693l-20.607 11.9a.978.978 0 0 0 0 1.7l12.279 7.01a7.87 7.87 0 0 0 7.8 0l26.5-15.161a5.871 5.871 0 0 0 2.957-5.094V62.723a7.825 7.825 0 0 0-3.92-6.778L136.762 41.8a1.959 1.959 0 0 0-2.943 1.7zm24.037 42.144L140.684 75.7a1.957 1.957 0 0 1-.977-1.693V60.981a.983.983 0 0 1 1.472-.848l14.239 8.237a7.826 7.826 0 0 1 3.91 6.772v9.647a.979.979 0 0 1-.979.98.968.968 0 0 1-.493-.133z" transform="translate(-92.625 -33.401)" style="fill:#627ef7"/>
        <path id="prefix__Path_2989_2_" d="M60.346 291.555l-4.4 2.491-.033-.02-6.832 3.963a1.963 1.963 0 0 1-1.968 0l-8.835-5.111a7.826 7.826 0 0 1-2.853-2.851l4.938-2.851a1 1 0 0 0 .37.384l4.909 2.865a.981.981 0 0 0 .981 0l.063-.035a.982.982 0 0 0 0-1.7l-3.986-2.306a.981.981 0 0 1-.352-.352l5.86-3.382a.99.99 0 0 0 .378.4l11.764 6.8a.981.981 0 0 1-.006 1.7z" class="prefix__cls-4" transform="translate(-28.493 -227.445)"/>
        <path id="prefix__Path_2991_2_" d="M164.463 248.2a5.858 5.858 0 0 1-2.193 2.207l-26.5 15.2a7.854 7.854 0 0 1-7.8 0l-12.279-7.026a.983.983 0 0 1 0-1.7l16.187-9.375 4.419-2.559a.98.98 0 0 0 0-1.7l-4.419-2.557-6.392-3.69a.98.98 0 0 1 0-1.7l6.385-3.7 1.472-.854a.968.968 0 0 0 .333-.321z" transform="translate(-92.637 -185.485)" style="fill:#3b4c95"/>
        <path id="prefix__Path_2992_2_" d="M128.9 265.267l-.525.313-2.933 1.762a1.965 1.965 0 0 1-1.991.016l-12.244-7.082a1.021 1.021 0 0 1-.206-.161.928.928 0 0 1-.151-.2v-.006l2.692-1.555 4.445-2.567a.762.762 0 0 0-.094.084.6.6 0 0 0-.08.092.035.035 0 0 0-.012.018.479.479 0 0 0-.055.084.316.316 0 0 0-.02.035c-.01.02-.02.039-.027.059a.369.369 0 0 0-.023.059.378.378 0 0 0-.022.067.08.08 0 0 0-.01.035.729.729 0 0 0-.018.09.974.974 0 0 0 .482 1l10.274 5.872.507.288a.979.979 0 0 1 .366 1.335 1 1 0 0 1-.355.362z" class="prefix__cls-4" transform="translate(-89.145 -205.825)"/>
    </g>
    <g id="prefix__Group_4695" data-name="Group 4695" transform="translate(72.538 19.232)">
        <g id="prefix__Group_4694" data-name="Group 4694">
            <g id="prefix__Group_4691" data-name="Group 4691">
                <path id="prefix__Path_2993" d="M394.794 158.1a9.4 9.4 0 0 1-6.626-2.728 9.4 9.4 0 0 1-1.987-2.937 9.248 9.248 0 0 1-.74-3.687v-31.142a3.92 3.92 0 0 1 3.916-3.916h4.455a3.92 3.92 0 0 1 3.916 3.916v28.2h.54v-28.2a3.92 3.92 0 0 1 3.916-3.916h4.507a3.92 3.92 0 0 1 3.916 3.916v36.577a3.92 3.92 0 0 1-3.916 3.916z" class="prefix__cls-2" data-name="Path 2993" transform="translate(-382.507 -110.753)"/>
                <path id="prefix__Path_2994" d="M394.648 104.564a.979.979 0 0 1 .979.979v36.577a.979.979 0 0 1-.979.979h-11.9a6.454 6.454 0 0 1-4.547-1.866 6.447 6.447 0 0 1-1.367-2.025 6.291 6.291 0 0 1-.5-2.524v-31.141a.979.979 0 0 1 .979-.979h4.455a.979.979 0 0 1 .979.979v30.162a.979.979 0 0 0 .979.979h4.457a.979.979 0 0 0 .979-.979v-30.162a.979.979 0 0 1 .979-.979h4.507m0-5.874h-4.508a6.832 6.832 0 0 0-4.186 1.429 6.819 6.819 0 0 0-4.186-1.429h-4.455a6.861 6.861 0 0 0-6.853 6.853v31.141a12.147 12.147 0 0 0 .983 4.856 12.29 12.29 0 0 0 11.3 7.433h11.9a6.861 6.861 0 0 0 6.853-6.853v-36.577a6.861 6.861 0 0 0-6.853-6.853z" class="prefix__cls-1" data-name="Path 2994" transform="translate(-370.46 -98.69)"/>
            </g>
            <g id="prefix__Group_4692" data-name="Group 4692" transform="translate(22.447)">
                <path id="prefix__Path_2995" d="M504.016 158.1a3.92 3.92 0 0 1-3.916-3.916v-36.578a3.92 3.92 0 0 1 3.916-3.916h11.848a9.332 9.332 0 0 1 3.64.73 9.635 9.635 0 0 1 2.978 1.964 9.144 9.144 0 0 1 2.054 3.015 9.312 9.312 0 0 1 .73 3.642v9.62a9.235 9.235 0 0 1-.74 3.687 9.48 9.48 0 0 1-5.024 4.985 9.3 9.3 0 0 1-3.638.73h-3.478v12.118a3.92 3.92 0 0 1-3.916 3.916zm8.911-28.374v-3.746h-.54v3.746z" class="prefix__cls-2" data-name="Path 2995" transform="translate(-497.163 -110.753)"/>
                <path id="prefix__Path_2996" d="M503.8 104.564a6.351 6.351 0 0 1 2.5.5 6.709 6.709 0 0 1 2.078 1.367 6.157 6.157 0 0 1 1.392 2.05 6.358 6.358 0 0 1 .5 2.5v9.62a6.3 6.3 0 0 1-.5 2.524 6.536 6.536 0 0 1-1.392 2.05 6.453 6.453 0 0 1-2.078 1.394 6.358 6.358 0 0 1-2.5.5h-5.436a.979.979 0 0 0-.979.979v14.072a.979.979 0 0 1-.979.979h-4.455a.979.979 0 0 1-.979-.979v-36.577a.979.979 0 0 1 .979-.979H503.8m-5.434 16.036h4.457a.979.979 0 0 0 .979-.979v-7.662a.979.979 0 0 0-.979-.979h-4.457a.979.979 0 0 0-.979.979v7.662a.979.979 0 0 0 .979.979m5.434-21.91h-11.847a6.861 6.861 0 0 0-6.853 6.853v36.577a6.861 6.861 0 0 0 6.853 6.853h4.455a6.861 6.861 0 0 0 6.853-6.853v-9.181h.54a12.337 12.337 0 0 0 8.729-3.613 12.423 12.423 0 0 0 2.632-3.873 12.164 12.164 0 0 0 .981-4.854v-9.62a12.217 12.217 0 0 0-.961-4.78 12.067 12.067 0 0 0-2.714-3.981 12.589 12.589 0 0 0-3.881-2.563 12.193 12.193 0 0 0-4.786-.965z" class="prefix__cls-1" data-name="Path 2996" transform="translate(-485.1 -98.69)"/>
            </g>
            <g id="prefix__Group_4693" data-name="Group 4693" transform="translate(44.421)">
                <path id="prefix__Path_2997" d="M621.68 158.107a9.331 9.331 0 0 1-9.35-9.35V144.9a3.92 3.92 0 0 1 3.916-3.916h1.038a9.008 9.008 0 0 1-2.26-1.7 9.676 9.676 0 0 1-1.954-2.931 9.249 9.249 0 0 1-.74-3.687v-9.62a9.328 9.328 0 0 1 9.35-9.35h6.415a9.332 9.332 0 0 1 3.64.73 9.613 9.613 0 0 1 2.978 1.964 9.127 9.127 0 0 1 2.054 3.015 9.316 9.316 0 0 1 .732 3.642v25.707a9.287 9.287 0 0 1-.73 3.638 9.113 9.113 0 0 1-2.054 3.015 9.66 9.66 0 0 1-2.98 1.966 9.308 9.308 0 0 1-3.638.73h-6.417zm3.478-12.289v-3.746h-1.747a3.905 3.905 0 0 1 1.208 2.825v.92zm0-16.085v-3.746h-.54v3.746z" class="prefix__cls-2" data-name="Path 2997" transform="translate(-609.391 -110.761)"/>
                <path id="prefix__Path_2998" d="M616.024 104.564a6.351 6.351 0 0 1 2.5.5 6.708 6.708 0 0 1 2.078 1.367 6.157 6.157 0 0 1 1.392 2.05 6.358 6.358 0 0 1 .5 2.5v25.707a6.344 6.344 0 0 1-.5 2.5 6.157 6.157 0 0 1-1.392 2.05 6.709 6.709 0 0 1-2.078 1.367 6.358 6.358 0 0 1-2.5.5h-6.415a6.393 6.393 0 0 1-6.413-6.413v-3.857a.979.979 0 0 1 .979-.979h4.455a.979.979 0 0 1 .979.979v2.878a.979.979 0 0 0 .979.979h4.457a.979.979 0 0 0 .979-.979v-7.662a.979.979 0 0 0-.979-.979h-5.436a6.344 6.344 0 0 1-2.5-.5 6.133 6.133 0 0 1-2.05-1.394 6.769 6.769 0 0 1-1.367-2.05 6.291 6.291 0 0 1-.5-2.524v-9.62a6.393 6.393 0 0 1 6.413-6.413h6.415m-5.432 16.029h4.457a.979.979 0 0 0 .979-.979v-7.662a.979.979 0 0 0-.979-.979h-4.457a.979.979 0 0 0-.979.979v7.662a.979.979 0 0 0 .979.979m5.436-21.909h-6.415a12.268 12.268 0 0 0-12.289 12.287v9.62a12.147 12.147 0 0 0 .983 4.856 12.629 12.629 0 0 0 1.281 2.287 6.841 6.841 0 0 0-2.264 5.085v3.857a12.268 12.268 0 0 0 12.287 12.289h6.415a12.2 12.2 0 0 0 4.784-.963 12.579 12.579 0 0 0 3.879-2.559 12.047 12.047 0 0 0 2.714-3.981 12.233 12.233 0 0 0 .963-4.785v-25.707a12.234 12.234 0 0 0-.961-4.782 12.066 12.066 0 0 0-2.714-3.981 12.623 12.623 0 0 0-3.881-2.563 12.233 12.233 0 0 0-4.782-.961z" class="prefix__cls-1" data-name="Path 2998" transform="translate(-597.32 -98.69)"/>
            </g>
        </g>
    </g>
    <g id="prefix__Group_4697" data-name="Group 4697" transform="translate(78.412 25.106)">
        <g id="prefix__Group_4696" data-name="Group 4696">
            <path id="prefix__Path_2999" d="M419.753 129.669v36.577a.979.979 0 0 1-.979.979h-11.9a6.454 6.454 0 0 1-4.547-1.866 6.447 6.447 0 0 1-1.367-2.025 6.292 6.292 0 0 1-.5-2.524v-31.141a.979.979 0 0 1 .979-.979h4.455a.979.979 0 0 1 .979.979v30.162a.979.979 0 0 0 .979.979h4.457a.979.979 0 0 0 .979-.979v-30.162a.979.979 0 0 1 .979-.979h4.507a.979.979 0 0 1 .979.979z" class="prefix__cls-2" data-name="Path 2999" transform="translate(-400.46 -128.69)"/>
            <path id="prefix__Path_3000" d="M534.393 135.1v9.62a6.3 6.3 0 0 1-.5 2.524 6.535 6.535 0 0 1-1.392 2.05 6.453 6.453 0 0 1-2.077 1.394 6.358 6.358 0 0 1-2.5.5h-5.436a.979.979 0 0 0-.979.979v14.076a.979.979 0 0 1-.979.979h-4.455a.979.979 0 0 1-.979-.979v-36.574a.979.979 0 0 1 .979-.979h11.848a6.351 6.351 0 0 1 2.5.5 6.708 6.708 0 0 1 2.077 1.367 6.157 6.157 0 0 1 1.392 2.05 6.358 6.358 0 0 1 .501 2.493zm-6.466 8.643v-7.662a.979.979 0 0 0-.979-.979h-4.457a.979.979 0 0 0-.979.979v7.662a.979.979 0 0 0 .979.979h4.457a.979.979 0 0 0 .979-.977z" class="prefix__cls-2" data-name="Path 3000" transform="translate(-492.653 -128.69)"/>
            <path id="prefix__Path_3001" d="M646.623 135.1v25.71a6.345 6.345 0 0 1-.5 2.5 6.158 6.158 0 0 1-1.392 2.05 6.71 6.71 0 0 1-2.078 1.367 6.358 6.358 0 0 1-2.5.5h-6.415a6.393 6.393 0 0 1-6.413-6.413v-3.857a.979.979 0 0 1 .979-.979h4.455a.979.979 0 0 1 .979.979v2.878a.979.979 0 0 0 .979.979h4.457a.979.979 0 0 0 .979-.979v-7.662a.979.979 0 0 0-.979-.979h-5.436a6.344 6.344 0 0 1-2.5-.5 6.133 6.133 0 0 1-2.05-1.394 6.77 6.77 0 0 1-1.367-2.05 6.292 6.292 0 0 1-.5-2.524V135.1a6.393 6.393 0 0 1 6.413-6.413h6.415a6.351 6.351 0 0 1 2.5.5 6.709 6.709 0 0 1 2.078 1.367 6.157 6.157 0 0 1 1.392 2.05 6.359 6.359 0 0 1 .504 2.496zm-6.466 8.643v-7.662a.979.979 0 0 0-.979-.979h-4.457a.979.979 0 0 0-.979.979v7.662a.979.979 0 0 0 .979.979h4.457a.979.979 0 0 0 .979-.976z" class="prefix__cls-2" data-name="Path 3001" transform="translate(-582.908 -128.69)"/>
        </g>
    </g>
</svg>
