<svg width="20" height="20" viewBox="0 0 20 20" fill="none" xmlns="http://www.w3.org/2000/svg">
<path fill-rule="evenodd" clip-rule="evenodd" d="M15 15C17.7614 15 20 12.7615 20 10C20 7.23861 17.7614 5.00003 15 5.00003C13.3642 5.00003 11.9118 5.78558 10.9996 7.00003H14C15.6569 7.00003 17 8.34318 17 10C17 11.6569 15.6569 13 14 13H10.9996C11.9118 14.2145 13.3642 15 15 15Z" fill="#BCCEFD"/>
<rect x="4" y="8.00003" width="12" height="4" rx="2" fill="gray"/>
<path d="M5.96244e-08 10C6.34015e-08 9.68329 0.125088 9.36656 0.375266 9.18109L5.82939 5.13761C6.34457 4.75567 7 5.2142 7 5.95655L7 14.0435C7 14.7859 6.34457 15.2444 5.82939 14.8625L0.375266 10.819C0.125088 10.6335 5.58474e-08 10.3168 5.96244e-08 10Z" fill="gray"/>
</svg>
