<svg width="365.85028" height="84.530319" viewBox="0 0 365.85028 84.530319" fill="none" xmlns="http://www.w3.org/2000/svg">
<g
   id="Layer_2"
   transform="translate(0.09726289)">
	<g
   id="Layer_1-2">
		<path
   style="fill:#326de6"
   d="m 43.697266,0 c -0.8,0 -1.7,-7.8125e-4 -2.5,0.19921875 l -30.5,14.70117225 c -1.5000052,0.7 -2.6000004,1.999218 -3.0000004,3.699218 L 0.09765625,51.5 c -0.3,1.7 0.09960962,3.400781 1.09960935,4.800781 l 21.0996094,26.09961 c 1.2,1.2 2.899609,1.999609 4.599609,2.099609 h 33.701172 c 1.8,0.2 3.49961,-0.599609 4.59961,-2.099609 l 21.099609,-26.09961 c 1,-1.4 1.401172,-3.100781 1.201172,-4.800781 L 79.896484,18.800781 c -0.5,-1.6 -1.699218,-2.901172 -3.199218,-3.701172 L 46.197266,0.5 c -0.8,-0.4 -1.7,-0.5 -2.5,-0.5 z m 22.818359,15.484375 a 1.4619351,1.4619351 0 0 1 1.503906,1.462891 2.9127558,2.9127558 0 0 1 -0.697265,1.884765 16.523949,16.523949 0 0 0 -3.021485,5.302735 6.6495148,6.6495148 0 0 1 -3.089843,3.652343 c -5.91826,3.255388 -11.1875,5.654297 -11.1875,5.654297 1.524079,-0.0335 2.86482,0.09854 4.054687,0.339844 l 0.716797,-1.568359 a 0.26693874,0.26693874 0 0 1 0.507812,0.08594 l 0.160157,1.828125 c 0.241188,0.07385 0.471303,0.153424 0.697265,0.236328 l 1.28125,-1.435547 a 0.26693874,0.26693874 0 0 1 0.460938,0.234375 l -0.390625,1.808594 c 0.190161,0.0967 0.356133,0.202814 0.533203,0.304688 L 59.410156,33.9375 a 0.26693874,0.26693874 0 0 1 0.44336,0.263672 l -0.544922,1.902344 c 0.131484,0.100317 0.249231,0.201225 0.371094,0.302734 l 1.804687,-0.925781 a 0.26693874,0.26693874 0 0 1 0.34375,0.384765 l -1.052734,1.605469 c 0.193913,0.21427 0.370731,0.422885 0.529297,0.625 l 1.908203,-0.400391 a 0.26693874,0.26693874 0 0 1 0.230468,0.460938 l -1.328125,1.171875 c 0.04054,0.07431 0.11559,0.182968 0.146485,0.246094 a 0.4464948,0.4464948 0 0 1 -0.232422,0.609375 48.930273,48.930273 0 0 0 -10.314453,5.910156 c -2.628678,1.872418 -5.507342,3.256782 -7.984375,4.238281 -0.654096,3.953096 -3.256673,6.553592 -4.251953,7.417969 a 0.87976722,0.87976722 0 0 1 -0.84375,0.173828 0.87995885,0.87995885 0 0 1 -0.601563,-0.998047 c 0.403872,-2.175221 0.375769,-3.813371 0.298828,-4.824219 -0.04123,0.0106 -0.129623,0.03717 -0.167969,0.04688 a 13.074058,13.074058 0 0 0 -2.65625,0.966796 11.895733,11.895733 0 0 0 -0.65039,0.365235 11.838628,11.838628 0 0 0 -0.527344,0.314453 11.895733,11.895733 0 0 0 -0.492187,0.345703 11.838628,11.838628 0 0 0 -0.609375,0.453125 c -0.236674,0.196431 -0.459867,0.403754 -0.669922,0.619141 -0.189209,0.194011 -0.363842,0.39622 -0.53125,0.603515 -0.518529,1.301101 -0.720526,2.855804 0.09766,4.41211 a 5.1377563,5.1377563 0 0 0 3.373047,2.560546 26.202921,26.202921 0 0 0 6.078125,0.660157 4.1583421,4.1583421 0 0 0 3.384766,-1.72461 c 1.663527,-2.318707 5.169313,-6.471626 9.99414,-8.277343 a 34.752434,34.752434 0 0 0 5.21875,-2.396485 c 1.396015,-0.807906 3.019403,0.604478 2.433594,2.107422 a 7.7023228,7.7023228 0 0 1 -2.587891,3.494141 c -3.68751,2.69679 -7.761718,6.164264 -7.761719,10.126953 0,0 -0.291599,4.431548 3.244141,7.169922 a 1.1662521,1.1662521 0 0 1 -0.708984,2.083984 c -3.356185,0.04235 -8.286592,-1.069904 -11.835938,-6.941406 a 22.909207,22.909207 0 0 1 -4.214843,1.015625 h -0.0039 c -3.074111,0.47499 -5.780878,0.558997 -8.085937,0.230469 l 0.0039,0.0098 c 0,0 -16.614575,-0.614601 -16.021484,-16.695312 0.176839,-4.794721 1.64669,-8.927518 3.617187,-12.375 C 18.16014,39.986781 17.79688,38.65623 17.28125,37.388672 a 1.4696003,1.4696003 0 0 1 0.140625,-1.386719 l 1.705078,-2.496094 A 0.15886017,0.15886017 0 0 0 18.912109,33.28125 l -2.759765,1.755859 C 15.659283,34.137796 15.146296,33.32412 14.689453,32.648438 A 2.1703863,2.1703863 0 0 1 15.625,29.427734 c 2.666513,-1.121219 5.899198,-1.704278 9.982422,-1.246093 a 36.480542,36.480542 0 0 0 5.708984,0.142578 C 48.430863,18.814384 61.805489,16.163693 66.345703,15.5 a 1.4619351,1.4619351 0 0 1 0.169922,-0.01563 z"
   transform="translate(-0.09743584)"
   id="path6" />
		
		
	<g
   id="g857"
   transform="matrix(0.19162867,0,0,0.19162867,8.490619,13.182287)"><g
     id="g849"
     style="fill:#485a75"><path
       id="path839"
       data-original="#485a75"
       d="m 192.963,97.984 c -4.249,-8.947 -6.27,-19.006 -6.563,-29.928 a 1.414,1.414 0 0 0 -2.736,-0.449 55.314,55.314 0 0 0 -2.656,9.6 21.038,21.038 0 0 0 3.958,16.393 35.833,35.833 0 0 0 5.808,6.066 1.419,1.419 0 0 0 2.189,-1.682 z"
       style="fill:#485a75" /><path
       id="path841"
       data-original="#485a75"
       d="m 177.85,105.342 c -4.249,-8.947 -6.27,-19.006 -6.563,-29.928 a 1.414,1.414 0 0 0 -2.736,-0.449 55.314,55.314 0 0 0 -2.656,9.6 21.038,21.038 0 0 0 3.958,16.394 35.72,35.72 0 0 0 5.808,6.066 1.419,1.419 0 0 0 2.189,-1.683 z"
       style="fill:#485a75" /><path
       id="path843"
       data-original="#485a75"
       d="m 163.212,112.168 c -4.249,-8.947 -6.27,-19.006 -6.563,-29.928 a 1.414,1.414 0 0 0 -2.736,-0.449 55.314,55.314 0 0 0 -2.656,9.6 21.038,21.038 0 0 0 3.958,16.394 35.718,35.718 0 0 0 5.808,6.066 1.419,1.419 0 0 0 2.189,-1.683 z"
       style="fill:#485a75" /><path
       id="path845"
       data-original="#485a75"
       d="m 282.539,41.775 a 3.464,3.464 0 0 1 -2.442,-5.922 l 2.594,-2.577 a 3.4644893,3.4644893 0 1 1 4.883,4.916 l -2.594,2.577 a 3.455,3.455 0 0 1 -2.441,1.006 z"
       style="fill:#485a75" /><circle
       id="circle847"
       data-original="#485a75"
       r="5.0100002"
       cy="49.93"
       cx="242.799"
       style="fill:#485a75" /></g></g><path
   style="opacity:1;fill:#326de6;fill-opacity:1;stroke:none;stroke-width:0.70809567;stroke-linecap:butt;stroke-linejoin:miter;stroke-miterlimit:4;stroke-dasharray:none;stroke-opacity:1"
   d="m 39.03763,34.543061 c -1.527793,-1.496038 -1.827598,-2.980669 -1.058708,-5.242707 0.127475,-0.375025 0.218266,-0.50615 0.350457,-0.50615 0.152165,0 0.188106,0.09647 0.244306,0.655726 0.216618,2.155597 0.449111,3.24366 0.975953,4.567454 0.461821,1.160417 0.302867,1.323615 -0.512008,0.525677 z"
   id="path900"
   transform="translate(-0.09743584)" /><path
   style="opacity:1;fill:#326de6;fill-opacity:1;stroke:none;stroke-width:0.70809567;stroke-linecap:butt;stroke-linejoin:miter;stroke-miterlimit:4;stroke-dasharray:none;stroke-opacity:1"
   d="m 42.006337,33.406311 c -1.337815,-1.184989 -1.866757,-2.629191 -1.538123,-4.199632 0.240017,-1.146966 0.464694,-1.723928 0.67132,-1.723928 0.159683,0 0.190274,0.122336 0.292808,1.17094 0.16981,1.736629 0.586255,3.459239 1.068721,4.420732 0.174454,0.347664 0.153619,0.638924 -0.04552,0.636332 -0.05889,-7.68e-4 -0.261033,-0.137766 -0.449207,-0.304444 z"
   id="path902"
   transform="translate(-0.09743584)" /><path
   style="opacity:1;fill:#326de6;fill-opacity:1;stroke:none;stroke-width:0.70809567;stroke-linecap:butt;stroke-linejoin:miter;stroke-miterlimit:4;stroke-dasharray:none;stroke-opacity:1"
   d="m 44.593492,31.684332 c -1.06996,-1.096616 -1.495754,-2.317349 -1.27225,-3.647492 0.06476,-0.385406 0.209609,-0.983895 0.321888,-1.329977 0.160604,-0.495034 0.243576,-0.629239 0.389027,-0.629239 0.167866,0 0.195552,0.106755 0.300777,1.15978 0.178804,1.789343 0.514135,3.175579 1.092636,4.516885 0.109635,0.254197 0.118901,0.363706 0.03765,0.444957 -0.173562,0.173562 -0.231396,0.139321 -0.869728,-0.514914 z"
   id="path904"
   transform="translate(-0.09743584)" /><path
   style="opacity:1;fill:#326de6;fill-opacity:1;stroke:none;stroke-width:0.70809567;stroke-linecap:butt;stroke-linejoin:miter;stroke-miterlimit:4;stroke-dasharray:none;stroke-opacity:1"
   d="m 54.796786,23.600645 c -0.300846,-0.126947 -0.598408,-0.559802 -0.598408,-0.870489 0,-0.192938 0.100882,-0.378642 0.330349,-0.608109 0.289083,-0.289083 0.372038,-0.323583 0.664085,-0.276191 0.411876,0.06684 0.590137,0.209069 0.754324,0.601856 0.107229,0.256525 0.107229,0.352363 0,0.608889 -0.06999,0.167444 -0.190498,0.356886 -0.267791,0.420982 -0.193757,0.160673 -0.644482,0.223522 -0.882559,0.123062 z"
   id="path906"
   transform="translate(-0.09743584)" /><path
   style="opacity:1;fill:#326de6;fill-opacity:1;stroke:none;stroke-width:0.70809567;stroke-linecap:butt;stroke-linejoin:miter;stroke-miterlimit:4;stroke-dasharray:none;stroke-opacity:1"
   d="m 62.366634,20.995747 c -0.30085,-0.260136 -0.326767,-0.517366 -0.08785,-0.871899 0.220552,-0.327277 0.758517,-0.743997 0.960464,-0.743997 0.06271,0 0.225096,0.08737 0.360847,0.194149 0.379108,0.298207 0.323778,0.598735 -0.208173,1.130685 -0.485833,0.485834 -0.722376,0.552984 -1.025291,0.291062 z"
   id="path908"
   transform="translate(-0.09743584)" /><g
   aria-label="Kubeshark"
   style="font-style:normal;font-variant:normal;font-weight:normal;font-stretch:normal;font-size:40px;line-height:1.25;font-family:'Work Sans';-inkscape-font-specification:'Work Sans';letter-spacing:0px;word-spacing:0px;fill:#326de6;fill-opacity:1;stroke:none"
   id="text833"
   transform="translate(4)"><path
     d="m 127.72418,23.395281 -15.70667,18.797333 -0.55733,-1.317333 -7.95467,9.677334 -1.672,-7.042667 16.21334,-20.114667 z m -21.63467,0 v 33.44 h -8.714665 v -33.44 z m 8.76534,11.045333 13.47733,22.394667 h -9.88 L 108.31885,39.304614 Z"
     style="font-size:50.66666794px;fill:#326de6;fill-opacity:1"
     id="path830" /><path
     d="m 139.93478,57.341948 q -2.584,0 -4.56,-0.861333 -1.92534,-0.912 -3.04,-2.888 -1.11467,-1.976 -1.11467,-5.168001 V 31.501947 h 8.61333 v 14.896001 q 0,2.432 0.96267,3.394667 0.96267,0.962666 2.736,0.962666 0.912,0 1.72267,-0.304 0.81066,-0.354666 1.41867,-1.013333 0.608,-0.709333 0.912,-1.773334 0.35466,-1.114666 0.35466,-2.584 V 31.501947 h 8.61334 v 25.333334 h -7.70134 l -0.25333,-4.762666 q -1.216,2.685333 -3.39467,4.002666 -2.17867,1.266667 -5.26933,1.266667 z"
     style="font-size:50.66666794px;fill:#326de6;fill-opacity:1"
     id="path832" /><path
     d="m 178.99876,57.341948 q -2.48267,0 -4.408,-1.114667 -1.87467,-1.114666 -3.09067,-3.04 -1.216,-1.976 -1.57067,-4.458666 l 0.81067,-1.064001 -0.456,9.170667 h -7.54933 V 20.760614 h 8.61333 v 18.696 l -0.81067,-1.216 q 0.70934,-3.141333 2.888,-5.168 2.17867,-2.077333 5.87734,-2.077333 2.93866,0 5.21866,1.570666 2.33067,1.570667 3.59734,4.560001 1.31733,2.938666 1.31733,7.144 0,4.104 -1.31733,7.042667 -1.31734,2.938666 -3.648,4.509333 -2.33067,1.52 -5.472,1.52 z m -2.98934,-6.333333 q 2.22934,0 3.496,-1.621334 1.26667,-1.672 1.26667,-5.218667 0,-3.546666 -1.26667,-5.168 -1.26666,-1.672 -3.496,-1.672 -1.46933,0 -2.53333,0.861334 -1.01333,0.810666 -1.57067,2.330666 -0.55733,1.52 -0.55733,3.698667 0,2.178667 0.55733,3.698667 0.55734,1.52 1.62134,2.330667 1.064,0.76 2.48266,0.76 z"
     style="font-size:50.66666794px;fill:#326de6;fill-opacity:1"
     id="path834" /><path
     d="m 206.86537,57.341948 q -4.20534,0 -7.296,-1.570667 -3.04,-1.570666 -4.712,-4.509333 -1.672,-2.938667 -1.672,-7.093334 0,-4.154666 1.672,-7.093333 1.672,-2.938667 4.66133,-4.509334 3.04,-1.570666 6.94133,-1.570666 4.00267,0 6.78934,1.570666 2.83733,1.52 4.30666,4.256001 1.46934,2.685333 1.46934,6.181333 0,0.912 -0.0507,1.824 -0.0507,0.912 -0.152,1.52 h -20.064 v -4.610667 h 16.264 l -4.104,1.570667 q 0,-3.04 -1.11467,-4.661333 -1.064,-1.621334 -3.344,-1.621334 -1.62133,0 -2.78666,0.76 -1.11467,0.76 -1.72267,2.381334 -0.55733,1.621333 -0.55733,4.154666 0,2.482667 0.65866,4.053334 0.65867,1.52 1.87467,2.229333 1.216,0.658667 2.93867,0.658667 1.92533,0 3.04,-0.76 1.16533,-0.76 1.72266,-2.128 l 6.89067,2.28 q -0.70933,2.178667 -2.48267,3.698667 -1.72266,1.469333 -4.15466,2.229333 -2.38134,0.76 -5.016,0.76 z"
     style="font-size:50.66666794px;fill:#326de6;fill-opacity:1"
     id="path836" /><path
     d="m 234.47862,57.341948 q -3.8,0 -7.09333,-1.216 -3.24267,-1.266667 -5.37067,-3.597333 l 4.05334,-4.762667 q 1.26666,1.621333 3.344,2.736 2.128,1.064 4.712,1.064 1.57066,0 2.584,-0.456 1.01333,-0.456 1.01333,-1.418667 0,-0.709333 -0.50667,-1.114667 -0.50666,-0.456 -2.02666,-0.76 l -3.54667,-0.709333 q -4.76267,-0.962667 -6.78933,-2.837333 -1.976,-1.925334 -1.976,-5.016 0,-2.077334 1.26666,-3.952001 1.26667,-1.925333 3.90134,-3.090666 2.63466,-1.216 6.73866,-1.216 3.85067,0 6.78934,1.114666 2.93866,1.114667 4.66133,3.242667 l -4.104,4.661334 q -1.216,-1.52 -3.14133,-2.381334 -1.92534,-0.861333 -3.85067,-0.861333 -1.216,0 -2.07733,0.253333 -0.81067,0.202667 -1.216,0.608 -0.40534,0.405334 -0.40534,1.013334 0,0.658666 0.608,1.165333 0.65867,0.456 2.38134,0.810667 l 4.61066,0.912 q 3.90134,0.709333 5.624,2.584 1.72267,1.874666 1.72267,4.509333 0,2.482667 -1.31733,4.458667 -1.31734,1.976 -3.952,3.141333 -2.63467,1.114667 -6.63734,1.114667 z"
     style="font-size:50.66666794px;fill:#326de6;fill-opacity:1"
     id="path838" /><path
     d="M 250.8439,56.835281 V 20.760614 h 8.61334 v 15.352 q 1.11466,-2.533333 3.192,-3.8 2.07733,-1.317333 4.81333,-1.317333 2.63467,0 4.56,1.013333 1.976,1.013333 3.09067,2.989333 1.11466,1.976001 1.11466,4.965334 v 16.872 h -8.61333 V 42.344614 q 0,-2.736 -1.01333,-3.749333 -0.96267,-1.064 -2.584,-1.064 -1.216,0 -2.28,0.608 -1.064,0.608 -1.672,1.925333 -0.608,1.317334 -0.608,3.445334 v 13.325333 z"
     style="font-size:50.66666794px;fill:#326de6;fill-opacity:1"
     id="path840" /><path
     d="m 296.39319,40.773948 q 0,-1.773334 -1.01334,-2.786667 -0.96266,-1.064 -2.63466,-1.064 -1.672,0 -2.888,0.861333 -1.16534,0.810667 -1.62134,2.938667 l -7.296,-1.722667 q 0.70934,-3.648 3.74934,-5.826667 3.04,-2.178666 8.56266,-2.178666 3.69867,0 6.28267,1.114666 2.63467,1.064 4.00267,3.242667 1.41866,2.128 1.41866,5.269334 v 9.272 q 0,1.976 1.77334,1.976 0.912,0 1.46933,-0.202667 l -0.50667,4.914667 q -1.52,0.709333 -3.69866,0.709333 -1.976,0 -3.496,-0.608 -1.52,-0.658666 -2.38134,-1.925333 -0.86133,-1.317333 -0.86133,-3.293333 v -0.304 l 0.96267,-0.354667 q 0,2.178667 -1.31734,3.648 -1.26666,1.469333 -3.344,2.178667 -2.02666,0.709333 -4.256,0.709333 -2.584,0 -4.50933,-0.810667 -1.92533,-0.810666 -2.98933,-2.330666 -1.01334,-1.570667 -1.01334,-3.850667 0,-2.736 1.62134,-4.509334 1.672,-1.824 5.21866,-2.533333 l 9.576,-1.976 -0.0507,4.56 -4.864,1.013333 q -1.52,0.304 -2.28,0.912 -0.70934,0.557334 -0.70934,1.722667 0,1.114667 0.81067,1.672 0.81067,0.557334 1.92533,0.557334 0.86134,0 1.62134,-0.253334 0.81066,-0.253333 1.41866,-0.76 0.608,-0.557333 0.96267,-1.368 0.35467,-0.810667 0.35467,-1.925333 z"
     style="font-size:50.66666794px;fill:#326de6;fill-opacity:1"
     id="path842" /><path
     d="M 311.59312,56.835281 V 31.501947 h 7.6 l 0.35467,5.472001 q 0.96267,-2.837334 2.83733,-4.408001 1.92534,-1.570666 4.864,-1.570666 0.96267,0 1.62134,0.152 0.70933,0.152 1.11466,0.405333 l -0.86133,7.093334 q -0.50667,-0.202667 -1.31733,-0.304 -0.76,-0.152 -1.87467,-0.152 -1.52,0 -2.83733,0.658666 -1.31734,0.658667 -2.128,1.976 -0.76,1.266667 -0.76,3.242667 v 12.768 z"
     style="font-size:50.66666794px;fill:#326de6;fill-opacity:1"
     id="path844" /><path
     d="m 361.1957,31.501947 -12.16,12.970667 -1.62133,0.456 -7.24534,8.106667 -0.0507,-8.816 11.50133,-12.717334 z M 341.99303,20.760614 V 56.835281 H 333.3797 V 20.760614 Z m 8.36,18.341334 11.4,17.733333 h -9.52533 l -7.49867,-12.666667 z"
     style="font-size:50.66666794px;fill:#326de6;fill-opacity:1"
     id="path846" /></g>
</g>
</g>
</svg>
