<svg width="323" height="122" viewBox="0 0 323 122" fill="none" xmlns="http://www.w3.org/2000/svg">
<path d="M144.983 72.4878H132.909L124.892 53.7561C124.699 53.2358 124.313 52.2927 123.733 50.9268C123.218 49.4959 122.606 47.9024 121.898 46.1463C121.254 44.3252 120.578 42.4715 119.869 40.5854C119.161 38.6992 118.517 36.9756 117.938 35.4146C117.938 41.7544 117.85 38.0533 117.648 44.3902C117.648 48.0008 114.653 50.9268 111.079 50.9268H110.701C106.728 50.9268 103.589 47.5254 103.867 43.523L105.91 14.1174C106.21 9.79246 109.771 6.43902 114.064 6.43902H114.389C117.874 6.43902 121.008 8.5821 122.302 11.8504L135.227 44.4878C135.678 45.6585 136.258 47.3171 136.966 49.4634C137.739 51.5447 138.479 53.8211 139.188 56.2927C139.896 53.8862 140.604 51.6423 141.313 49.561C142.085 47.4146 142.729 45.7236 143.244 44.4878L156.228 11.7021C157.487 8.52338 160.535 6.43902 163.925 6.43902C168.313 6.43902 171.941 9.89324 172.2 14.3178L175.602 72.4878H160.631L160.051 59.2195C159.987 57.9837 159.922 56.3577 159.858 54.3415C159.858 52.3252 159.858 50.2114 159.858 48C159.858 45.7236 159.858 43.4797 159.858 41.2683C159.922 38.9919 159.955 37.0406 159.955 35.4146C159.439 36.7805 158.86 38.3415 158.216 40.0976C157.636 41.7886 157.025 43.4472 156.381 45.0732C155.737 46.6992 155.125 48.2276 154.545 49.6585C153.966 51.0244 153.515 52.0976 153.193 52.878L144.983 72.4878Z" fill="#205CF5"/>
<path d="M188.352 70.439C185.841 67.9022 185.116 65.3659 185.116 61.8537V31.2195C185.116 26.9629 188.532 23.5122 192.746 23.5122C196.961 23.5122 200.377 26.9629 200.377 31.2195V57.4634C200.377 58.9593 200.603 59.9675 201.053 60.4878C201.504 61.0081 202.18 61.2683 203.082 61.2683C203.597 61.2683 212.661 61.2358 213.176 61.1707C213.691 61.0406 212.951 61.2358 213.08 61.1707L206.945 70.5366C206.881 70.6016 206.591 70.7642 206.076 71.0244C205.561 71.2195 204.885 71.4797 204.048 71.8049C200.04 71.1219 196.949 72 193.516 72.503C190.477 72.4878 189.511 71.6098 188.352 70.439ZM192.94 0C195.644 0 197.705 0.813007 199.121 2.43902C200.538 4.06504 201.246 6.11382 201.246 8.58537C201.246 11.1219 200.506 13.2358 199.025 14.9268C197.608 16.6179 195.451 17.4634 192.553 17.4634C189.849 17.4634 187.756 16.6504 186.275 15.0244C184.858 13.3333 184.15 11.3496 184.15 9.07317C184.15 6.47154 184.89 4.3252 186.371 2.63415C187.853 0.878049 190.042 0 192.94 0Z" fill="#205CF5"/>
<path d="M209.762 72.4878V63.9024L228.114 35.0244C226.89 35.0894 225.731 35.1545 224.637 35.2195C223.542 35.2195 222.447 35.2195 221.352 35.2195H217.185C214.458 35.2195 212.128 33.2365 211.664 30.5224C211.074 27.064 213.711 23.9024 217.185 23.9024H238.702C242.723 23.9024 245.983 27.195 245.983 31.2567C245.983 32.635 245.6 33.9856 244.876 35.1544L228.597 61.4634C229.434 61.3984 230.239 61.3659 231.012 61.3659C231.849 61.3008 232.718 61.2683 233.619 61.2683H266.974V72.4878H209.762Z" fill="#205CF5"/>
<path d="M278.179 31.2195C278.179 26.9629 281.595 23.5122 285.81 23.5122C290.024 23.5122 293.44 26.9629 293.44 31.2195V48.9756C293.44 52.878 292.188 70.0488 303.682 70.2439C304.197 72.8455 294.184 69.8537 294.892 71.4146C295.665 73.3008 291.605 70.2439 294.213 72.4878L303.682 80C290.352 80 285.327 71.935 284.747 71.0244C284.232 70.3089 283.717 69.3984 283.202 68.2927C282.686 67.1219 282.561 67.252 282.239 65.7561C280.564 68.813 279.631 69.8435 276.443 71.4146C274.266 72.4878 270.387 72.4878 266.974 72.4878C264.463 72.4878 260.023 72.4878 258.477 72.4878C256.739 71.6423 255.866 69.9187 254.707 68.4878C253.613 66.9919 252.808 65.2032 252.292 63.1219C251.842 61.0406 251.616 58.6992 251.616 56.0976V31.2683C251.616 26.9847 255.054 23.5122 259.295 23.5122C263.536 23.5122 266.974 26.9847 266.974 31.2683V54.0488C266.974 56.3252 267.232 58.1789 267.747 59.6098C268.327 60.9756 269.357 61.6585 270.838 61.6585C272.641 61.6585 274.898 60.8455 276.443 58.439C277.989 55.9675 278.179 52.1951 278.179 47.9024V31.2195Z" fill="#205CF5"/>
<path d="M193.375 63.9024H211.727V72.4878H193.375V63.9024Z" fill="#205CF5"/>
<path d="M115.534 58.9879C114.253 57.5163 112.39 56.7805 109.946 56.7805C107.326 56.7805 105.347 57.5751 104.008 59.1645C102.669 60.6949 102 62.6374 102 64.992C102 67.0522 102.64 68.8475 103.921 70.378C105.26 71.8496 107.152 72.5854 109.596 72.5854C112.216 72.5854 114.166 71.8201 115.446 70.2897C116.785 68.7592 117.455 66.8462 117.455 64.5505C117.455 62.3137 116.814 60.4595 115.534 58.9879Z" fill="#205CF5"/>
<path fill-rule="evenodd" clip-rule="evenodd" d="M288.034 52.878C290.701 52.878 292.864 55.062 292.864 57.7561C292.864 65.2774 298.026 70.2439 303.102 70.2439C308.178 70.2439 313.341 65.2774 313.341 57.7561C313.341 55.062 315.503 52.878 318.17 52.878C320.838 52.878 323 55.062 323 57.7561C323 69.4166 314.67 80 303.102 80C291.534 80 283.205 69.4166 283.205 57.7561C283.205 55.062 285.367 52.878 288.034 52.878Z" fill="#205CF5"/>
<path d="M81 40.5C81 62.8675 62.8675 81 40.5 81C18.1325 81 0 62.8675 0 40.5C0 18.1325 18.1325 0 40.5 0C62.8675 0 81 18.1325 81 40.5Z" fill="#205CF5"/>
<path d="M37.5966 19.7417C39.1011 19.0558 41.0844 19.8789 43.5463 22.2108C43.5463 22.348 43.4096 22.6223 43.136 23.0338C41.905 25.2286 41.4263 29.2751 41.6999 35.1734C43.0677 36.5452 43.8883 37.3682 44.1618 37.6425C46.8973 34.7619 49.0174 32.2928 50.5219 30.2352C51.3425 29.0007 51.7528 27.6976 51.7528 26.3259C51.7528 25.9144 51.8212 25.64 51.958 25.5028C54.4199 25.5028 56.2664 26.7374 57.4973 29.2065C57.4973 29.4809 57.2238 29.7552 56.6767 30.0295C55.5825 30.4411 54.5567 30.9897 53.5993 31.6756C53.1889 31.95 52.5051 32.43 51.5476 33.1159C49.2224 34.8991 46.9656 36.6824 44.7772 38.4656C50.5218 44.7754 57.2921 48.6162 65.0882 49.9881C66.3192 50.2624 67.0031 50.5367 67.1399 50.8111C67.2766 50.9483 66.8663 51.154 65.9089 51.4284C60.8482 52.3885 57.8393 52.8 56.8822 52.6629C55.5144 52.6629 54.3518 52.0456 53.3944 50.811C49.975 47.2445 46.0771 42.5805 41.7005 36.8191C41.8373 40.2484 42.0424 45.598 42.316 52.8679C42.316 54.3768 42.316 55.1312 42.316 55.1312C42.5895 58.4234 41.7689 61.0296 39.854 62.95C39.5805 62.95 38.965 62.4013 38.0075 61.3039C36.6398 59.6579 35.272 58.3547 33.9043 57.3946C32.6733 56.4344 33.3572 56.16 35.956 56.5715C37.5973 56.8459 38.5547 56.9145 38.8282 56.7773C39.1017 56.5029 39.3069 53.6223 39.4437 48.1354C39.5805 42.1002 39.5805 35.9274 39.4437 29.617C39.4437 26.3249 38.8966 23.5815 37.8024 21.3867C37.5288 20.7008 37.4706 19.7417 37.5972 19.7407L37.5966 19.7417ZM33.4934 32.9102C35.4082 33.3217 36.6392 34.2133 37.1863 35.5851C37.1863 35.7222 36.9812 36.0652 36.5708 36.6139C35.7502 37.5741 35.2031 38.4657 34.9295 39.2887C32.3308 47.2449 27.6803 52.9374 20.978 56.3665C20.2942 56.778 19.8155 56.9152 19.5419 56.778C19.4052 56.5037 19.6787 56.0922 20.3626 55.5435C26.7912 50.1938 30.8261 43.8153 32.4671 36.408C32.1935 36.2708 30.8942 36.6823 28.569 37.6425C26.6542 38.3283 25.4916 38.6713 25.0812 38.6713C21.3883 37.4367 20.5676 36.6137 22.6193 36.2022C27.1329 35.7907 30.4837 34.8305 32.6719 33.3216C33.0822 33.0473 33.3558 32.9101 33.4925 32.9101L33.4934 32.9102Z" fill="white"/>
<path fill-rule="evenodd" clip-rule="evenodd" d="M37.5961 19.7407C37.5957 19.7407 37.5954 19.7407 37.595 19.7408C37.5148 19.7487 37.5114 20.1515 37.5931 20.6196C37.6374 20.8736 37.7067 21.1469 37.8024 21.3867C38.8966 23.5815 39.4437 26.3249 39.4437 29.617C39.5805 35.9274 39.5805 42.1002 39.4437 48.1354C39.3069 53.6223 39.1017 56.5029 38.8282 56.7773C38.5547 56.9145 37.5973 56.8459 35.956 56.5715C33.3572 56.16 32.6733 56.4344 33.9043 57.3946C35.272 58.3547 36.6398 59.6579 38.0075 61.3039C38.965 62.4013 39.5805 62.95 39.854 62.95C41.7689 61.0296 42.5895 58.4234 42.316 55.1312V52.8679C42.08 46.5975 41.895 41.7557 41.7608 38.3424C41.7394 37.7983 41.7193 37.2905 41.7005 36.8191C42.0109 37.2277 42.3189 37.6308 42.6245 38.0284C46.6276 43.2366 50.2176 47.4975 53.3944 50.811C54.3518 52.0456 55.5144 52.6629 56.8822 52.6629C57.8393 52.8 60.8482 52.3885 65.9089 51.4284C66.0786 51.3797 66.231 51.3333 66.3663 51.289C66.3772 51.2854 66.3881 51.2818 66.3988 51.2783C66.3995 51.278 66.4003 51.2778 66.401 51.2775C66.4013 51.2774 66.4016 51.2773 66.4019 51.2772C66.5778 51.2188 66.7233 51.1642 66.8384 51.1134C67.1175 50.9902 67.218 50.8895 67.1399 50.8111C67.0673 50.6655 66.8405 50.5199 66.4597 50.3742C66.4376 50.3658 66.415 50.3574 66.3919 50.3489C66.0625 50.2286 65.6279 50.1083 65.0882 49.9881C57.5609 48.6635 50.9899 45.0373 45.3751 39.1096C45.1746 38.8978 44.9753 38.6832 44.7772 38.4656C45.0036 38.2811 45.2308 38.0966 45.4587 37.9121C47.4333 36.3134 49.463 34.7146 51.5476 33.1159C52.5051 32.43 53.1889 31.95 53.5993 31.6756C54.5567 30.9897 55.5825 30.4411 56.6767 30.0295C57.2238 29.7552 57.4973 29.4809 57.4973 29.2065C56.2664 26.7374 54.4199 25.5028 51.958 25.5028C51.8212 25.64 51.7528 25.9144 51.7528 26.3259C51.7528 27.6976 51.3425 29.0007 50.5219 30.2352C49.1296 32.1393 47.2102 34.3958 44.7638 37.0047C44.5666 37.215 44.3659 37.4276 44.1618 37.6425L41.6999 35.1734C41.4263 29.2751 41.905 25.2286 43.136 23.0338C43.4096 22.6223 43.5463 22.348 43.5463 22.2108C41.522 20.2934 39.8213 19.3961 38.4442 19.519C38.1471 19.5455 37.865 19.6195 37.598 19.7411C37.5977 19.7412 37.5975 19.7413 37.5972 19.7414C37.597 19.7415 37.5968 19.7416 37.5966 19.7417L37.5972 19.7407C37.5968 19.7407 37.5965 19.7407 37.5961 19.7407ZM37.3033 18.912C37.133 18.9713 37.0052 19.0745 36.923 19.1667C36.8122 19.291 36.7595 19.4179 36.7354 19.4846C36.6858 19.622 36.6711 19.7538 36.6648 19.8316C36.6509 20.0056 36.6596 20.205 36.6788 20.3954C36.7176 20.779 36.8148 21.2745 36.9896 21.7128C36.9986 21.7353 37.0086 21.7576 37.0194 21.7793C38.0357 23.8178 38.5683 26.4168 38.5683 29.617C38.5683 29.6234 38.5684 29.6297 38.5685 29.6361C38.705 35.9338 38.705 42.0933 38.5686 48.1148C38.5003 50.8538 38.4152 52.929 38.3141 54.3485C38.2634 55.0608 38.2097 55.5909 38.1551 55.9508C38.1545 55.9552 38.1538 55.9595 38.1531 55.9639C38.0971 55.9615 38.0353 55.9579 37.9674 55.953C37.5287 55.9216 36.91 55.841 36.0999 55.7056C36.0974 55.7052 36.0949 55.7048 36.0925 55.7044C35.4268 55.5989 34.86 55.5335 34.4024 55.5143C33.9839 55.4969 33.5276 55.5096 33.1689 55.6535C32.9782 55.73 32.6898 55.894 32.5325 56.2358C32.3659 56.5978 32.4437 56.942 32.5402 57.1596C32.7059 57.5336 33.058 57.8466 33.3669 58.0875C33.3785 58.0966 33.3903 58.1053 33.4023 58.1137C34.6917 59.0189 36.0038 60.2639 37.3351 61.8659C37.3371 61.8684 37.3391 61.8708 37.3412 61.8732C37.3437 61.8762 37.3462 61.8791 37.3488 61.882C37.8364 62.4409 38.2575 62.8842 38.6057 63.1946C38.7786 63.3488 38.9539 63.4886 39.126 63.5948C39.2699 63.6836 39.5335 63.8279 39.854 63.8279C40.0862 63.8279 40.3088 63.7354 40.473 63.5708C42.6015 61.4361 43.472 58.5671 43.1913 55.0952V52.8679C43.1913 52.8569 43.1911 52.8459 43.1907 52.8348C42.9818 47.2833 42.8128 42.8511 42.6836 39.5384C46.3862 44.3074 49.7362 48.2589 52.7325 51.3872C53.8122 52.7617 55.1861 53.5227 56.8236 53.5404C57.1504 53.5791 57.5702 53.5715 58.045 53.5387C58.5674 53.5025 59.2124 53.4313 59.975 53.327C61.501 53.1183 63.5352 52.7722 66.0716 52.2909C66.0978 52.286 66.1238 52.2798 66.1494 52.2725C66.6344 52.1335 67.0433 51.9953 67.3262 51.8535C67.4446 51.7941 67.6625 51.677 67.8234 51.4752C67.9134 51.3625 68.0409 51.1535 68.0409 50.8657C68.0409 50.6415 67.9641 50.4588 67.8696 50.323C67.7386 50.1116 67.5598 49.9682 67.4202 49.8749C67.2491 49.7604 67.052 49.6657 66.8494 49.5845C66.4435 49.4216 65.9122 49.2724 65.2781 49.1311C65.2653 49.1282 65.2524 49.1256 65.2395 49.1234C57.9323 47.8375 51.5426 44.3274 46.0577 38.5554C48.0071 36.9778 50.0105 35.4 52.068 33.8219C53.0192 33.1407 53.689 32.6707 54.0848 32.4061C54.0892 32.4031 54.0936 32.4001 54.098 32.3971C54.1014 32.3947 54.1047 32.3924 54.1081 32.39C55.0037 31.7483 55.9619 31.236 56.984 30.8515C57.0127 30.8408 57.0408 30.8285 57.0681 30.8148C57.3829 30.6569 57.6807 30.4699 57.9111 30.2388C58.1433 30.0059 58.3727 29.6586 58.3727 29.2065C58.3727 29.0702 58.341 28.9358 58.2803 28.8139C57.6129 27.4752 56.7519 26.4184 55.6749 25.6983C54.5923 24.9745 53.3421 24.6249 51.958 24.6249C51.7258 24.6249 51.5032 24.7174 51.339 24.8821C51.1184 25.1033 51.011 25.3734 50.9549 25.5985C50.8974 25.829 50.8774 26.0777 50.8774 26.3259C50.8774 27.5043 50.5299 28.6346 49.8041 29.7322C48.4446 31.5895 46.5611 33.8055 44.1445 36.3836L43.9506 36.1891C43.939 36.1774 43.9433 36.1818 43.9464 36.1849L43.4674 35.7045C43.4669 35.704 43.4844 35.7216 43.4648 35.7019L43.4235 35.6605C43.4217 35.6587 43.4194 35.6564 43.4167 35.6537L43.3877 35.6246C43.3862 35.6231 43.3838 35.6207 43.3801 35.617L43.0594 35.2953C43.0625 35.2984 43.0824 35.3184 43.0577 35.2936L42.7917 35.0268C42.7595 34.9946 42.8094 35.0446 42.7772 35.0123L42.6144 34.849C42.5809 34.8154 42.6328 34.8675 42.5993 34.8339L42.5593 34.7938C42.4432 32.0234 42.5002 29.7013 42.723 27.8182C42.9539 25.8662 43.3566 24.4446 43.8838 23.4915C44.0217 23.2824 44.1394 23.0871 44.2267 22.912C44.2985 22.768 44.4217 22.5031 44.4217 22.2108C44.4217 21.9693 44.3225 21.7384 44.1474 21.5726C42.8785 20.3707 41.6775 19.5025 40.5471 19.0334C39.4275 18.5687 38.3186 18.4752 37.3033 18.912ZM66.5802 50.2626C66.5802 50.2628 66.5769 50.265 66.5695 50.2692C66.5764 50.2645 66.5802 50.2623 66.5802 50.2626ZM66.4632 51.3461C66.463 51.3461 66.4608 51.3445 66.457 51.3412C66.4615 51.3445 66.4634 51.3461 66.4632 51.3461ZM33.5914 32.0378C33.6201 32.0411 33.6486 32.0457 33.6768 32.0518C35.7727 32.5022 37.3093 33.5298 37.9991 35.259C38.0404 35.3627 38.0617 35.4734 38.0617 35.5851C38.0617 35.8026 37.9902 35.984 37.9524 36.0723C37.9053 36.1826 37.8452 36.2929 37.7831 36.3968C37.6579 36.606 37.4836 36.8565 37.2711 37.1406C37.2597 37.1558 37.2478 37.1707 37.2355 37.1852C36.4584 38.0944 35.9862 38.8869 35.7606 39.5644C33.1018 47.703 28.319 53.5875 21.4021 57.1351C21.0379 57.3523 20.682 57.526 20.3466 57.6221C20.0214 57.7153 19.5744 57.7759 19.1504 57.5632C18.981 57.4783 18.8437 57.3405 18.759 57.1706C18.4783 56.6075 18.7178 56.075 18.9162 55.7767C19.1261 55.4608 19.4454 55.1557 19.8094 54.8631C25.7141 49.9477 29.5271 44.1742 31.2916 37.5359C30.6978 37.7363 29.9038 38.0407 28.9023 38.4542C28.8895 38.4595 28.8765 38.4645 28.8634 38.4692C27.8993 38.8146 27.1122 39.078 26.5079 39.2563C25.9465 39.4219 25.433 39.5492 25.0812 39.5492C24.9871 39.5492 24.8937 39.534 24.8044 39.5041C23.8665 39.1906 23.0909 38.8966 22.4878 38.6217C21.9117 38.3591 21.4015 38.0742 21.0771 37.7488C20.915 37.5863 20.7078 37.3238 20.6564 36.9629C20.5966 36.5432 20.7722 36.1958 21.0001 35.9672C21.2018 35.7649 21.4536 35.64 21.6703 35.5564C21.8991 35.4681 22.1627 35.3985 22.4476 35.3413C22.4781 35.3352 22.509 35.3307 22.54 35.3279C26.9966 34.9216 30.1704 33.9812 32.1759 32.5982C32.1794 32.5958 32.1829 32.5935 32.1863 32.5912C32.4058 32.4444 32.6106 32.3194 32.7933 32.2278C32.937 32.1557 33.2011 32.0322 33.4925 32.0322C33.5253 32.0322 33.5581 32.034 33.5906 32.0377L33.5914 32.0378ZM31.5401 36.5368C31.9264 36.4247 32.1987 36.3736 32.357 36.3834C32.4035 36.3863 32.4402 36.3945 32.4671 36.408C32.4041 36.6921 32.3376 36.9747 32.2677 37.2558C32.2668 37.2591 32.266 37.2624 32.2652 37.2656C30.5093 44.3088 26.5418 50.4014 20.3626 55.5435C20.2026 55.6719 20.065 55.7928 19.9499 55.9061C19.9274 55.9283 19.9057 55.9502 19.8849 55.9718C19.5578 56.3117 19.4434 56.5804 19.5419 56.778C19.7273 56.871 20.0068 56.838 20.3806 56.679C20.4049 56.6686 20.4297 56.6577 20.4549 56.6463C20.6134 56.5742 20.7878 56.481 20.978 56.3665C27.6803 52.9374 32.3308 47.2449 34.9295 39.2887C35.2031 38.4657 35.7502 37.5741 36.5708 36.6139C36.9812 36.0652 37.1863 35.7222 37.1863 35.5851C36.6392 34.2133 35.4082 33.3217 33.4934 32.9102L33.4925 32.9101C33.3558 32.9101 33.0822 33.0473 32.6719 33.3216C30.4837 34.8305 27.1329 35.7907 22.6193 36.2022C20.5676 36.6137 21.3883 37.4367 25.0812 38.6713C25.4916 38.6713 26.6542 38.3283 28.569 37.6425C29.891 37.0966 30.8813 36.728 31.5401 36.5368ZM19.7798 55.9519C19.7799 55.9518 19.7821 55.9516 19.7862 55.9516C19.7818 55.952 19.7797 55.9521 19.7798 55.9519Z" fill="white"/>
<path fill-rule="evenodd" clip-rule="evenodd" d="M130 111.49C130 112.032 130.145 112.565 130.42 113.035C130.694 113.505 131.09 113.895 131.566 114.166L144.086 121.293C144.561 121.564 145.1 121.706 145.648 121.706C146.197 121.706 146.736 121.564 147.211 121.293L159.727 114.172C160.108 113.955 160.438 113.662 160.695 113.312C161.059 113.608 161.467 113.853 161.91 114.036C162.512 114.287 163.161 114.416 163.815 114.415H168.56C168.912 114.414 169.257 114.346 169.577 114.219C169.899 114.347 170.245 114.415 170.599 114.416H172.375C173.1 114.415 173.795 114.129 174.307 113.622C174.82 113.116 175.107 112.429 175.107 111.714V108.092H175.323C175.765 108.092 176.204 108.034 176.628 107.918C176.626 107.961 176.625 108.004 176.625 108.048V109.569C176.622 110.205 176.747 110.835 176.993 111.423C177.238 112.012 177.598 112.546 178.053 112.996C178.508 113.447 179.049 113.804 179.645 114.047C180.24 114.291 180.878 114.416 181.523 114.415H184.08C184.735 114.417 185.384 114.288 185.987 114.035C186.562 113.797 187.086 113.455 187.534 113.028C187.997 112.582 188.365 112.049 188.615 111.46C188.87 110.863 189.001 110.221 189 109.573V99.4307C189.001 98.7831 188.871 98.1419 188.616 97.5449C188.366 96.9562 187.998 96.4231 187.534 95.9776C187.086 95.5489 186.562 95.2061 185.987 94.9667C185.384 94.7151 184.736 94.5862 184.081 94.5877V94.5855H181.524C180.879 94.5857 180.241 94.7113 179.646 94.9551C179.206 95.1353 178.796 95.3776 178.428 95.6736C178.064 95.3838 177.66 95.1452 177.228 94.9653C176.624 94.7125 175.975 94.5831 175.32 94.5847L175.323 94.5864H170.599C170.247 94.5872 169.902 94.6549 169.581 94.7824C169.26 94.6539 168.913 94.5856 168.56 94.5848L168.559 94.5854H166.762C166.158 94.5851 165.571 94.7834 165.093 95.1491C164.616 94.783 164.029 94.5847 163.424 94.5854H161.649C161.165 94.5865 160.696 94.7135 160.285 94.9479C160.115 94.7937 159.928 94.6578 159.727 94.5432L147.212 87.4147C146.735 87.143 146.195 87 145.645 87C145.095 87 144.555 87.143 144.078 87.4147L131.56 94.5779C131.085 94.8494 130.691 95.2392 130.418 95.7084C130.144 96.1775 130 96.7094 130 97.2507V111.49Z" fill="black"/>
<path d="M142.702 111.606C142.763 111.64 142.812 111.689 142.847 111.748C142.882 111.807 142.9 111.874 142.899 111.943C142.899 112.011 142.88 112.078 142.845 112.137C142.81 112.196 142.759 112.244 142.699 112.277L140.947 113.256L140.934 113.249L138.21 114.805C138.091 114.873 137.956 114.909 137.819 114.909C137.681 114.909 137.546 114.873 137.427 114.805L133.905 112.797C133.43 112.526 133.035 112.136 132.761 111.667C132.487 111.198 132.342 110.666 132.343 110.125V98.5483C132.343 98.0023 132.49 97.4661 132.769 96.9946C133.048 96.5231 133.449 96.1332 133.931 95.8648L134.108 95.7663C134.198 95.7159 134.305 95.7029 134.405 95.7302C134.505 95.7574 134.59 95.8228 134.642 95.9119C134.675 95.9698 134.692 96.0355 134.692 96.1022V110.376C134.692 110.444 134.709 110.511 134.744 110.57C134.778 110.629 134.827 110.678 134.887 110.712L136.843 111.837C136.903 111.871 136.97 111.889 137.039 111.889C137.107 111.889 137.175 111.871 137.234 111.837L137.259 111.823C137.319 111.79 137.368 111.741 137.403 111.682C137.437 111.624 137.455 111.557 137.455 111.489C137.455 111.421 137.437 111.354 137.403 111.296C137.368 111.237 137.319 111.188 137.259 111.155L135.667 110.247C135.607 110.213 135.558 110.164 135.523 110.105C135.489 110.046 135.471 109.979 135.471 109.911V95.4266C135.471 95.2899 135.508 95.1557 135.578 95.0377C135.648 94.9197 135.748 94.8221 135.869 94.7549L137.235 93.9913C137.326 93.941 137.433 93.9281 137.533 93.9554C137.633 93.9827 137.718 94.0479 137.769 94.1369C137.802 94.1945 137.82 94.2597 137.82 94.3261V108.6C137.819 108.668 137.837 108.735 137.871 108.794C137.906 108.853 137.955 108.902 138.015 108.936L142.702 111.606Z" fill="white"/>
<path d="M141.545 107.39C141.454 107.339 141.389 107.255 141.361 107.156C141.334 107.057 141.347 106.952 141.399 106.863C141.434 106.802 141.485 106.752 141.546 106.718L145.448 104.457C145.507 104.423 145.556 104.373 145.59 104.314C145.624 104.255 145.642 104.189 145.641 104.121V90.5241C145.641 90.4225 145.621 90.322 145.582 90.2281C145.542 90.1343 145.485 90.049 145.412 89.9771C145.339 89.9053 145.253 89.8483 145.158 89.8094C145.063 89.7705 144.961 89.7505 144.858 89.7505C144.72 89.7503 144.583 89.7869 144.464 89.8563L140.947 91.8865L138.997 92.9775C138.876 93.0449 138.776 93.1426 138.706 93.2606C138.637 93.3785 138.6 93.5126 138.6 93.6492V108.183C138.599 108.251 138.617 108.318 138.652 108.377C138.686 108.436 138.735 108.485 138.795 108.519L143.676 111.314C143.797 111.383 143.935 111.419 144.074 111.418C144.214 111.417 144.351 111.379 144.471 111.308L145.85 110.489C145.908 110.455 145.957 110.405 145.99 110.346C146.023 110.287 146.04 110.221 146.039 110.154C146.039 110.086 146.02 110.02 145.986 109.962C145.951 109.904 145.902 109.855 145.843 109.822L141.545 107.39ZM141.137 94.4804L142.702 93.5512C142.762 93.5161 142.83 93.4972 142.899 93.4964C142.968 93.4957 143.036 93.5131 143.096 93.5468C143.157 93.5806 143.207 93.6295 143.241 93.6886C143.276 93.7477 143.294 93.8148 143.294 93.8832V102.802C143.294 102.871 143.276 102.938 143.241 102.996C143.206 103.055 143.156 103.104 143.096 103.138L141.53 104.019C141.471 104.052 141.403 104.069 141.335 104.069C141.266 104.069 141.199 104.051 141.14 104.017C141.081 103.983 141.032 103.934 140.998 103.875C140.963 103.817 140.945 103.75 140.945 103.683V94.8129C140.946 94.746 140.964 94.6803 140.997 94.6221C141.031 94.5639 141.079 94.5151 141.137 94.4804Z" fill="white"/>
<path d="M146.423 90.9801V104.55C146.423 104.618 146.405 104.685 146.371 104.744C146.336 104.803 146.287 104.852 146.227 104.886L143.095 106.677C143.036 106.711 142.986 106.76 142.952 106.819C142.918 106.877 142.9 106.944 142.9 107.011C142.9 107.079 142.918 107.145 142.952 107.204C142.986 107.262 143.036 107.311 143.095 107.345L147.4 109.804C147.459 109.837 147.509 109.886 147.543 109.945C147.577 110.003 147.595 110.07 147.595 110.137C147.595 110.205 147.577 110.272 147.543 110.33C147.509 110.389 147.459 110.437 147.4 110.471L139.185 115.166C139.125 115.2 139.075 115.249 139.04 115.308C139.006 115.367 138.987 115.434 138.987 115.502C138.987 115.57 139.006 115.637 139.04 115.696C139.075 115.755 139.125 115.804 139.185 115.838L144.081 118.602C144.554 118.87 145.091 119.011 145.636 119.011C146.182 119.011 146.718 118.87 147.192 118.602L157.759 112.62C158.117 112.417 158.415 112.124 158.622 111.771C158.829 111.419 158.938 111.018 158.938 110.611V98.5642C158.938 98.0226 158.794 97.4905 158.519 97.0213C158.245 96.5522 157.85 96.1625 157.375 95.8914L147.596 90.3112C147.477 90.2433 147.342 90.2076 147.205 90.2075C147.067 90.2075 146.932 90.2431 146.813 90.3109C146.695 90.3786 146.596 90.4761 146.527 90.5935C146.459 90.7109 146.422 90.844 146.423 90.9795V90.9801ZM156.005 107.601L149.159 103.683C149.041 103.615 148.942 103.517 148.874 103.4C148.806 103.283 148.77 103.15 148.77 103.015V97.8774C148.769 97.8095 148.787 97.7427 148.821 97.6838C148.856 97.6249 148.905 97.5759 148.965 97.5419C149.024 97.5078 149.092 97.4898 149.161 97.4898C149.229 97.4897 149.297 97.5076 149.357 97.5415L155.033 100.788C155.507 101.06 155.901 101.449 156.175 101.918C156.448 102.386 156.592 102.918 156.592 103.459V107.265C156.592 107.316 156.582 107.366 156.563 107.413C156.543 107.46 156.515 107.502 156.478 107.538C156.442 107.574 156.399 107.603 156.352 107.622C156.304 107.642 156.253 107.652 156.202 107.652C156.133 107.652 156.065 107.634 156.005 107.599V107.601Z" fill="#627EF7"/>
<path d="M142.699 112.284L140.947 113.267L140.934 113.259L138.211 114.822C138.091 114.89 137.956 114.926 137.818 114.926C137.68 114.926 137.545 114.89 137.426 114.822L133.904 112.806C133.433 112.536 133.042 112.148 132.77 111.682L134.738 110.557C134.772 110.62 134.823 110.672 134.886 110.709L136.842 111.838C136.902 111.872 136.969 111.89 137.038 111.89C137.106 111.89 137.174 111.872 137.233 111.838L137.258 111.824C137.318 111.79 137.368 111.741 137.402 111.682C137.437 111.623 137.455 111.556 137.455 111.488C137.455 111.42 137.437 111.353 137.402 111.294C137.368 111.235 137.318 111.186 137.258 111.152L135.666 110.242C135.608 110.208 135.56 110.16 135.526 110.103L137.862 108.77C137.896 108.835 137.948 108.889 138.013 108.927L142.703 111.61C142.762 111.644 142.812 111.693 142.847 111.752C142.881 111.811 142.9 111.878 142.9 111.946C142.9 112.014 142.881 112.081 142.847 112.14C142.812 112.199 142.762 112.248 142.703 112.282L142.699 112.284Z" fill="#8F9BB2"/>
<path d="M158.634 111.733C158.428 112.096 158.125 112.396 157.76 112.603L147.195 118.597C146.722 118.865 146.185 119.006 145.64 119.006C145.094 119.006 144.558 118.865 144.084 118.597L139.19 115.826C139.13 115.792 139.08 115.743 139.046 115.685C139.011 115.626 138.993 115.559 138.993 115.491C138.993 115.423 139.011 115.356 139.046 115.297C139.08 115.238 139.13 115.189 139.19 115.155L145.643 111.458L147.404 110.45C147.464 110.416 147.514 110.367 147.549 110.308C147.583 110.249 147.602 110.182 147.602 110.114C147.602 110.046 147.583 109.979 147.549 109.92C147.514 109.861 147.464 109.812 147.404 109.778L145.643 108.771L143.098 107.315C143.038 107.282 142.988 107.233 142.953 107.174C142.918 107.115 142.9 107.048 142.9 106.98C142.9 106.911 142.918 106.844 142.953 106.785C142.988 106.726 143.038 106.678 143.098 106.644L145.643 105.183L146.23 104.847C146.284 104.816 146.33 104.773 146.363 104.721L158.634 111.733Z" fill="#3B4C95"/>
<path d="M145.851 110.443L145.641 110.567L144.472 111.262C144.352 111.333 144.216 111.371 144.076 111.372C143.936 111.373 143.799 111.337 143.678 111.268L138.799 108.475C138.769 108.458 138.742 108.436 138.717 108.412C138.694 108.389 138.674 108.363 138.657 108.334L139.731 107.718L141.502 106.706C141.489 106.716 141.476 106.727 141.465 106.739C141.453 106.75 141.442 106.762 141.433 106.775C141.431 106.777 141.429 106.779 141.429 106.782C141.42 106.792 141.413 106.803 141.406 106.815C141.403 106.819 141.401 106.824 141.398 106.829C141.394 106.837 141.391 106.845 141.388 106.852C141.384 106.859 141.381 106.867 141.378 106.875C141.374 106.883 141.372 106.892 141.37 106.901C141.367 106.905 141.366 106.91 141.366 106.915C141.363 106.927 141.36 106.939 141.359 106.95C141.347 107.027 141.359 107.106 141.393 107.176C141.427 107.246 141.482 107.304 141.55 107.342L145.646 109.658L145.848 109.77C145.939 109.821 146.004 109.905 146.032 110.003C146.059 110.102 146.046 110.208 145.994 110.297C145.96 110.357 145.911 110.408 145.851 110.443Z" fill="#8F9BB2"/>
<path d="M168.951 97.2915V111.716C168.951 111.767 168.941 111.817 168.921 111.864C168.902 111.911 168.873 111.953 168.837 111.989C168.801 112.025 168.758 112.054 168.71 112.073C168.663 112.092 168.612 112.103 168.561 112.103H163.816C163.137 112.103 162.486 111.839 162.004 111.367C161.772 111.137 161.587 110.866 161.459 110.568C161.324 110.254 161.256 109.915 161.26 109.573V97.2915C161.26 97.2409 161.27 97.1907 161.289 97.1439C161.309 97.0971 161.338 97.0545 161.374 97.0186C161.41 96.9828 161.453 96.9543 161.501 96.9348C161.548 96.9154 161.599 96.9053 161.65 96.9053H163.426C163.477 96.9053 163.528 96.9154 163.575 96.9348C163.623 96.9543 163.666 96.9828 163.702 97.0186C163.738 97.0545 163.767 97.0971 163.787 97.1439C163.806 97.1907 163.816 97.2409 163.816 97.2915V109.186C163.816 109.237 163.826 109.287 163.846 109.334C163.865 109.381 163.894 109.423 163.93 109.459C163.967 109.495 164.01 109.523 164.057 109.543C164.104 109.562 164.155 109.572 164.207 109.573H165.983C166.035 109.572 166.085 109.562 166.133 109.543C166.18 109.523 166.223 109.495 166.26 109.459C166.296 109.423 166.325 109.381 166.344 109.334C166.364 109.287 166.374 109.237 166.374 109.186V97.2915C166.374 97.2409 166.384 97.1907 166.403 97.1439C166.423 97.0971 166.451 97.0545 166.488 97.0186C166.524 96.9828 166.567 96.9543 166.614 96.9348C166.662 96.9154 166.713 96.9053 166.764 96.9053H168.561C168.612 96.9053 168.663 96.9154 168.71 96.9348C168.758 96.9543 168.801 96.9828 168.837 97.0186C168.873 97.0545 168.902 97.0971 168.921 97.1439C168.941 97.1907 168.951 97.2409 168.951 97.2915Z" fill="white"/>
<path d="M177.899 99.4306V103.225C177.903 103.566 177.835 103.905 177.7 104.22C177.569 104.522 177.381 104.796 177.145 105.028C176.908 105.263 176.627 105.45 176.317 105.578C176.002 105.709 175.664 105.776 175.322 105.775H173.155C173.103 105.775 173.052 105.785 173.005 105.804C172.958 105.824 172.915 105.852 172.878 105.888C172.842 105.924 172.813 105.967 172.794 106.013C172.774 106.06 172.764 106.11 172.764 106.161V111.713C172.764 111.763 172.754 111.814 172.735 111.86C172.715 111.907 172.686 111.95 172.65 111.986C172.614 112.021 172.571 112.05 172.524 112.069C172.476 112.089 172.425 112.099 172.374 112.099H170.598C170.547 112.099 170.496 112.089 170.449 112.069C170.401 112.05 170.358 112.021 170.322 111.986C170.286 111.95 170.257 111.907 170.238 111.86C170.218 111.814 170.208 111.763 170.208 111.713V97.2879C170.208 97.2372 170.218 97.1871 170.238 97.1402C170.257 97.0934 170.286 97.0509 170.322 97.015C170.358 96.9791 170.401 96.9507 170.449 96.9312C170.496 96.9118 170.547 96.9017 170.598 96.9016H175.322C175.664 96.9002 176.002 96.9673 176.317 97.0987C176.625 97.2258 176.905 97.4086 177.145 97.6377C177.384 97.8673 177.572 98.1423 177.7 98.446C177.833 98.7576 177.9 99.0925 177.899 99.4306ZM175.322 102.839V99.8163C175.322 99.7656 175.312 99.7155 175.292 99.6686C175.273 99.6218 175.244 99.5793 175.208 99.5434C175.171 99.5075 175.128 99.4791 175.081 99.4596C175.034 99.4402 174.983 99.4301 174.931 99.43H173.155C173.103 99.4301 173.052 99.4402 173.005 99.4596C172.958 99.4791 172.915 99.5075 172.878 99.5434C172.842 99.5793 172.813 99.6218 172.794 99.6686C172.774 99.7155 172.764 99.7656 172.764 99.8163V102.839C172.764 102.89 172.774 102.94 172.794 102.987C172.813 103.033 172.842 103.076 172.878 103.112C172.915 103.148 172.958 103.176 173.005 103.196C173.052 103.215 173.103 103.225 173.155 103.225H174.931C175.035 103.225 175.134 103.184 175.207 103.112C175.28 103.04 175.321 102.943 175.322 102.841V102.839Z" fill="white"/>
<path d="M186.659 99.4311V109.569C186.66 109.908 186.593 110.242 186.46 110.554C186.332 110.858 186.143 111.133 185.905 111.362C185.665 111.591 185.384 111.774 185.077 111.901C184.762 112.033 184.423 112.1 184.082 112.098H181.524C181.188 112.099 180.855 112.034 180.544 111.907C180.233 111.78 179.951 111.593 179.713 111.358C179.476 111.123 179.288 110.844 179.16 110.537C179.032 110.23 178.967 109.901 178.968 109.569V108.047C178.968 107.996 178.978 107.946 178.997 107.899C179.017 107.852 179.046 107.81 179.082 107.774C179.118 107.738 179.161 107.71 179.209 107.69C179.256 107.671 179.307 107.661 179.358 107.661H181.134C181.185 107.661 181.236 107.671 181.283 107.69C181.331 107.71 181.374 107.738 181.41 107.774C181.446 107.81 181.475 107.852 181.495 107.899C181.514 107.946 181.524 107.996 181.524 108.047V109.182C181.524 109.233 181.534 109.283 181.554 109.33C181.573 109.377 181.602 109.419 181.638 109.455C181.675 109.491 181.718 109.519 181.765 109.539C181.812 109.558 181.863 109.568 181.914 109.568H183.691C183.743 109.568 183.793 109.558 183.841 109.539C183.888 109.519 183.931 109.491 183.968 109.455C184.004 109.419 184.033 109.377 184.052 109.33C184.072 109.283 184.082 109.233 184.082 109.182V106.159C184.082 106.109 184.072 106.059 184.052 106.012C184.033 105.965 184.004 105.922 183.968 105.887C183.931 105.851 183.888 105.822 183.841 105.803C183.793 105.783 183.743 105.773 183.691 105.773H181.524C181.182 105.775 180.844 105.708 180.529 105.576C180.222 105.45 179.943 105.263 179.712 105.026C179.482 104.792 179.297 104.518 179.167 104.218C179.032 103.903 178.964 103.565 178.968 103.223V99.4289C178.967 99.097 179.032 98.7681 179.16 98.4611C179.288 98.1541 179.476 97.8751 179.713 97.6401C179.951 97.405 180.233 97.2187 180.544 97.0917C180.855 96.9646 181.188 96.8995 181.524 96.8999H184.082C184.423 96.8985 184.762 96.9655 185.077 97.097C185.384 97.2241 185.665 97.4069 185.905 97.636C186.143 97.8656 186.332 98.1406 186.46 98.4443C186.593 98.7566 186.661 99.0923 186.659 99.4311ZM184.082 102.839V99.8168C184.082 99.7662 184.072 99.716 184.052 99.6692C184.033 99.6224 184.004 99.5798 183.968 99.5439C183.931 99.5081 183.888 99.4796 183.841 99.4601C183.793 99.4407 183.743 99.4306 183.691 99.4306H181.914C181.863 99.4306 181.812 99.4407 181.765 99.4601C181.718 99.4796 181.675 99.5081 181.638 99.5439C181.602 99.5798 181.573 99.6224 181.554 99.6692C181.534 99.716 181.524 99.7662 181.524 99.8168V102.839C181.524 102.89 181.534 102.94 181.554 102.987C181.573 103.034 181.602 103.076 181.638 103.112C181.675 103.148 181.718 103.177 181.765 103.196C181.812 103.216 181.863 103.226 181.914 103.226H183.691C183.795 103.226 183.894 103.185 183.967 103.113C184.04 103.041 184.081 102.943 184.082 102.841V102.839Z" fill="white"/>
<path d="M105.84 99.1C106.76 99.1 107.593 99.34 108.34 99.82C109.087 100.287 109.673 100.94 110.1 101.78C110.54 102.62 110.76 103.573 110.76 104.64C110.76 105.707 110.547 106.667 110.12 107.52C109.693 108.36 109.107 109.02 108.36 109.5C107.627 109.967 106.813 110.2 105.92 110.2C105.28 110.2 104.673 110.073 104.1 109.82C103.54 109.553 103.073 109.233 102.7 108.86V108.98C102.7 109.327 102.587 109.62 102.36 109.86C102.133 110.087 101.847 110.2 101.5 110.2C101.153 110.2 100.867 110.087 100.64 109.86C100.413 109.633 100.3 109.34 100.3 108.98V96.42C100.3 96.0733 100.413 95.7867 100.64 95.56C100.867 95.32 101.153 95.2 101.5 95.2C101.847 95.2 102.133 95.32 102.36 95.56C102.587 95.7867 102.7 96.0733 102.7 96.42V100.6C103.02 100.2 103.467 99.8533 104.04 99.56C104.613 99.2533 105.213 99.1 105.84 99.1ZM105.54 108C106.393 108 107.093 107.68 107.64 107.04C108.187 106.4 108.46 105.6 108.46 104.64C108.46 103.68 108.187 102.887 107.64 102.26C107.107 101.62 106.407 101.3 105.54 101.3C104.673 101.3 103.967 101.62 103.42 102.26C102.873 102.887 102.6 103.68 102.6 104.64C102.6 105.6 102.873 106.4 103.42 107.04C103.967 107.68 104.673 108 105.54 108ZM120.701 99.3C121.048 99.3 121.334 99.42 121.561 99.66C121.788 99.8867 121.901 100.173 121.901 100.52V109.02C121.901 110.753 121.434 112.013 120.501 112.8C119.568 113.6 118.321 114 116.761 114C116.308 114 115.841 113.96 115.361 113.88C114.894 113.813 114.514 113.72 114.221 113.6C113.568 113.32 113.241 112.933 113.241 112.44C113.241 112.347 113.261 112.24 113.301 112.12C113.381 111.827 113.514 111.6 113.701 111.44C113.901 111.293 114.114 111.22 114.341 111.22C114.474 111.22 114.601 111.24 114.721 111.28C114.814 111.32 114.974 111.387 115.201 111.48C115.441 111.573 115.688 111.647 115.941 111.7C116.208 111.767 116.481 111.8 116.761 111.8C117.708 111.8 118.401 111.593 118.841 111.18C119.294 110.78 119.521 110.087 119.521 109.1V108.9C118.828 109.767 117.748 110.2 116.281 110.2C115.588 110.2 114.974 110.04 114.441 109.72C113.908 109.387 113.494 108.933 113.201 108.36C112.908 107.773 112.761 107.107 112.761 106.36V100.52C112.761 100.173 112.874 99.8867 113.101 99.66C113.328 99.42 113.614 99.3 113.961 99.3C114.308 99.3 114.594 99.42 114.821 99.66C115.048 99.8867 115.161 100.173 115.161 100.52V105.64C115.161 106.48 115.341 107.087 115.701 107.46C116.074 107.82 116.614 108 117.321 108C118.014 108 118.548 107.8 118.921 107.4C119.308 106.987 119.501 106.4 119.501 105.64V100.52C119.501 100.173 119.614 99.8867 119.841 99.66C120.068 99.42 120.354 99.3 120.701 99.3Z" fill="black"/>
<path d="M108.34 99.82L108.259 99.9462L108.26 99.9472L108.34 99.82ZM110.1 101.78L109.966 101.848L109.967 101.85L110.1 101.78ZM110.12 107.52L110.254 107.588L110.254 107.587L110.12 107.52ZM108.36 109.5L108.441 109.627L108.441 109.626L108.36 109.5ZM104.1 109.82L104.035 109.955L104.039 109.957L104.1 109.82ZM102.7 108.86L102.806 108.754L102.55 108.498V108.86H102.7ZM102.36 109.86L102.466 109.966L102.469 109.963L102.36 109.86ZM100.64 109.86L100.534 109.966L100.64 109.86ZM100.64 95.56L100.746 95.6661L100.749 95.663L100.64 95.56ZM102.36 95.56L102.251 95.663L102.254 95.6661L102.36 95.56ZM102.7 100.6H102.55V101.028L102.817 100.694L102.7 100.6ZM104.04 99.56L104.108 99.6936L104.111 99.6923L104.04 99.56ZM107.64 107.04L107.526 106.943L107.64 107.04ZM107.64 102.26L107.525 102.356L107.527 102.359L107.64 102.26ZM103.42 102.26L103.533 102.359L103.534 102.357L103.42 102.26ZM103.42 107.04L103.306 107.137L103.42 107.04ZM105.84 99.25C106.732 99.25 107.537 99.4823 108.259 99.9462L108.421 99.6938C107.649 99.1977 106.788 98.95 105.84 98.95V99.25ZM108.26 99.9472C108.982 100.398 109.551 101.03 109.966 101.848L110.234 101.712C109.796 100.85 109.191 100.175 108.42 99.6928L108.26 99.9472ZM109.967 101.85C110.395 102.666 110.61 103.595 110.61 104.64H110.91C110.91 103.552 110.685 102.574 110.233 101.71L109.967 101.85ZM110.61 104.64C110.61 105.686 110.401 106.623 109.986 107.453L110.254 107.587C110.692 106.711 110.91 105.727 110.91 104.64H110.61ZM109.986 107.452C109.571 108.27 109.002 108.909 108.279 109.374L108.441 109.626C109.212 109.131 109.816 108.45 110.254 107.588L109.986 107.452ZM108.279 109.373C107.571 109.824 106.786 110.05 105.92 110.05V110.35C106.841 110.35 107.682 110.109 108.441 109.627L108.279 109.373ZM105.92 110.05C105.3 110.05 104.714 109.928 104.161 109.683L104.039 109.957C104.632 110.219 105.26 110.35 105.92 110.35V110.05ZM104.164 109.685C103.617 109.424 103.165 109.113 102.806 108.754L102.594 108.966C102.981 109.353 103.463 109.683 104.036 109.955L104.164 109.685ZM102.55 108.86V108.98H102.85V108.86H102.55ZM102.55 108.98C102.55 109.29 102.45 109.546 102.251 109.757L102.469 109.963C102.723 109.694 102.85 109.363 102.85 108.98H102.55ZM102.254 109.754C102.058 109.95 101.81 110.05 101.5 110.05V110.35C101.883 110.35 102.209 110.223 102.466 109.966L102.254 109.754ZM101.5 110.05C101.19 110.05 100.942 109.95 100.746 109.754L100.534 109.966C100.791 110.223 101.117 110.35 101.5 110.35V110.05ZM100.746 109.754C100.551 109.559 100.45 109.306 100.45 108.98H100.15C100.15 109.374 100.276 109.708 100.534 109.966L100.746 109.754ZM100.45 108.98V96.42H100.15V108.98H100.45ZM100.45 96.42C100.45 96.1095 100.55 95.8622 100.746 95.6661L100.534 95.4539C100.277 95.7112 100.15 96.0371 100.15 96.42H100.45ZM100.749 95.663C100.946 95.4546 101.192 95.35 101.5 95.35V95.05C101.114 95.05 100.788 95.1854 100.531 95.457L100.749 95.663ZM101.5 95.35C101.808 95.35 102.054 95.4546 102.251 95.663L102.469 95.457C102.212 95.1854 101.886 95.05 101.5 95.05V95.35ZM102.254 95.6661C102.45 95.8622 102.55 96.1095 102.55 96.42H102.85C102.85 96.0371 102.723 95.7112 102.466 95.4539L102.254 95.6661ZM102.55 96.42V100.6H102.85V96.42H102.55ZM102.817 100.694C103.121 100.314 103.549 99.9796 104.108 99.6935L103.972 99.4265C103.384 99.7271 102.919 100.086 102.583 100.506L102.817 100.694ZM104.111 99.6923C104.663 99.3968 105.239 99.25 105.84 99.25V98.95C105.188 98.95 104.564 99.1099 103.969 99.4277L104.111 99.6923ZM105.54 108.15C106.437 108.15 107.178 107.811 107.754 107.137L107.526 106.943C107.008 107.549 106.35 107.85 105.54 107.85V108.15ZM107.754 107.137C108.327 106.466 108.61 105.63 108.61 104.64H108.31C108.31 105.57 108.046 106.334 107.526 106.943L107.754 107.137ZM108.61 104.64C108.61 103.65 108.327 102.82 107.753 102.161L107.527 102.359C108.046 102.954 108.31 103.71 108.31 104.64H108.61ZM107.755 102.164C107.192 101.488 106.449 101.15 105.54 101.15V101.45C106.364 101.45 107.021 101.752 107.525 102.356L107.755 102.164ZM105.54 101.15C104.631 101.15 103.882 101.488 103.306 102.163L103.534 102.357C104.051 101.752 104.716 101.45 105.54 101.45V101.15ZM103.307 102.161C102.733 102.82 102.45 103.65 102.45 104.64H102.75C102.75 103.71 103.014 102.954 103.533 102.359L103.307 102.161ZM102.45 104.64C102.45 105.63 102.733 106.466 103.306 107.137L103.534 106.943C103.014 106.334 102.75 105.57 102.75 104.64H102.45ZM103.306 107.137C103.882 107.812 104.631 108.15 105.54 108.15V107.85C104.716 107.85 104.051 107.548 103.534 106.943L103.306 107.137ZM121.561 99.66L121.452 99.763L121.455 99.7661L121.561 99.66ZM120.501 112.8L120.404 112.685L120.403 112.686L120.501 112.8ZM115.361 113.88L115.386 113.732L115.382 113.732L115.361 113.88ZM114.221 113.6L114.162 113.738L114.164 113.739L114.221 113.6ZM113.301 112.12L113.443 112.168L113.446 112.159L113.301 112.12ZM113.701 111.44L113.612 111.319L113.603 111.326L113.701 111.44ZM114.721 111.28L114.78 111.142L114.768 111.138L114.721 111.28ZM115.201 111.48L115.144 111.619L115.147 111.62L115.201 111.48ZM115.941 111.7L115.977 111.554L115.972 111.553L115.941 111.7ZM118.841 111.18L118.742 111.067L118.738 111.071L118.841 111.18ZM119.521 108.9H119.671V108.472L119.404 108.806L119.521 108.9ZM114.441 109.72L114.361 109.847L114.364 109.849L114.441 109.72ZM113.201 108.36L113.067 108.427L113.067 108.428L113.201 108.36ZM113.101 99.66L113.207 99.7661L113.21 99.763L113.101 99.66ZM114.821 99.66L114.712 99.763L114.715 99.7661L114.821 99.66ZM115.701 107.46L115.593 107.564L115.597 107.568L115.701 107.46ZM118.921 107.4L118.811 107.298L118.811 107.298L118.921 107.4ZM119.841 99.66L119.947 99.7661L119.95 99.763L119.841 99.66ZM120.701 99.45C121.009 99.45 121.255 99.5546 121.452 99.763L121.67 99.557C121.413 99.2854 121.087 99.15 120.701 99.15V99.45ZM121.455 99.7661C121.651 99.9622 121.751 100.21 121.751 100.52H122.051C122.051 100.137 121.924 99.8112 121.667 99.5539L121.455 99.7661ZM121.751 100.52V109.02H122.051V100.52H121.751ZM121.751 109.02C121.751 110.728 121.291 111.938 120.404 112.685L120.598 112.915C121.577 112.089 122.051 110.778 122.051 109.02H121.751ZM120.403 112.686C119.504 113.457 118.295 113.85 116.761 113.85V114.15C118.347 114.15 119.631 113.743 120.599 112.914L120.403 112.686ZM116.761 113.85C116.316 113.85 115.858 113.811 115.386 113.732L115.336 114.028C115.824 114.109 116.299 114.15 116.761 114.15V113.85ZM115.382 113.732C114.922 113.666 114.556 113.575 114.278 113.461L114.164 113.739C114.473 113.865 114.866 113.961 115.34 114.028L115.382 113.732ZM114.28 113.462C113.653 113.194 113.391 112.848 113.391 112.44H113.091C113.091 113.019 113.482 113.446 114.162 113.738L114.28 113.462ZM113.391 112.44C113.391 112.367 113.407 112.277 113.443 112.167L113.159 112.073C113.115 112.203 113.091 112.326 113.091 112.44H113.391ZM113.446 112.159C113.52 111.888 113.64 111.69 113.799 111.554L113.603 111.326C113.389 111.51 113.242 111.765 113.156 112.081L113.446 112.159ZM113.79 111.561C113.966 111.431 114.149 111.37 114.341 111.37V111.07C114.079 111.07 113.835 111.155 113.612 111.319L113.79 111.561ZM114.341 111.37C114.459 111.37 114.57 111.388 114.674 111.422L114.768 111.138C114.632 111.092 114.49 111.07 114.341 111.07V111.37ZM114.662 111.418C114.756 111.458 114.917 111.525 115.144 111.619L115.258 111.341C115.031 111.248 114.872 111.182 114.78 111.142L114.662 111.418ZM115.147 111.62C115.394 111.716 115.649 111.792 115.91 111.847L115.972 111.553C115.726 111.502 115.488 111.431 115.255 111.34L115.147 111.62ZM115.905 111.846C116.183 111.915 116.469 111.95 116.761 111.95V111.65C116.493 111.65 116.232 111.618 115.977 111.554L115.905 111.846ZM116.761 111.95C117.725 111.95 118.464 111.74 118.944 111.289L118.738 111.071C118.338 111.446 117.69 111.65 116.761 111.65V111.95ZM118.94 111.292C119.441 110.85 119.671 110.103 119.671 109.1H119.371C119.371 110.07 119.147 110.71 118.742 111.068L118.94 111.292ZM119.671 109.1V108.9H119.371V109.1H119.671ZM119.404 108.806C118.748 109.627 117.718 110.05 116.281 110.05V110.35C117.777 110.35 118.908 109.907 119.638 108.994L119.404 108.806ZM116.281 110.05C115.612 110.05 115.026 109.896 114.518 109.591L114.364 109.849C114.923 110.184 115.564 110.35 116.281 110.35V110.05ZM114.52 109.593C114.011 109.274 113.616 108.841 113.334 108.292L113.067 108.428C113.373 109.025 113.805 109.499 114.361 109.847L114.52 109.593ZM113.335 108.293C113.054 107.73 112.911 107.087 112.911 106.36H112.611C112.611 107.127 112.762 107.817 113.067 108.427L113.335 108.293ZM112.911 106.36V100.52H112.611V106.36H112.911ZM112.911 100.52C112.911 100.21 113.011 99.9622 113.207 99.7661L112.995 99.5539C112.738 99.8112 112.611 100.137 112.611 100.52H112.911ZM113.21 99.763C113.407 99.5546 113.653 99.45 113.961 99.45V99.15C113.575 99.15 113.248 99.2854 112.992 99.557L113.21 99.763ZM113.961 99.45C114.269 99.45 114.515 99.5546 114.712 99.763L114.93 99.557C114.673 99.2854 114.347 99.15 113.961 99.15V99.45ZM114.715 99.7661C114.911 99.9622 115.011 100.21 115.011 100.52H115.311C115.311 100.137 115.184 99.8112 114.927 99.5539L114.715 99.7661ZM115.011 100.52V105.64H115.311V100.52H115.011ZM115.011 105.64C115.011 106.496 115.193 107.15 115.593 107.564L115.809 107.356C115.488 107.024 115.311 106.464 115.311 105.64H115.011ZM115.597 107.568C116.007 107.963 116.59 108.15 117.321 108.15V107.85C116.639 107.85 116.142 107.677 115.805 107.352L115.597 107.568ZM117.321 108.15C118.044 108.15 118.622 107.94 119.031 107.502L118.811 107.298C118.473 107.66 117.985 107.85 117.321 107.85V108.15ZM119.03 107.502C119.451 107.053 119.651 106.425 119.651 105.64H119.351C119.351 106.375 119.164 106.92 118.811 107.298L119.03 107.502ZM119.651 105.64V100.52H119.351V105.64H119.651ZM119.651 100.52C119.651 100.21 119.751 99.9622 119.947 99.7661L119.735 99.5539C119.478 99.8112 119.351 100.137 119.351 100.52H119.651ZM119.95 99.763C120.147 99.5546 120.393 99.45 120.701 99.45V99.15C120.315 99.15 119.988 99.2854 119.732 99.557L119.95 99.763Z" fill="black"/>
</svg>
