<svg width="17" height="17" viewBox="0 0 17 17" fill="none" xmlns="http://www.w3.org/2000/svg">
<path d="M4 3.22263V2.125C4 1.82663 4.11853 1.54048 4.3295 1.3295C4.54048 1.11853 4.82663 1 5.125 1H14.875C15.1734 1 15.4595 1.11853 15.6705 1.3295C15.8815 1.54048 16 1.82663 16 2.125V11.875C16 12.1734 15.8815 12.4595 15.6705 12.6705C15.4595 12.8815 15.1734 13 14.875 13H13.7564" fill="#BCCEFD"/>
<path d="M4 3.22263V2.125C4 1.82663 4.11853 1.54048 4.3295 1.3295C4.54048 1.11853 4.82663 1 5.125 1H14.875C15.1734 1 15.4595 1.11853 15.6705 1.3295C15.8815 1.54048 16 1.82663 16 2.125V11.875C16 12.1734 15.8815 12.4595 15.6705 12.6705C15.4595 12.8815 15.1734 13 14.875 13H13.7564" stroke="#BCCEFD"/>
<path d="M3 4.22263V3.125C3 2.82663 3.11853 2.54048 3.3295 2.3295C3.54048 2.11853 3.82663 2 4.125 2H13.875C14.1734 2 14.4595 2.11853 14.6705 2.3295C14.8815 2.54048 15 2.82663 15 3.125V12.875C15 13.1734 14.8815 13.4595 14.6705 13.6705C14.4595 13.8815 14.1734 14 13.875 14H12.7564" fill="white"/>
<path d="M12.3958 4.0415H2.47913C1.89232 4.0415 1.41663 4.5172 1.41663 5.104V15.0207C1.41663 15.6075 1.89232 16.0832 2.47913 16.0832H12.3958C12.9826 16.0832 13.4583 15.6075 13.4583 15.0207V5.104C13.4583 4.5172 12.9826 4.0415 12.3958 4.0415Z" fill="#BCCEFD" stroke="#BCCEFD" stroke-linejoin="round"/>
<path d="M6.53076 8.68467L8.40501 6.73322C8.91926 6.21932 9.76395 6.2303 10.292 6.75872C10.8204 7.28643 10.8318 8.13147 10.3175 8.64572L9.64105 9.36219" stroke="#205CF5" stroke-linecap="round" stroke-linejoin="round"/>
<path d="M4.76914 10.6812C4.58852 10.8618 4.21487 11.223 4.21487 11.223C3.70062 11.7366 3.68645 12.6532 4.21487 13.1816C4.74258 13.7093 5.58762 13.7206 6.10187 13.2064L7.93079 11.546" stroke="#205CF5" stroke-linecap="round" stroke-linejoin="round"/>
<path d="M6.60975 10.5325C6.37462 10.2987 6.2324 9.98746 6.20955 9.65665C6.19591 9.47111 6.22231 9.28479 6.28696 9.11034C6.35161 8.93589 6.453 8.77736 6.58425 8.64551" stroke="#205CF5" stroke-linecap="round" stroke-linejoin="round"/>
<path d="M7.90564 9.65918C8.43335 10.1872 8.44504 11.0323 7.93079 11.5462" stroke="#205CF5" stroke-linecap="round" stroke-linejoin="round"/>
</svg>
