<svg width="16" height="18" viewBox="0 0 16 18" fill="none" xmlns="http://www.w3.org/2000/svg">
<path d="M15.9166 4C15.9166 4.20411 15.8416 4.40111 15.706 4.55364C15.5704 4.70617 15.3835 4.80362 15.1808 4.8275L15.0833 4.83333H14.3791L13.3533 15.2667C13.2974 15.8328 13.033 16.3579 12.6114 16.7399C12.1899 17.1219 11.6413 17.3334 11.0724 17.3333H4.92742C4.35854 17.3334 3.80998 17.1219 3.38842 16.7399C2.96686 16.3579 2.70244 15.8328 2.64659 15.2667L1.62075 4.83333H0.916585C0.695572 4.83333 0.48361 4.74554 0.32733 4.58926C0.171049 4.43298 0.083252 4.22101 0.083252 4C0.083252 3.77899 0.171049 3.56702 0.32733 3.41074C0.48361 3.25446 0.695572 3.16667 0.916585 3.16667H5.08325C5.08325 2.78364 5.15869 2.40437 5.30527 2.05051C5.45185 1.69664 5.66669 1.37511 5.93752 1.10427C6.20836 0.833434 6.52989 0.618594 6.88376 0.472018C7.23763 0.325442 7.6169 0.25 7.99992 0.25C8.38294 0.25 8.76221 0.325442 9.11608 0.472018C9.46994 0.618594 9.79148 0.833434 10.0623 1.10427C10.3332 1.37511 10.548 1.69664 10.6946 2.05051C10.8411 2.40437 10.9166 2.78364 10.9166 3.16667H15.0833C15.3043 3.16667 15.5162 3.25446 15.6725 3.41074C15.8288 3.56702 15.9166 3.77899 15.9166 4ZM9.87492 6.70833C9.72389 6.70834 9.57797 6.76304 9.46414 6.86231C9.35032 6.96158 9.27629 7.09871 9.25575 7.24833L9.24992 7.33333V13.1667L9.25575 13.2517C9.27633 13.4013 9.35038 13.5383 9.4642 13.6376C9.57802 13.7368 9.72392 13.7915 9.87492 13.7915C10.0259 13.7915 10.1718 13.7368 10.2856 13.6376C10.3995 13.5383 10.4735 13.4013 10.4941 13.2517L10.4999 13.1667V7.33333L10.4941 7.24833C10.4735 7.09871 10.3995 6.96158 10.2857 6.86231C10.1719 6.76304 10.0259 6.70834 9.87492 6.70833ZM6.12492 6.70833C5.97389 6.70834 5.82797 6.76304 5.71414 6.86231C5.60032 6.96158 5.52629 7.09871 5.50575 7.24833L5.49992 7.33333V13.1667L5.50575 13.2517C5.52633 13.4013 5.60038 13.5383 5.7142 13.6376C5.82802 13.7368 5.97392 13.7915 6.12492 13.7915C6.27592 13.7915 6.42182 13.7368 6.53564 13.6376C6.64946 13.5383 6.7235 13.4013 6.74409 13.2517L6.74992 13.1667V7.33333L6.74409 7.24833C6.72355 7.09871 6.64952 6.96158 6.53569 6.86231C6.42187 6.76304 6.27595 6.70834 6.12492 6.70833ZM7.99992 1.91667C7.6684 1.91667 7.35046 2.04836 7.11603 2.28278C6.88161 2.5172 6.74992 2.83515 6.74992 3.16667H9.24992C9.24992 2.83515 9.11822 2.5172 8.8838 2.28278C8.64938 2.04836 8.33144 1.91667 7.99992 1.91667Z" fill="#DB2156"/>
</svg>
