<svg width="20" height="20" viewBox="0 0 20 20" fill="none" xmlns="http://www.w3.org/2000/svg">
<circle cx="15" cy="10" r="5" fill="#BCCEFD"/>
<path d="M15.9225 8.7794C15.9225 8.7794 15.9225 8.7794 15.9225 8.7794C16.3291 9.08086 16.5 9.56524 16.5 10C16.5 10.4348 16.3291 10.9191 15.9225 11.2206L15.9225 8.7794ZM15.9225 8.7794L10.4684 4.73592L15.9225 8.7794ZM10.4684 15.2641L15.9225 11.2206L10.4684 4.73592C10.0248 4.40706 9.49614 4.44245 9.10549 4.71575C8.72943 4.97884 8.5 5.44012 8.5 5.95652V14.0435C8.5 14.5599 8.72943 15.0212 9.10549 15.2843C9.49614 15.5575 10.0248 15.5929 10.4684 15.2641Z" fill="#EB5757" stroke="white"/>
<rect y="8" width="12" height="4" rx="2" fill="#EB5757"/>
</svg>
