<svg width="97" height="29" viewBox="0 0 97 29" fill="none" xmlns="http://www.w3.org/2000/svg">
<path d="M35.4823 21H39.2623L33.1223 13.24L38.9223 7H35.3223L29.1223 13.54V7H25.9023V21H29.1223V17.46L31.0023 15.5L35.4823 21Z" fill="#090B14"/>
<path d="M50.542 21H53.942L47.682 7H44.482L38.242 21H41.562L42.802 18H49.302L50.542 21ZM43.842 15.54L46.062 10.18L48.282 15.54H43.842Z" fill="#090B14"/>
<path d="M65.9745 9.6V7H55.3945V21H58.6345V15.9H65.1145V13.3H58.6345V9.6H65.9745Z" fill="#090B14"/>
<path d="M77.748 21H81.528L75.388 13.24L81.188 7H77.588L71.388 13.54V7H68.168V21H71.388V17.46L73.268 15.5L77.748 21Z" fill="#090B14"/>
<path d="M92.8077 21H96.2077L89.9477 7H86.7477L80.5077 21H83.8277L85.0677 18H91.5677L92.8077 21ZM86.1077 15.54L88.3277 10.18L90.5477 15.54H86.1077Z" fill="#090B14"/>
<path fill-rule="evenodd" clip-rule="evenodd" d="M4.33333 2.07143C3.41286 2.07143 2.66667 2.84427 2.66667 3.79762C2.66667 4.75097 3.41286 5.52381 4.33333 5.52381C5.25381 5.52381 6 4.75097 6 3.79762C6 2.84427 5.25381 2.07143 4.33333 2.07143ZM0.666667 3.79762C0.666667 1.70025 2.30829 0 4.33333 0C6.35838 0 8 1.70025 8 3.79762C8 5.89499 6.35838 7.59524 4.33333 7.59524C2.30829 7.59524 0.666667 5.89499 0.666667 3.79762Z" fill="#090B14"/>
<path fill-rule="evenodd" clip-rule="evenodd" d="M4.33333 23.4762C3.41286 23.4762 2.66667 24.249 2.66667 25.2024C2.66667 26.1557 3.41286 26.9286 4.33333 26.9286C5.25381 26.9286 6 26.1557 6 25.2024C6 24.249 5.25381 23.4762 4.33333 23.4762ZM0.666667 25.2024C0.666667 23.105 2.30829 21.4048 4.33333 21.4048C6.35838 21.4048 8 23.105 8 25.2024C8 27.2997 6.35838 29 4.33333 29C2.30829 29 0.666667 27.2997 0.666667 25.2024Z" fill="#090B14"/>
<path fill-rule="evenodd" clip-rule="evenodd" d="M4.33333 12.0833C3.04467 12.0833 2 13.1653 2 14.5C2 15.8347 3.04467 16.9167 4.33333 16.9167C5.622 16.9167 6.66667 15.8347 6.66667 14.5C6.66667 13.1653 5.622 12.0833 4.33333 12.0833ZM0 14.5C0 12.0213 1.9401 10.0119 4.33333 10.0119C6.72657 10.0119 8.66667 12.0213 8.66667 14.5C8.66667 16.9787 6.72657 18.9881 4.33333 18.9881C1.9401 18.9881 0 16.9787 0 14.5Z" fill="#090B14"/>
<path fill-rule="evenodd" clip-rule="evenodd" d="M13.3333 7.25C12.4129 7.25 11.6667 8.02284 11.6667 8.97619C11.6667 9.92954 12.4129 10.7024 13.3333 10.7024C14.2538 10.7024 15 9.92954 15 8.97619C15 8.02284 14.2538 7.25 13.3333 7.25ZM9.66667 8.97619C9.66667 6.87882 11.3083 5.17857 13.3333 5.17857C15.3584 5.17857 17 6.87882 17 8.97619C17 11.0736 15.3584 12.7738 13.3333 12.7738C11.3083 12.7738 9.66667 11.0736 9.66667 8.97619Z" fill="#090B14"/>
<path fill-rule="evenodd" clip-rule="evenodd" d="M13.3333 18.2976C12.4129 18.2976 11.6667 19.0705 11.6667 20.0238C11.6667 20.9772 12.4129 21.75 13.3333 21.75C14.2538 21.75 15 20.9772 15 20.0238C15 19.0705 14.2538 18.2976 13.3333 18.2976ZM9.66667 20.0238C9.66667 17.9264 11.3083 16.2262 13.3333 16.2262C15.3584 16.2262 17 17.9264 17 20.0238C17 22.1212 15.3584 23.8214 13.3333 23.8214C11.3083 23.8214 9.66667 22.1212 9.66667 20.0238Z" fill="#090B14"/>
<path fill-rule="evenodd" clip-rule="evenodd" d="M3.66667 10.3571V6.55952H5V10.3571H3.66667Z" fill="#090B14"/>
<path fill-rule="evenodd" clip-rule="evenodd" d="M7.33336 11.9107L10.5088 10.0119L11.1755 11.2078L8.00003 13.1067L7.33336 11.9107Z" fill="#090B14"/>
<path fill-rule="evenodd" clip-rule="evenodd" d="M8.00003 15.881L11.1755 17.7798L10.5088 18.9757L7.33336 17.0769L8.00003 15.881Z" fill="#090B14"/>
<path fill-rule="evenodd" clip-rule="evenodd" d="M3.66667 22.4405V18.6429H5V22.4405H3.66667Z" fill="#090B14"/>
</svg>
