<svg width="107" height="59" viewBox="0 0 107 59" fill="none" xmlns="http://www.w3.org/2000/svg">
<path d="M20.8108 36.6265H14.9651L11.0835 27.1618C10.99 26.8988 10.8029 26.4223 10.5223 25.7322C10.2729 25.0092 9.97671 24.204 9.63376 23.3167C9.32199 22.3965 8.99463 21.4599 8.65168 20.5069C8.30874 19.5538 7.99696 18.683 7.71637 17.8942C7.71637 21.0975 7.67406 19.2275 7.57607 22.4294C7.57607 24.2537 6.12629 25.7322 4.39558 25.7322H4.21248C2.28923 25.7322 0.769158 24.0135 0.903793 21.9912L1.89296 7.13319C2.03844 4.94791 3.76266 3.25349 5.8409 3.25349H5.99825C7.68557 3.25349 9.20289 4.33634 9.82955 5.98772L16.0874 22.4787C16.3057 23.0702 16.5863 23.9083 16.9292 24.9928C17.3033 26.0444 17.6619 27.1946 18.0048 28.4434C18.3478 27.2275 18.6907 26.0937 19.0337 25.0421C19.4078 23.9576 19.7196 23.1031 19.969 22.4787L26.2553 5.91281C26.8648 4.30667 28.3405 3.25349 29.9816 3.25349C32.1062 3.25349 33.8627 4.99883 33.988 7.23444L35.6355 36.6265H28.3868L28.1062 29.9223C28.075 29.2979 28.0439 28.4763 28.0127 27.4575C28.0127 26.4388 28.0127 25.3707 28.0127 24.2533C28.0127 23.1031 28.0127 21.9693 28.0127 20.8519C28.0439 19.7017 28.0595 18.7158 28.0595 17.8942C27.81 18.5844 27.5294 19.3731 27.2177 20.2604C26.9371 21.1149 26.6409 21.9529 26.3291 22.7745C26.0174 23.5961 25.7212 24.3684 25.4406 25.0914C25.16 25.7815 24.9417 26.3237 24.7859 26.7181L20.8108 36.6265Z" fill="#205CF5"/>
<path d="M41.8086 35.5913C40.5926 34.3095 40.2416 33.0279 40.2416 31.2533V15.7745C40.2416 13.6237 41.8956 11.8802 43.9361 11.8802C45.9765 11.8802 47.6306 13.6237 47.6306 15.7745V29.035C47.6306 29.7908 47.7397 30.3002 47.9579 30.5631C48.1762 30.8261 48.5035 30.9575 48.94 30.9575C49.1894 30.9575 53.578 30.9411 53.8274 30.9082C54.0768 30.8425 53.7183 30.9411 53.7806 30.9082L50.8106 35.6406C50.7794 35.6734 50.6391 35.7556 50.3897 35.887C50.1403 35.9856 49.813 36.1171 49.4076 36.2814C47.4672 35.9363 45.9707 36.38 44.3085 36.6342C42.8374 36.6265 42.3698 36.1828 41.8086 35.5913ZM44.0296 0C45.339 0 46.3367 0.410795 47.0226 1.23238C47.7085 2.05397 48.0514 3.08918 48.0514 4.33799C48.0514 5.61967 47.6929 6.68774 46.9758 7.54219C46.2899 8.39665 45.2455 8.82388 43.8425 8.82388C42.5331 8.82388 41.5198 8.41308 40.8028 7.59149C40.1169 6.73704 39.7739 5.7347 39.7739 4.58447C39.7739 3.26993 40.1324 2.18543 40.8495 1.33098C41.5666 0.443659 42.6266 0 44.0296 0Z" fill="#205CF5"/>
<path d="M52.1741 36.6265V32.2885L61.0596 17.697C60.4673 17.7299 59.9061 17.7628 59.3761 17.7956C58.846 17.7956 58.316 17.7956 57.786 17.7956H55.7683C54.4481 17.7956 53.3197 16.7937 53.0954 15.4223C52.8096 13.6748 54.0861 12.0774 55.7683 12.0774H66.186C68.133 12.0774 69.7113 13.7411 69.7113 15.7933C69.7113 16.4897 69.5256 17.1722 69.1754 17.7627L61.2935 31.0561C61.6988 31.0232 62.0885 31.0068 62.4626 31.0068C62.8679 30.9739 63.2888 30.9575 63.7253 30.9575H79.8744V36.6265H52.1741Z" fill="#205CF5"/>
<path d="M85.2993 15.7745C85.2993 13.6237 86.9533 11.8802 88.9938 11.8802C91.0342 11.8802 92.6882 13.6237 92.6882 15.7745V24.7463C92.6882 26.7181 92.0817 35.3941 97.6469 35.4927C97.8963 36.8072 93.0482 35.2955 93.3912 36.0842C93.7653 37.0373 91.7997 35.4927 93.0624 36.6265L97.6469 40.4222C91.1932 40.4222 88.7599 36.3471 88.4793 35.887C88.2299 35.5255 87.9805 35.0655 87.7311 34.5068C87.4817 33.9152 87.4208 33.981 87.2649 33.2251C86.4543 34.7697 86.0022 35.2903 84.4589 36.0842C83.4048 36.6265 81.5268 36.6265 79.8744 36.6265C78.6585 36.6265 76.5088 36.6265 75.7605 36.6265C74.9187 36.1992 74.4964 35.3284 73.9352 34.6054C73.4052 33.8495 73.0155 32.9458 72.766 31.8941C72.5478 30.8425 72.4387 29.6594 72.4387 28.3448V15.7992C72.4387 13.6348 74.1032 11.8802 76.1565 11.8802C78.2099 11.8802 79.8744 13.6348 79.8744 15.7992V27.3096C79.8744 28.4599 79.9991 29.3965 80.2486 30.1195C80.5292 30.8096 81.028 31.1547 81.7451 31.1547C82.618 31.1547 83.7107 30.7439 84.4589 29.5279C85.2072 28.2791 85.2993 26.373 85.2993 24.204V15.7745Z" fill="#205CF5"/>
<path d="M44.2404 32.2885H53.1259V36.6265H44.2404V32.2885Z" fill="#205CF5"/>
<path d="M6.55249 29.8053C5.93247 29.0617 5.03062 28.6899 3.84694 28.6899C2.57872 28.6899 1.62051 29.0914 0.972305 29.8945C0.324102 30.6678 0 31.6493 0 32.839C0 33.88 0.31001 34.7871 0.93003 35.5604C1.57823 36.304 2.49417 36.6758 3.67785 36.6758C4.94607 36.6758 5.89019 36.2891 6.51021 35.5158C7.15842 34.7425 7.48252 33.7759 7.48252 32.6159C7.48252 31.4857 7.17251 30.5488 6.55249 29.8053Z" fill="#205CF5"/>
<path fill-rule="evenodd" clip-rule="evenodd" d="M90.0708 26.7181C91.3622 26.7181 92.4091 27.8216 92.4091 29.1829C92.4091 32.9832 94.9088 35.4927 97.3663 35.4927C99.8238 35.4927 102.323 32.9832 102.323 29.1829C102.323 27.8216 103.37 26.7181 104.662 26.7181C105.953 26.7181 107 27.8216 107 29.1829C107 35.0747 102.967 40.4222 97.3663 40.4222C91.7654 40.4222 87.7325 35.0747 87.7325 29.1829C87.7325 27.8216 88.7794 26.7181 90.0708 26.7181Z" fill="#205CF5"/>
<rect y="43" width="58" height="16" rx="4" fill="#205CF5"/>
<path d="M8.71 53.35C8.88333 53.35 9.02667 53.41 9.14 53.53C9.26 53.6433 9.32 53.7767 9.32 53.93C9.32 54.0967 9.26 54.2333 9.14 54.34C9.02667 54.4467 8.88333 54.5 8.71 54.5H5.36C5.18667 54.5 5.04 54.4433 4.92 54.33C4.80667 54.21 4.75 54.0633 4.75 53.89V48.11C4.75 47.9367 4.80667 47.7933 4.92 47.68C5.04 47.56 5.18667 47.5 5.36 47.5H8.71C8.88333 47.5 9.02667 47.5567 9.14 47.67C9.26 47.7767 9.32 47.9167 9.32 48.09C9.32 48.2567 9.26333 48.3933 9.15 48.5C9.03667 48.6 8.89 48.65 8.71 48.65H6V50.35H8.26C8.43333 50.35 8.57667 50.4067 8.69 50.52C8.81 50.6267 8.87 50.7667 8.87 50.94C8.87 51.1067 8.81333 51.2433 8.7 51.35C8.58667 51.45 8.44 51.5 8.26 51.5H6V53.35H8.71ZM13.2327 49.05C13.9127 49.05 14.3827 49.2533 14.6427 49.66C14.9027 50.06 15.0327 50.6167 15.0327 51.33V53.89C15.0327 54.0633 14.976 54.21 14.8627 54.33C14.7493 54.4433 14.606 54.5 14.4327 54.5C14.2593 54.5 14.116 54.4433 14.0027 54.33C13.8893 54.21 13.8327 54.0633 13.8327 53.89V51.33C13.8327 50.9633 13.756 50.6767 13.6027 50.47C13.4493 50.2567 13.186 50.15 12.8127 50.15C12.426 50.15 12.1227 50.2633 11.9027 50.49C11.6827 50.71 11.5727 50.99 11.5727 51.33V53.89C11.5727 54.0633 11.516 54.21 11.4027 54.33C11.2893 54.4433 11.146 54.5 10.9727 54.5C10.7993 54.5 10.656 54.4433 10.5427 54.33C10.4293 54.21 10.3727 54.0633 10.3727 53.89V49.76C10.3727 49.5867 10.4293 49.4433 10.5427 49.33C10.656 49.21 10.7993 49.15 10.9727 49.15C11.146 49.15 11.2893 49.21 11.4027 49.33C11.516 49.4433 11.5727 49.5867 11.5727 49.76V49.93C11.7527 49.69 11.986 49.4833 12.2727 49.31C12.566 49.1367 12.886 49.05 13.2327 49.05ZM18.9097 53.37C19.003 53.37 19.0864 53.4167 19.1597 53.51C19.2397 53.5967 19.2797 53.7133 19.2797 53.86C19.2797 54.04 19.1797 54.1933 18.9797 54.32C18.7864 54.44 18.5664 54.5 18.3197 54.5C17.9064 54.5 17.5564 54.4133 17.2697 54.24C16.9897 54.06 16.8497 53.6833 16.8497 53.11V50.35H16.3897C16.2297 50.35 16.0964 50.2967 15.9897 50.19C15.883 50.0833 15.8297 49.95 15.8297 49.79C15.8297 49.6367 15.883 49.51 15.9897 49.41C16.0964 49.3033 16.2297 49.25 16.3897 49.25H16.8497V48.61C16.8497 48.4367 16.9064 48.2933 17.0197 48.18C17.1397 48.06 17.2864 48 17.4597 48C17.6264 48 17.7664 48.06 17.8797 48.18C17.993 48.2933 18.0497 48.4367 18.0497 48.61V49.25H18.7597C18.9197 49.25 19.053 49.3033 19.1597 49.41C19.2664 49.5167 19.3197 49.65 19.3197 49.81C19.3197 49.9633 19.2664 50.0933 19.1597 50.2C19.053 50.3 18.9197 50.35 18.7597 50.35H18.0497V53.06C18.0497 53.2 18.0864 53.3033 18.1597 53.37C18.233 53.43 18.333 53.46 18.4597 53.46C18.513 53.46 18.5864 53.4467 18.6797 53.42C18.7597 53.3867 18.8364 53.37 18.9097 53.37ZM25.1727 51.7C25.166 51.86 25.1027 51.99 24.9827 52.09C24.8627 52.19 24.7227 52.24 24.5627 52.24H21.2627C21.3427 52.6333 21.526 52.9433 21.8127 53.17C22.0993 53.39 22.4227 53.5 22.7827 53.5C23.056 53.5 23.2693 53.4767 23.4227 53.43C23.576 53.3767 23.696 53.3233 23.7827 53.27C23.876 53.21 23.9393 53.17 23.9727 53.15C24.0927 53.09 24.206 53.06 24.3127 53.06C24.4527 53.06 24.5727 53.11 24.6727 53.21C24.7727 53.31 24.8227 53.4267 24.8227 53.56C24.8227 53.74 24.7293 53.9033 24.5427 54.05C24.356 54.2033 24.106 54.3333 23.7927 54.44C23.4793 54.5467 23.1627 54.6 22.8427 54.6C22.2827 54.6 21.7927 54.4833 21.3727 54.25C20.9593 54.0167 20.6393 53.6967 20.4127 53.29C20.186 52.8767 20.0727 52.4133 20.0727 51.9C20.0727 51.3267 20.1927 50.8233 20.4327 50.39C20.6727 49.9567 20.9893 49.6267 21.3827 49.4C21.776 49.1667 22.196 49.05 22.6427 49.05C23.0827 49.05 23.496 49.17 23.8827 49.41C24.276 49.65 24.5893 49.9733 24.8227 50.38C25.056 50.7867 25.1727 51.2267 25.1727 51.7ZM22.6427 50.15C21.8693 50.15 21.4127 50.5133 21.2727 51.24H23.8927V51.17C23.866 50.89 23.7293 50.65 23.4827 50.45C23.236 50.25 22.956 50.15 22.6427 50.15ZM28.9534 49.05C29.1534 49.05 29.3201 49.1067 29.4534 49.22C29.5934 49.3333 29.6634 49.4667 29.6634 49.62C29.6634 49.8267 29.6101 49.9833 29.5034 50.09C29.3968 50.19 29.2701 50.24 29.1234 50.24C29.0234 50.24 28.9101 50.2167 28.7834 50.17C28.7634 50.1633 28.7168 50.15 28.6434 50.13C28.5768 50.11 28.5034 50.1 28.4234 50.1C28.2501 50.1 28.0834 50.1533 27.9234 50.26C27.7634 50.3667 27.6301 50.53 27.5234 50.75C27.4234 50.9633 27.3734 51.22 27.3734 51.52V53.89C27.3734 54.0633 27.3168 54.21 27.2034 54.33C27.0901 54.4433 26.9468 54.5 26.7734 54.5C26.6001 54.5 26.4568 54.4433 26.3434 54.33C26.2301 54.21 26.1734 54.0633 26.1734 53.89V49.76C26.1734 49.5867 26.2301 49.4433 26.3434 49.33C26.4568 49.21 26.6001 49.15 26.7734 49.15C26.9468 49.15 27.0901 49.21 27.2034 49.33C27.3168 49.4433 27.3734 49.5867 27.3734 49.76V49.89C27.5268 49.6167 27.7468 49.41 28.0334 49.27C28.3201 49.1233 28.6268 49.05 28.9534 49.05ZM33.2794 49.05C33.7394 49.05 34.156 49.17 34.5294 49.41C34.9027 49.6433 35.196 49.97 35.4094 50.39C35.6294 50.81 35.7394 51.2867 35.7394 51.82C35.7394 52.3533 35.6327 52.8333 35.4194 53.26C35.206 53.68 34.9127 54.01 34.5394 54.25C34.1727 54.4833 33.766 54.6 33.3194 54.6C32.9994 54.6 32.696 54.5367 32.4094 54.41C32.1294 54.2767 31.896 54.1167 31.7094 53.93V55.89C31.7094 56.0633 31.6527 56.2067 31.5394 56.32C31.426 56.44 31.2827 56.5 31.1094 56.5C30.936 56.5 30.7927 56.4433 30.6794 56.33C30.566 56.2167 30.5094 56.07 30.5094 55.89V49.76C30.5094 49.5867 30.566 49.4433 30.6794 49.33C30.7927 49.21 30.936 49.15 31.1094 49.15C31.2827 49.15 31.426 49.21 31.5394 49.33C31.6527 49.4433 31.7094 49.5867 31.7094 49.76V49.8C31.8694 49.6 32.0927 49.4267 32.3794 49.28C32.666 49.1267 32.966 49.05 33.2794 49.05ZM33.1294 53.5C33.556 53.5 33.906 53.34 34.1794 53.02C34.4527 52.7 34.5894 52.3 34.5894 51.82C34.5894 51.34 34.4527 50.9433 34.1794 50.63C33.9127 50.31 33.5627 50.15 33.1294 50.15C32.696 50.15 32.3427 50.31 32.0694 50.63C31.796 50.9433 31.6594 51.34 31.6594 51.82C31.6594 52.3 31.796 52.7 32.0694 53.02C32.3427 53.34 32.696 53.5 33.1294 53.5ZM39.5198 49.05C39.7198 49.05 39.8865 49.1067 40.0198 49.22C40.1598 49.3333 40.2298 49.4667 40.2298 49.62C40.2298 49.8267 40.1765 49.9833 40.0698 50.09C39.9632 50.19 39.8365 50.24 39.6898 50.24C39.5898 50.24 39.4765 50.2167 39.3498 50.17C39.3298 50.1633 39.2832 50.15 39.2098 50.13C39.1432 50.11 39.0698 50.1 38.9898 50.1C38.8165 50.1 38.6498 50.1533 38.4898 50.26C38.3298 50.3667 38.1965 50.53 38.0898 50.75C37.9898 50.9633 37.9398 51.22 37.9398 51.52V53.89C37.9398 54.0633 37.8832 54.21 37.7698 54.33C37.6565 54.4433 37.5132 54.5 37.3398 54.5C37.1665 54.5 37.0232 54.4433 36.9098 54.33C36.7965 54.21 36.7398 54.0633 36.7398 53.89V49.76C36.7398 49.5867 36.7965 49.4433 36.9098 49.33C37.0232 49.21 37.1665 49.15 37.3398 49.15C37.5132 49.15 37.6565 49.21 37.7698 49.33C37.8832 49.4433 37.9398 49.5867 37.9398 49.76V49.89C38.0932 49.6167 38.3132 49.41 38.5998 49.27C38.8865 49.1233 39.1932 49.05 39.5198 49.05ZM42.2058 53.89C42.2058 54.0633 42.1491 54.21 42.0358 54.33C41.9224 54.4433 41.7791 54.5 41.6058 54.5C41.4324 54.5 41.2891 54.4433 41.1758 54.33C41.0624 54.21 41.0058 54.0633 41.0058 53.89V49.76C41.0058 49.5867 41.0624 49.4433 41.1758 49.33C41.2891 49.21 41.4324 49.15 41.6058 49.15C41.7791 49.15 41.9224 49.21 42.0358 49.33C42.1491 49.4433 42.2058 49.5867 42.2058 49.76V53.89ZM41.5958 48.5C41.3691 48.5 41.2091 48.4633 41.1158 48.39C41.0224 48.3167 40.9758 48.1867 40.9758 48V47.81C40.9758 47.6233 41.0258 47.4933 41.1258 47.42C41.2258 47.3467 41.3858 47.31 41.6058 47.31C41.8391 47.31 42.0024 47.3467 42.0958 47.42C42.1891 47.4933 42.2358 47.6233 42.2358 47.81V48C42.2358 48.1933 42.1858 48.3267 42.0858 48.4C41.9924 48.4667 41.8291 48.5 41.5958 48.5ZM43.1291 53.67C43.0691 53.59 43.0391 53.49 43.0391 53.37C43.0391 53.1967 43.1257 53.05 43.2991 52.93C43.3924 52.87 43.4891 52.84 43.5891 52.84C43.7291 52.84 43.8624 52.9033 43.9891 53.03C44.1891 53.2367 44.3957 53.39 44.6091 53.49C44.8291 53.59 45.0924 53.64 45.3991 53.64C45.9191 53.62 46.1791 53.4233 46.1791 53.05C46.1791 52.8567 46.0891 52.71 45.9091 52.61C45.7357 52.51 45.4624 52.41 45.0891 52.31C44.7024 52.2033 44.3857 52.0967 44.1391 51.99C43.8991 51.8833 43.6891 51.7233 43.5091 51.51C43.3357 51.29 43.2491 50.9967 43.2491 50.63C43.2491 50.31 43.3391 50.0333 43.5191 49.8C43.7057 49.56 43.9457 49.3767 44.2391 49.25C44.5391 49.1167 44.8557 49.05 45.1891 49.05C45.5291 49.05 45.8691 49.1133 46.2091 49.24C46.5491 49.3667 46.8157 49.5533 47.0091 49.8C47.0957 49.9067 47.1391 50.0267 47.1391 50.16C47.1391 50.3133 47.0757 50.44 46.9491 50.54C46.8557 50.6133 46.7491 50.65 46.6291 50.65C46.4824 50.65 46.3624 50.6033 46.2691 50.51C46.1491 50.3633 45.9924 50.2467 45.7991 50.16C45.6124 50.0733 45.3991 50.03 45.1591 50.03C44.6524 50.03 44.3991 50.2133 44.3991 50.58C44.3991 50.7267 44.4457 50.8467 44.5391 50.94C44.6324 51.0267 44.7491 51.0967 44.8891 51.15C45.0357 51.1967 45.2391 51.2567 45.4991 51.33C45.8591 51.43 46.1591 51.5333 46.3991 51.64C46.6391 51.7467 46.8424 51.91 47.0091 52.13C47.1757 52.35 47.2591 52.64 47.2591 53C47.2591 53.3267 47.1624 53.6133 46.9691 53.86C46.7757 54.1 46.5257 54.2833 46.2191 54.41C45.9191 54.5367 45.6091 54.6 45.2891 54.6C44.8491 54.6 44.4391 54.5267 44.0591 54.38C43.6791 54.2333 43.3691 53.9967 43.1291 53.67ZM53.0633 51.7C53.0566 51.86 52.9933 51.99 52.8733 52.09C52.7533 52.19 52.6133 52.24 52.4533 52.24H49.1533C49.2333 52.6333 49.4166 52.9433 49.7033 53.17C49.9899 53.39 50.3133 53.5 50.6733 53.5C50.9466 53.5 51.1599 53.4767 51.3133 53.43C51.4666 53.3767 51.5866 53.3233 51.6733 53.27C51.7666 53.21 51.8299 53.17 51.8633 53.15C51.9833 53.09 52.0966 53.06 52.2033 53.06C52.3433 53.06 52.4633 53.11 52.5633 53.21C52.6633 53.31 52.7133 53.4267 52.7133 53.56C52.7133 53.74 52.6199 53.9033 52.4333 54.05C52.2466 54.2033 51.9966 54.3333 51.6833 54.44C51.3699 54.5467 51.0533 54.6 50.7333 54.6C50.1733 54.6 49.6833 54.4833 49.2633 54.25C48.8499 54.0167 48.5299 53.6967 48.3033 53.29C48.0766 52.8767 47.9633 52.4133 47.9633 51.9C47.9633 51.3267 48.0833 50.8233 48.3233 50.39C48.5633 49.9567 48.8799 49.6267 49.2733 49.4C49.6666 49.1667 50.0866 49.05 50.5333 49.05C50.9733 49.05 51.3866 49.17 51.7733 49.41C52.1666 49.65 52.4799 49.9733 52.7133 50.38C52.9466 50.7867 53.0633 51.2267 53.0633 51.7ZM50.5333 50.15C49.7599 50.15 49.3033 50.5133 49.1633 51.24H51.7833V51.17C51.7566 50.89 51.6199 50.65 51.3733 50.45C51.1266 50.25 50.8466 50.15 50.5333 50.15Z" fill="white"/>
</svg>
