<svg xmlns="http://www.w3.org/2000/svg" width="260" height="146" fill="none"><path d="M50.568 89.124H36.364l-9.432-23.03c-.227-.64-.682-1.8-1.363-3.48a172.815 172.815 0 0 0-2.16-5.877 387.497 387.497 0 0 0-2.386-6.837c-.833-2.319-1.59-4.438-2.273-6.357 0 7.794-.102 3.244-.34 11.035 0 4.44-3.524 8.037-7.729 8.037h-.445c-4.673 0-8.367-4.182-8.04-9.103L4.6 17.357c.353-5.317 4.543-9.44 9.593-9.44h.382c4.1 0 7.787 2.635 9.31 6.653l15.206 40.128c.53 1.44 1.212 3.479 2.046 6.118.909 2.559 1.78 5.358 2.613 8.396a215.155 215.155 0 0 1 2.5-8.276c.91-2.64 1.667-4.718 2.273-6.238l15.275-40.31c1.481-3.908 5.067-6.471 9.055-6.471 5.162 0 9.43 4.247 9.735 9.687l4.003 71.52H68.978l-.682-16.313c-.076-1.52-.152-3.519-.228-5.998V50.74c.076-2.8.114-5.198.114-7.197a692.796 692.796 0 0 0-2.045 5.757 143.058 143.058 0 0 1-2.16 6.118c-.757 1.999-1.477 3.878-2.159 5.638a466.584 466.584 0 0 0-1.59 3.958l-9.66 24.11ZM101.591 86.605c-2.955-3.119-3.808-6.237-3.808-10.555V38.385c0-5.234 4.02-9.477 8.978-9.477s8.977 4.243 8.977 9.477v32.267c0 1.839.265 3.079.795 3.718.531.64 1.326.96 2.387.96.606 0 11.27-.04 11.876-.12.606-.16-.266.08-.114 0l-7.217 11.515c-.076.08-.416.28-1.023.6-.606.24-1.401.56-2.386.96-4.715-.84-8.351.24-12.39.858-3.575-.019-4.711-1.098-6.075-2.538ZM106.988 0c3.182 0 5.606 1 7.273 2.999 1.666 1.999 2.5 4.518 2.5 7.557 0 3.119-.872 5.717-2.614 7.797-1.667 2.079-4.205 3.118-7.614 3.118-3.181 0-5.644-1-7.386-2.998-1.667-2.08-2.5-4.519-2.5-7.317 0-3.2.871-5.838 2.614-7.917C101.003 1.079 103.579 0 106.988 0Z" fill="#205CF5"/><path d="M126.778 89.124V78.57l21.591-35.506c-1.439.08-2.803.16-4.091.24h-8.766c-3.208 0-5.95-2.438-6.495-5.775-.695-4.253 2.407-8.14 6.495-8.14h25.314c4.731 0 8.566 4.049 8.566 9.042a9.415 9.415 0 0 1-1.302 4.793L148.938 75.57c.984-.08 1.931-.12 2.84-.12a37.93 37.93 0 0 1 3.069-.12h39.241v13.794h-67.31Z" fill="#205CF5"/><path d="M207.269 38.385c0-5.234 4.02-9.477 8.978-9.477s8.977 4.243 8.977 9.477v21.83c0 4.799-1.474 25.91 12.049 26.15.606 3.2-11.174-.48-10.341 1.44.909 2.319-3.867-1.44-.799 1.32l11.14 9.236c-15.682 0-21.595-9.916-22.276-11.036-.606-.88-1.213-2-1.819-3.359-.606-1.439-.754-1.28-1.132-3.118-1.97 3.758-3.069 5.025-6.819 6.957-2.561 1.32-7.124 1.32-11.139 1.32h-9.997c-2.045-1.04-3.072-3.16-4.435-4.919-1.288-1.839-2.235-4.038-2.841-6.597-.531-2.559-.796-5.438-.796-8.637V38.445c0-5.267 4.045-9.537 9.034-9.537 4.99 0 9.035 4.27 9.035 9.537v28.008c0 2.8.303 5.078.909 6.838.681 1.679 1.894 2.519 3.636 2.519 2.121 0 4.776-1 6.594-3.959 1.819-3.038 2.042-7.677 2.042-12.955V38.385ZM107.5 78.569h21.591v10.555H107.5V78.57ZM15.922 72.526c-1.506-1.81-3.698-2.714-6.574-2.714-3.082 0-5.41.977-6.985 2.931C.788 74.625 0 77.013 0 79.908c0 2.533.754 4.74 2.26 6.622 1.575 1.81 3.8 2.714 6.677 2.714 3.082 0 5.376-.94 6.882-2.822 1.575-1.882 2.363-4.234 2.363-7.057 0-2.75-.753-5.03-2.26-6.839Z" fill="#205CF5"/><path fill-rule="evenodd" clip-rule="evenodd" d="M218.864 65.014c3.138 0 5.682 2.685 5.682 5.998 0 9.247 6.073 15.353 12.045 15.353 5.971 0 12.045-6.106 12.045-15.353 0-3.313 2.544-5.998 5.682-5.998 3.138 0 5.682 2.685 5.682 5.998 0 14.336-9.8 27.349-23.409 27.349-13.609 0-23.409-13.013-23.409-27.35 0-3.312 2.544-5.997 5.682-5.997Z" fill="#205CF5"/><path d="M45.292 121.295a.412.412 0 0 1 .155.576.422.422 0 0 1-.159.152l-1.898 1.063-.014-.009-2.95 1.689a.854.854 0 0 1-.849 0l-3.815-2.179a3.38 3.38 0 0 1-1.24-1.225 3.32 3.32 0 0 1-.453-1.674V107.13a3.327 3.327 0 0 1 1.721-2.911l.191-.107a.426.426 0 0 1 .633.364v15.485a.42.42 0 0 0 .211.364l2.12 1.221a.422.422 0 0 0 .423 0l.027-.015a.419.419 0 0 0 .156-.572.427.427 0 0 0-.156-.154l-1.725-.984a.417.417 0 0 1-.211-.364v-15.714a.826.826 0 0 1 .43-.728l1.48-.829a.429.429 0 0 1 .579.158.4.4 0 0 1 .054.205v15.485a.418.418 0 0 0 .212.364z" style="fill:#b1c0e1"/><path d="M44.037 116.722a.416.416 0 0 1 .002-.73l4.227-2.452a.424.424 0 0 0 .209-.364V98.425a.843.843 0 0 0-.248-.593.846.846 0 0 0-.6-.246.842.842 0 0 0-.427.115l-3.811 2.202-2.112 1.184a.841.841 0 0 0-.43.728v15.767a.418.418 0 0 0 .211.365l5.289 3.032a.863.863 0 0 0 .86-.007l1.494-.888a.414.414 0 0 0 .147-.572.416.416 0 0 0-.154-.152zm-.442-14.005 1.696-1.008a.43.43 0 0 1 .427-.005.415.415 0 0 1 .214.365v9.676a.42.42 0 0 1-.214.364l-1.696.955a.423.423 0 0 1-.634-.364v-9.622a.428.428 0 0 1 .207-.361z" style="fill:#b1c0e1"/><path d="M49.323 98.919v14.721a.422.422 0 0 1-.212.365l-3.393 1.943a.417.417 0 0 0 0 .724l4.664 2.667a.426.426 0 0 1 .211.363.426.426 0 0 1-.211.362l-8.899 5.093a.412.412 0 0 0-.215.364.414.414 0 0 0 .215.364l5.303 2.999a3.415 3.415 0 0 0 1.685.443c.591 0 1.172-.152 1.685-.443l11.448-6.49c.388-.22.71-.537.934-.92.225-.383.343-.817.343-1.259v-13.068a3.32 3.32 0 0 0-.454-1.674 3.368 3.368 0 0 0-1.24-1.226l-10.593-6.053a.852.852 0 0 0-1.158.306.833.833 0 0 0-.113.419zm10.38 18.031-7.416-4.251a.84.84 0 0 1-.422-.724v-5.573a.415.415 0 0 1 .212-.364.424.424 0 0 1 .424-.001l6.15 3.522c.513.295.94.717 1.236 1.226a3.32 3.32 0 0 1 .452 1.671v4.129a.405.405 0 0 1-.123.297.42.42 0 0 1-.299.123.423.423 0 0 1-.214-.057z" style="fill:#b1c0e1"/><path d="m45.289 122.031-1.899 1.065-.014-.008-2.95 1.695a.853.853 0 0 1-.85 0l-3.815-2.186a3.367 3.367 0 0 1-1.229-1.22l2.133-1.22a.425.425 0 0 0 .159.164l2.12 1.226a.433.433 0 0 0 .423 0l.027-.016a.42.42 0 0 0 .214-.364.419.419 0 0 0-.214-.364l-1.724-.988a.415.415 0 0 1-.152-.151l2.53-1.446a.42.42 0 0 0 .164.17l5.08 2.912a.42.42 0 0 1 .214.364.419.419 0 0 1-.214.364z" style="fill:#b1c0e1"/><path d="M62.551 121.433a2.51 2.51 0 0 1-.947.944l-11.445 6.503a3.42 3.42 0 0 1-3.369 0l-5.303-3.006a.427.427 0 0 1-.213-.365.422.422 0 0 1 .213-.364l6.991-4.011 1.908-1.093a.42.42 0 0 0 .214-.364.42.42 0 0 0-.214-.364l-1.908-1.093-2.757-1.579a.423.423 0 0 1-.157-.575.43.43 0 0 1 .157-.154l2.757-1.584.637-.365a.408.408 0 0 0 .143-.137z" style="fill:#b1c0e1"/><path d="m48.701 120.034-.227.134-1.267.754a.856.856 0 0 1-.86.007l-5.285-3.031a.416.416 0 0 1-.154-.153l1.163-.668 1.919-1.098a.342.342 0 0 0-.04.036.257.257 0 0 0-.04.047.271.271 0 0 0-.044.075.332.332 0 0 0-.02.054c-.002.005-.004.01-.004.015-.003.013-.006.025-.007.038a.414.414 0 0 0 .207.425l4.438 2.513.218.121a.42.42 0 0 1 .199.253.41.41 0 0 1-.041.318.425.425 0 0 1-.155.16zM73.728 105.767v15.648c0 .055-.011.11-.032.161a.42.42 0 0 1-.391.258h-5.14a2.799 2.799 0 0 1-1.963-.798 2.752 2.752 0 0 1-.59-.866 2.655 2.655 0 0 1-.216-1.08v-13.323a.42.42 0 0 1 .423-.419h1.923a.425.425 0 0 1 .391.259.42.42 0 0 1 .032.16v12.904a.42.42 0 0 0 .423.419h1.925a.433.433 0 0 0 .299-.123.42.42 0 0 0 .124-.296v-12.904a.417.417 0 0 1 .422-.419h1.947a.433.433 0 0 1 .299.123.42.42 0 0 1 .124.296zM83.421 108.087v4.116c.004.371-.07.738-.216 1.08a2.804 2.804 0 0 1-2.576 1.687h-2.348a.433.433 0 0 0-.299.123.417.417 0 0 0-.123.296v6.022a.415.415 0 0 1-.261.387.433.433 0 0 1-.162.032h-1.924a.433.433 0 0 1-.299-.123.415.415 0 0 1-.124-.296v-15.648a.415.415 0 0 1 .261-.387.433.433 0 0 1 .162-.032h5.117a2.75 2.75 0 0 1 1.078.214c.333.137.638.336.897.584a2.69 2.69 0 0 1 .817 1.945zm-2.792 3.698v-3.279a.41.41 0 0 0-.124-.296.425.425 0 0 0-.299-.123h-1.925a.433.433 0 0 0-.299.123.423.423 0 0 0-.123.296v3.279a.417.417 0 0 0 .422.419h1.925a.423.423 0 0 0 .423-.417zM92.91 108.088v10.998a2.686 2.686 0 0 1-.816 1.945c-.26.249-.564.447-.898.585a2.783 2.783 0 0 1-1.078.214h-2.77c-.364 0-.725-.071-1.062-.208a2.764 2.764 0 0 1-1.5-1.486 2.704 2.704 0 0 1-.207-1.05v-1.652a.42.42 0 0 1 .423-.419h1.923a.425.425 0 0 1 .391.259.42.42 0 0 1 .032.16v1.232a.42.42 0 0 0 .423.419h1.925a.433.433 0 0 0 .299-.123.417.417 0 0 0 .123-.296v-3.279a.417.417 0 0 0-.422-.419h-2.348a2.769 2.769 0 0 1-1.964-.81 2.918 2.918 0 0 1-.59-.877 2.674 2.674 0 0 1-.215-1.08v-4.116a2.704 2.704 0 0 1 .807-1.94 2.783 2.783 0 0 1 1.962-.803h2.77c.371-.002.737.071 1.078.214.334.137.638.336.898.584a2.7 2.7 0 0 1 .816 1.948zm-2.792 3.697v-3.279a.417.417 0 0 0-.422-.419h-1.925a.425.425 0 0 0-.391.259.42.42 0 0 0-.032.16v3.279a.415.415 0 0 0 .261.387.425.425 0 0 0 .162.032h1.925a.424.424 0 0 0 .298-.122.415.415 0 0 0 .124-.295z" style="fill:#b1c0e1"/><path d="M2.375 119.861v-15.332h2.88v5.522c.888-1.032 1.94-1.548 3.156-1.548 1.326 0 2.422.492 3.29 1.475.868.976 1.302 2.381 1.302 4.215 0 1.896-.445 3.357-1.333 4.381-.881 1.025-1.954 1.538-3.218 1.538a3.983 3.983 0 0 1-1.845-.471c-.601-.321-1.12-.791-1.557-1.412v1.632zm2.859-5.794c0 1.15.178 2.001.533 2.552.499.781 1.162 1.171 1.988 1.171.636 0 1.175-.275 1.62-.826.45-.558.676-1.433.676-2.625 0-1.269-.226-2.182-.676-2.74-.451-.565-1.029-.847-1.732-.847-.691 0-1.264.275-1.722.826-.458.544-.687 1.373-.687 2.489zM13.966 108.754h3.064l2.603 7.886 2.542-7.886h2.982l-3.843 10.688-.687 1.935c-.252.649-.495 1.144-.727 1.485a3.016 3.016 0 0 1-.789.826c-.294.217-.66.384-1.097.502-.43.119-.919.178-1.465.178a7.455 7.455 0 0 1-1.63-.178l-.256-2.3c.451.09.857.136 1.219.136.67 0 1.165-.203 1.486-.607.322-.397.567-.906.738-1.527z" style="fill:#b1c0e0"/></svg>
