<svg width="260" height="98" viewBox="0 0 260 98" fill="none" xmlns="http://www.w3.org/2000/svg">
<path d="M50.5682 88.7976H36.3637L26.9319 65.8512C26.7046 65.2138 26.25 64.0585 25.5682 62.3854C24.9622 60.6325 24.2425 58.6805 23.4091 56.5293C22.6516 54.2984 21.8561 52.0276 21.0228 49.7171C20.1894 47.4065 19.4319 45.2951 18.75 43.3829C18.75 51.1491 18.6472 46.6153 18.4091 54.378C18.4091 58.801 14.8863 62.3854 10.6808 62.3854H10.2359C5.5626 62.3854 1.86898 58.2186 2.19613 53.3157L4.59971 17.2938C4.95322 11.9958 9.14291 7.8878 14.1928 7.8878H14.5752C18.6752 7.8878 22.3622 10.5131 23.8849 14.5167L39.0909 54.4976C39.6212 55.9317 40.3031 57.9634 41.1364 60.5927C42.0455 63.1423 42.9167 65.9309 43.75 68.9585C44.5833 66.0106 45.4167 63.2618 46.25 60.7122C47.1591 58.0829 47.9167 56.0114 48.5227 54.4976L63.7979 14.3351C65.2789 10.4411 68.8648 7.8878 72.8525 7.8878C78.015 7.8878 82.2832 12.1192 82.5877 17.5393L86.5909 88.7976H68.9773L68.2954 72.5439C68.2197 71.0301 68.1439 69.0382 68.0682 66.5683C68.0682 64.0984 68.0682 61.5089 68.0682 58.8C68.0682 56.0114 68.0682 53.2626 68.0682 50.5537C68.1439 47.765 68.1818 45.3748 68.1818 43.3829C67.5757 45.0561 66.8939 46.9683 66.1364 49.1195C65.4545 51.1911 64.7348 53.2228 63.9773 55.2146C63.2197 57.2065 62.5 59.0789 61.8182 60.8317C61.1364 62.5049 60.6061 63.8195 60.2273 64.7756L50.5682 88.7976Z" fill="#205CF5"/>
<path d="M101.591 86.2878C98.636 83.1802 97.7832 80.0732 97.7832 75.7707V38.2439C97.7832 33.0295 101.802 28.8024 106.76 28.8024C111.718 28.8024 115.738 33.0295 115.738 38.2439V70.3927C115.738 72.2252 116.003 73.4602 116.533 74.0976C117.063 74.735 117.859 75.0537 118.92 75.0537C119.526 75.0537 130.189 75.0138 130.795 74.9341C131.401 74.7748 130.53 75.0138 130.682 74.9341L123.465 86.4073C123.389 86.487 123.048 86.6862 122.442 87.0049C121.836 87.2439 121.041 87.5626 120.056 87.961C115.341 87.1244 111.705 88.2 107.665 88.8162C104.091 88.7976 102.955 87.7219 101.591 86.2878ZM106.988 0C110.17 0 112.594 0.995934 114.26 2.9878C115.927 4.97967 116.76 7.48943 116.76 10.5171C116.76 13.6244 115.889 16.2138 114.147 18.2854C112.48 20.3569 109.942 21.3927 106.533 21.3927C103.351 21.3927 100.889 20.3967 99.1468 18.4049C97.4801 16.3333 96.6468 13.9033 96.6468 11.1146C96.6468 7.92764 97.518 5.29837 99.2604 3.22683C101.003 1.07561 103.579 0 106.988 0Z" fill="#205CF5"/>
<path d="M126.778 88.7976V78.2805L148.369 42.9049C146.93 42.9846 145.566 43.0642 144.278 43.1439C142.99 43.1439 141.702 43.1439 140.415 43.1439H135.512C132.304 43.1439 129.562 40.7147 129.017 37.3899C128.322 33.1534 131.424 29.2805 135.512 29.2805H160.826C165.557 29.2805 169.392 33.3139 169.392 38.2894C169.392 39.9779 168.941 41.6324 168.09 43.0642L148.937 75.2927C149.922 75.213 150.869 75.1732 151.778 75.1732C152.763 75.0935 153.786 75.0537 154.846 75.0537H194.087V88.7976H126.778Z" fill="#205CF5"/>
<path d="M207.269 38.2439C207.269 33.0295 211.288 28.8024 216.246 28.8024C221.204 28.8024 225.224 33.0295 225.224 38.2439V59.9951C225.224 64.7756 223.75 85.8097 237.273 86.0488C237.879 89.2358 226.098 85.5707 226.932 87.4829C227.841 89.7935 223.065 86.0488 226.133 88.7976L237.273 98C221.591 98 215.678 88.1203 214.996 87.0049C214.39 86.1285 213.784 85.013 213.178 83.6585C212.572 82.2244 212.424 82.3837 212.045 80.5512C210.076 84.2959 208.977 85.5582 205.227 87.4829C202.666 88.7976 198.102 88.7976 194.087 88.7976C191.133 88.7976 185.909 88.7976 184.091 88.7976C182.045 87.7618 181.019 85.6504 179.655 83.8976C178.368 82.065 177.421 79.874 176.815 77.3244C176.284 74.7748 176.019 71.9065 176.019 68.7195V38.3037C176.019 33.0563 180.064 28.8024 185.053 28.8024C190.043 28.8024 194.087 33.0563 194.087 38.3037V66.2098C194.087 68.9984 194.39 71.2691 194.996 73.0219C195.678 74.6951 196.89 75.5317 198.633 75.5317C200.754 75.5317 203.409 74.5358 205.227 71.5878C207.045 68.5602 207.269 63.939 207.269 58.6805V38.2439Z" fill="#205CF5"/>
<path d="M107.5 78.2805H129.091V88.7976H107.5V78.2805Z" fill="#205CF5"/>
<path d="M15.9219 72.2601C14.4153 70.4574 12.2239 69.5561 9.34771 69.5561C6.26605 69.5561 3.93768 70.5296 2.36261 72.4765C0.787536 74.3513 0 76.7308 0 79.6152C0 82.1389 0.753295 84.3382 2.25989 86.213C3.83496 88.0157 6.0606 88.9171 8.93682 88.9171C12.0185 88.9171 14.3126 87.9797 15.8192 86.1049C17.3943 84.23 18.1818 81.8866 18.1818 79.0743C18.1818 76.3342 17.4285 74.0628 15.9219 72.2601Z" fill="#205CF5"/>
<path fill-rule="evenodd" clip-rule="evenodd" d="M218.863 64.7756C222.001 64.7756 224.545 67.451 224.545 70.7512C224.545 79.9648 230.619 86.0488 236.591 86.0488C242.562 86.0488 248.636 79.9648 248.636 70.7512C248.636 67.451 251.18 64.7756 254.318 64.7756C257.456 64.7756 260 67.451 260 70.7512C260 85.0354 250.2 98 236.591 98C222.981 98 213.182 85.0354 213.182 70.7512C213.182 67.451 215.725 64.7756 218.863 64.7756Z" fill="#205CF5"/>
</svg>
