<svg width="76" height="27" viewBox="0 0 76 27" fill="none" xmlns="http://www.w3.org/2000/svg">
<path d="M14.7815 24.4646H10.6294L7.8724 18.1427C7.80596 17.9671 7.67309 17.6488 7.47379 17.1878C7.29664 16.7049 7.08626 16.1671 6.84267 15.5744C6.62123 14.9598 6.38871 14.3341 6.14512 13.6976C5.90153 13.061 5.68009 12.4793 5.48079 11.9524C5.48079 14.0921 5.45073 12.843 5.38113 14.9817C5.38113 16.2003 4.35138 17.1878 3.12209 17.1878H2.99204C1.62599 17.1878 0.546318 16.0398 0.641946 14.689L1.34453 4.76461C1.44787 3.30495 2.67255 2.17317 4.14867 2.17317H4.26044C5.45891 2.17317 6.53663 2.89646 6.98173 3.99949L11.4266 15.0146C11.5816 15.4098 11.7809 15.9695 12.0245 16.6939C12.2902 17.3963 12.5449 18.1646 12.7885 18.9988C13.0321 18.1866 13.2757 17.4293 13.5192 16.7268C13.785 16.0024 14.0064 15.4317 14.1836 15.0146L18.6486 3.94946C19.0815 2.87664 20.1297 2.17317 21.2954 2.17317C22.8044 2.17317 24.052 3.33897 24.141 4.83224L25.3112 24.4646H20.1626L19.9633 19.9866C19.9412 19.5695 19.919 19.0207 19.8969 18.3402C19.8969 17.6598 19.8969 16.9463 19.8969 16.2C19.8969 15.4317 19.8969 14.6744 19.8969 13.928C19.919 13.1598 19.9301 12.5012 19.9301 11.9524C19.7529 12.4134 19.5536 12.9402 19.3322 13.5329C19.1329 14.1037 18.9225 14.6634 18.7011 15.2122C18.4796 15.761 18.2692 16.2768 18.0699 16.7598C17.8706 17.2207 17.7156 17.5829 17.6049 17.8463L14.7815 24.4646Z" fill="#205CF5"/>
<path d="M29.6958 23.7732C28.8321 22.917 28.5828 22.061 28.5828 20.8756V10.5366C28.5828 9.09997 29.7577 7.93537 31.2069 7.93537C32.6562 7.93537 33.831 9.09997 33.831 10.5366V19.3939C33.831 19.8988 33.9086 20.239 34.0636 20.4146C34.2186 20.5902 34.4511 20.678 34.7611 20.678C34.9383 20.678 38.0554 20.6671 38.2325 20.6451C38.4097 20.6012 38.155 20.6671 38.1993 20.6451L36.0898 23.8061C36.0676 23.828 35.968 23.8829 35.7908 23.9707C35.6137 24.0366 35.3812 24.1244 35.0933 24.2341C33.715 24.0037 32.6521 24.3 31.4714 24.4698C30.4266 24.4646 30.0944 24.1683 29.6958 23.7732ZM31.2734 0C32.2034 0 32.912 0.27439 33.3992 0.82317C33.8864 1.37195 34.13 2.06341 34.13 2.89756C34.13 3.75366 33.8753 4.46707 33.366 5.0378C32.8788 5.60854 32.137 5.8939 31.1405 5.8939C30.2104 5.8939 29.4907 5.61951 28.9814 5.07073C28.4942 4.5 28.2506 3.83049 28.2506 3.06219C28.2506 2.18415 28.5053 1.45976 29.0146 0.889025C29.5239 0.296342 30.2768 0 31.2734 0Z" fill="#205CF5"/>
<path d="M37.0583 24.4646V21.5671L43.3695 11.8207C42.9487 11.8427 42.5501 11.8646 42.1736 11.8866C41.7972 11.8866 41.4207 11.8866 41.0443 11.8866H39.6112C38.6734 11.8866 37.8719 11.2173 37.7126 10.3013C37.5096 9.1341 38.4163 8.06707 39.6112 8.06707H47.0106C48.3935 8.06707 49.5146 9.17833 49.5146 10.5491C49.5146 11.0143 49.3827 11.4701 49.134 11.8646L43.5355 20.7439C43.8234 20.722 44.1002 20.711 44.366 20.711C44.6538 20.689 44.9528 20.678 45.2628 20.678H56.7332V24.4646H37.0583Z" fill="#205CF5"/>
<path d="M60.5864 10.5366C60.5864 9.09997 61.7612 7.93537 63.2105 7.93537C64.6598 7.93537 65.8346 9.09997 65.8346 10.5366V16.5293C65.8346 17.8463 65.4039 23.6415 69.3567 23.7073C69.5338 24.5854 66.0903 23.5756 66.3339 24.1024C66.5997 24.739 65.2035 23.7073 66.1004 24.4646L69.3567 27C64.7727 27 63.0444 24.278 62.8451 23.9707C62.668 23.7293 62.4908 23.4219 62.3137 23.0488C62.1365 22.6537 62.0933 22.6976 61.9825 22.1927C61.4068 23.2244 61.0857 23.5722 59.9895 24.1024C59.2408 24.4646 57.9069 24.4646 56.7332 24.4646C55.8696 24.4646 54.3427 24.4646 53.8112 24.4646C53.2133 24.1793 52.9133 23.5976 52.5147 23.1146C52.1382 22.6098 51.8614 22.0061 51.6843 21.3037C51.5293 20.6012 51.4518 19.811 51.4518 18.9329V10.553C51.4518 9.10734 52.6341 7.93537 54.0925 7.93537C55.5509 7.93537 56.7332 9.10734 56.7332 10.553V18.2415C56.7332 19.0098 56.8218 19.6354 56.999 20.1183C57.1983 20.5793 57.5526 20.8098 58.0619 20.8098C58.682 20.8098 59.4581 20.5354 59.9895 19.7232C60.521 18.889 60.5864 17.6159 60.5864 16.1671V10.5366Z" fill="#205CF5"/>
<path d="M31.4231 21.5671H37.7343V24.4646H31.4231V21.5671Z" fill="#205CF5"/>
<path d="M4.6541 19.9084C4.21371 19.4117 3.57315 19.1634 2.73241 19.1634C1.83161 19.1634 1.15101 19.4316 0.690609 19.968C0.230203 20.4845 0 21.1401 0 21.9348C0 22.6301 0.220194 23.236 0.660582 23.7526C1.12099 24.2492 1.77156 24.4976 2.6123 24.4976C3.5131 24.4976 4.18369 24.2393 4.62408 23.7228C5.08448 23.2062 5.31468 22.5606 5.31468 21.7858C5.31468 21.0309 5.09449 20.4051 4.6541 19.9084Z" fill="#205CF5"/>
<path fill-rule="evenodd" clip-rule="evenodd" d="M63.9755 17.8463C64.8928 17.8463 65.6364 18.5834 65.6364 19.4927C65.6364 22.0311 67.4118 23.7073 69.1573 23.7073C70.9029 23.7073 72.6783 22.0311 72.6783 19.4927C72.6783 18.5834 73.4219 17.8463 74.3392 17.8463C75.2564 17.8463 76 18.5834 76 19.4927C76 23.4281 73.1355 27 69.1573 27C65.1792 27 62.3147 23.4281 62.3147 19.4927C62.3147 18.5834 63.0583 17.8463 63.9755 17.8463Z" fill="#205CF5"/>
</svg>
