<?xml version="1.0" encoding="UTF-8" standalone="no"?>
<!DOCTYPE svg PUBLIC "-//W3C//DTD SVG 1.1//EN" "http://www.w3.org/Graphics/SVG/1.1/DTD/svg11.dtd">
<svg version="1.1" xmlns="http://www.w3.org/2000/svg" xmlns:xlink="http://www.w3.org/1999/xlink" preserveAspectRatio="xMidYMid meet" viewBox="0 0 22 22" width="22" height="22"><defs><path d="M11 0C4.92 0 0 4.92 0 11C0 17.08 4.92 22 11 22C17.08 22 22 17.08 22 11C22 4.92 17.08 0 11 0Z" id="an9hysTx2"></path><path d="M11 1C5.48 1 1 5.48 1 11C1 16.52 5.48 21 11 21C16.52 21 21 16.52 21 11C21 5.48 16.52 1 11 1Z" id="hb6BxXbs"></path><path d="M8.27 7.03L9.98 7.03L9.98 14.97L8.27 14.97L8.27 7.03Z" id="g6umQPedLf"></path><path d="M11.64 7.03L13.35 7.03L13.35 14.97L11.64 14.97L11.64 7.03Z" id="c433t3qAh"></path></defs><g><g><g><use xlink:href="#an9hysTx2" opacity="1" fill="#000000" fill-opacity="0"></use><g><use xlink:href="#an9hysTx2" opacity="1" fill-opacity="0" stroke="#000000" stroke-width="2" stroke-opacity="0"></use></g></g><g><use xlink:href="#hb6BxXbs" opacity="1" fill="#000000" fill-opacity="0"></use><g><use xlink:href="#hb6BxXbs" opacity="1" fill-opacity="0" stroke="#4253a5" stroke-width="2" stroke-opacity="1"></use></g></g><g><use xlink:href="#g6umQPedLf" opacity="1" fill="#627ef7" fill-opacity="1"></use></g><g><use xlink:href="#c433t3qAh" opacity="1" fill="#627ef7" fill-opacity="1"></use></g></g></g></svg>