<svg width="102" height="20" viewBox="0 0 102 20" fill="none" xmlns="http://www.w3.org/2000/svg">
<path d="M0.996 13V5.152H3.468C4.052 5.152 4.572 5.228 5.028 5.38C5.484 5.532 5.844 5.784 6.108 6.136C6.372 6.488 6.504 6.968 6.504 7.576C6.504 8.152 6.372 8.628 6.108 9.004C5.844 9.38 5.488 9.66 5.04 9.844C4.592 10.028 4.084 10.12 3.516 10.12H2.388V13H0.996ZM2.388 9.004H3.408C4.56 9.004 5.136 8.528 5.136 7.576C5.136 7.08 4.984 6.74 4.68 6.556C4.384 6.364 3.944 6.268 3.36 6.268H2.388V9.004ZM10.0028 13.144C9.51484 13.144 9.05884 13.024 8.63484 12.784C8.21084 12.536 7.86684 12.184 7.60284 11.728C7.33884 11.264 7.20684 10.708 7.20684 10.06C7.20684 9.404 7.33884 8.848 7.60284 8.392C7.86684 7.928 8.21084 7.576 8.63484 7.336C9.05884 7.088 9.51484 6.964 10.0028 6.964C10.4988 6.964 10.9588 7.088 11.3828 7.336C11.8068 7.576 12.1508 7.928 12.4148 8.392C12.6788 8.848 12.8108 9.404 12.8108 10.06C12.8108 10.708 12.6788 11.264 12.4148 11.728C12.1508 12.184 11.8068 12.536 11.3828 12.784C10.9588 13.024 10.4988 13.144 10.0028 13.144ZM10.0028 12.016C10.4348 12.016 10.7748 11.836 11.0228 11.476C11.2708 11.116 11.3948 10.644 11.3948 10.06C11.3948 9.468 11.2708 8.992 11.0228 8.632C10.7748 8.272 10.4348 8.092 10.0028 8.092C9.57084 8.092 9.23084 8.272 8.98284 8.632C8.74284 8.992 8.62284 9.468 8.62284 10.06C8.62284 10.644 8.74284 11.116 8.98284 11.476C9.23084 11.836 9.57084 12.016 10.0028 12.016ZM15.0785 13L13.5185 7.108H14.9105L15.6185 10.168C15.6825 10.448 15.7345 10.728 15.7745 11.008C15.8225 11.288 15.8745 11.572 15.9305 11.86H15.9785C16.0345 11.572 16.0905 11.288 16.1465 11.008C16.2105 10.72 16.2785 10.44 16.3505 10.168L17.1185 7.108H18.3785L19.1585 10.168C19.2305 10.448 19.2985 10.728 19.3625 11.008C19.4265 11.288 19.4905 11.572 19.5545 11.86H19.6025C19.6585 11.572 19.7105 11.288 19.7585 11.008C19.8065 10.728 19.8585 10.448 19.9145 10.168L20.6225 7.108H21.9185L20.4185 13H18.7745L18.0905 10.252C18.0265 9.972 17.9665 9.696 17.9105 9.424C17.8545 9.144 17.7945 8.848 17.7305 8.536H17.6825C17.6265 8.848 17.5705 9.144 17.5145 9.424C17.4585 9.704 17.3985 9.984 17.3345 10.264L16.6625 13H15.0785ZM25.5327 13.144C24.9887 13.144 24.4967 13.024 24.0567 12.784C23.6167 12.536 23.2687 12.184 23.0127 11.728C22.7567 11.264 22.6287 10.708 22.6287 10.06C22.6287 9.42 22.7567 8.868 23.0127 8.404C23.2767 7.94 23.6167 7.584 24.0327 7.336C24.4487 7.088 24.8847 6.964 25.3407 6.964C25.8767 6.964 26.3247 7.084 26.6847 7.324C27.0447 7.556 27.3167 7.884 27.5007 8.308C27.6847 8.724 27.7767 9.208 27.7767 9.76C27.7767 10.048 27.7567 10.272 27.7167 10.432H23.9727C24.0367 10.952 24.2247 11.356 24.5367 11.644C24.8487 11.932 25.2407 12.076 25.7127 12.076C25.9687 12.076 26.2047 12.04 26.4207 11.968C26.6447 11.888 26.8647 11.78 27.0807 11.644L27.5487 12.508C27.2687 12.692 26.9567 12.844 26.6127 12.964C26.2687 13.084 25.9087 13.144 25.5327 13.144ZM23.9607 9.496H26.5767C26.5767 9.04 26.4767 8.684 26.2767 8.428C26.0767 8.164 25.7767 8.032 25.3767 8.032C25.0327 8.032 24.7247 8.16 24.4527 8.416C24.1887 8.664 24.0247 9.024 23.9607 9.496ZM29.0948 13V7.108H30.2348L30.3308 8.152H30.3788C30.5868 7.768 30.8388 7.476 31.1348 7.276C31.4308 7.068 31.7348 6.964 32.0468 6.964C32.3268 6.964 32.5508 7.004 32.7188 7.084L32.4788 8.284C32.3748 8.252 32.2788 8.228 32.1908 8.212C32.1028 8.196 31.9948 8.188 31.8668 8.188C31.6348 8.188 31.3908 8.28 31.1348 8.464C30.8788 8.64 30.6588 8.952 30.4748 9.4V13H29.0948ZM35.9741 13.144C35.4301 13.144 34.9381 13.024 34.4981 12.784C34.0581 12.536 33.7101 12.184 33.4541 11.728C33.1981 11.264 33.0701 10.708 33.0701 10.06C33.0701 9.42 33.1981 8.868 33.4541 8.404C33.7181 7.94 34.0581 7.584 34.4741 7.336C34.8901 7.088 35.3261 6.964 35.7821 6.964C36.3181 6.964 36.7661 7.084 37.1261 7.324C37.4861 7.556 37.7581 7.884 37.9421 8.308C38.1261 8.724 38.2181 9.208 38.2181 9.76C38.2181 10.048 38.1981 10.272 38.1581 10.432H34.4141C34.4781 10.952 34.6661 11.356 34.9781 11.644C35.2901 11.932 35.6821 12.076 36.1541 12.076C36.4101 12.076 36.6461 12.04 36.8621 11.968C37.0861 11.888 37.3061 11.78 37.5221 11.644L37.9901 12.508C37.7101 12.692 37.3981 12.844 37.0541 12.964C36.7101 13.084 36.3501 13.144 35.9741 13.144ZM34.4021 9.496H37.0181C37.0181 9.04 36.9181 8.684 36.7181 8.428C36.5181 8.164 36.2181 8.032 35.8181 8.032C35.4741 8.032 35.1661 8.16 34.8941 8.416C34.6301 8.664 34.4661 9.024 34.4021 9.496ZM41.6002 13.144C40.8642 13.144 40.2762 12.872 39.8362 12.328C39.3962 11.784 39.1762 11.028 39.1762 10.06C39.1762 9.42 39.2922 8.868 39.5242 8.404C39.7642 7.94 40.0762 7.584 40.4602 7.336C40.8442 7.088 41.2482 6.964 41.6722 6.964C42.0082 6.964 42.2922 7.024 42.5242 7.144C42.7642 7.256 42.9962 7.412 43.2202 7.612L43.1722 6.664V4.528H44.5522V13H43.4122L43.3162 12.364H43.2682C43.0522 12.58 42.8002 12.764 42.5122 12.916C42.2242 13.068 41.9202 13.144 41.6002 13.144ZM41.9362 12.004C42.3762 12.004 42.7882 11.784 43.1722 11.344V8.596C42.9722 8.412 42.7722 8.284 42.5722 8.212C42.3722 8.14 42.1722 8.104 41.9722 8.104C41.5962 8.104 41.2722 8.276 41.0002 8.62C40.7362 8.956 40.6042 9.432 40.6042 10.048C40.6042 10.68 40.7202 11.164 40.9522 11.5C41.1842 11.836 41.5122 12.004 41.9362 12.004ZM51.5679 13.144C51.0079 13.144 50.4719 12.888 49.9599 12.376H49.9239L49.8039 13H48.7119V4.528H50.0919V6.712L50.0559 7.696C50.3039 7.48 50.5759 7.304 50.8719 7.168C51.1679 7.032 51.4639 6.964 51.7599 6.964C52.4959 6.964 53.0679 7.236 53.4759 7.78C53.8839 8.324 54.0879 9.048 54.0879 9.952C54.0879 10.624 53.9679 11.2 53.7279 11.68C53.4879 12.152 53.1759 12.516 52.7919 12.772C52.4159 13.02 52.0079 13.144 51.5679 13.144ZM51.2799 12.004C51.6719 12.004 51.9999 11.832 52.2639 11.488C52.5279 11.144 52.6599 10.64 52.6599 9.976C52.6599 9.384 52.5599 8.924 52.3599 8.596C52.1599 8.268 51.8359 8.104 51.3879 8.104C50.9719 8.104 50.5399 8.324 50.0919 8.764V11.512C50.2999 11.688 50.5039 11.816 50.7039 11.896C50.9119 11.968 51.1039 12.004 51.2799 12.004ZM55.7993 15.424C55.6393 15.424 55.4993 15.412 55.3793 15.388C55.2593 15.364 55.1433 15.336 55.0313 15.304L55.2833 14.224C55.3393 14.24 55.4033 14.256 55.4753 14.272C55.5553 14.296 55.6313 14.308 55.7033 14.308C56.0153 14.308 56.2633 14.212 56.4473 14.02C56.6393 13.836 56.7833 13.596 56.8793 13.3L56.9873 12.928L54.6713 7.108H56.0753L57.0953 10C57.1833 10.256 57.2673 10.528 57.3473 10.816C57.4353 11.096 57.5233 11.376 57.6113 11.656H57.6593C57.7313 11.384 57.8033 11.108 57.8753 10.828C57.9553 10.54 58.0313 10.264 58.1033 10L58.9913 7.108H60.3233L58.1873 13.264C57.9393 13.928 57.6393 14.452 57.2873 14.836C56.9353 15.228 56.4393 15.424 55.7993 15.424Z" fill="#B1C0E0"/>
<path d="M71.1118 14.9386C71.1528 14.9618 71.1868 14.9953 71.2104 15.0358C71.234 15.0762 71.2463 15.1221 71.246 15.1688C71.2458 15.2156 71.233 15.2614 71.209 15.3016C71.185 15.3418 71.1507 15.375 71.1095 15.3977L69.9158 16.0669L69.9069 16.0616L68.0519 17.1256C67.9708 17.1721 67.8788 17.1966 67.7851 17.1966C67.6914 17.1966 67.5993 17.1721 67.5183 17.1256L65.1192 15.7528C64.7955 15.5677 64.5267 15.3014 64.3398 14.9807C64.153 14.6601 64.0547 14.2964 64.0549 13.9262V6.01347C64.0551 5.64024 64.1553 5.27375 64.3454 4.95147C64.5355 4.62919 64.8087 4.36269 65.137 4.17923L65.2572 4.11189C65.3187 4.07741 65.3916 4.06852 65.4598 4.08717C65.5279 4.10582 65.5859 4.15049 65.6208 4.21137C65.6436 4.25101 65.6554 4.29586 65.6552 4.34146V14.098C65.655 14.1444 65.6671 14.1901 65.6904 14.2304C65.7136 14.2707 65.7472 14.3042 65.7878 14.3276L67.1206 15.097C67.1611 15.1201 67.207 15.1323 67.2537 15.1323C67.3005 15.1323 67.3464 15.1201 67.3869 15.097L67.4039 15.0874C67.4445 15.0644 67.4782 15.0311 67.5017 14.9909C67.5252 14.9508 67.5375 14.9052 67.5375 14.8588C67.5375 14.8125 67.5252 14.7669 67.5017 14.7268C67.4782 14.6866 67.4445 14.6533 67.4039 14.6302L66.3191 14.01C66.2785 13.9867 66.2448 13.9533 66.2214 13.9129C66.1981 13.8726 66.1859 13.8269 66.1862 13.7805V3.87965C66.1862 3.78626 66.2112 3.69453 66.2587 3.61386C66.3062 3.53319 66.3746 3.46647 66.4567 3.42052L67.3876 2.89864C67.4492 2.86426 67.5221 2.85542 67.5902 2.87407C67.6583 2.89271 67.7163 2.93731 67.7513 2.99811C67.7739 3.03752 67.7858 3.0821 67.7857 3.12744V12.884C67.7854 12.9305 67.7976 12.9762 67.8209 13.0165C67.8443 13.0568 67.878 13.0903 67.9186 13.1136L71.1118 14.9386Z" fill="#B1C0E1"/>
<path d="M70.3229 12.0572C70.2616 12.0223 70.2167 11.9648 70.1981 11.8973C70.1795 11.8297 70.1887 11.7576 70.2236 11.6968C70.2473 11.6553 70.2821 11.621 70.3241 11.5977L72.9821 10.0523C73.0224 10.0288 73.0557 9.99521 73.0788 9.95492C73.1018 9.91464 73.1138 9.86906 73.1135 9.82275V0.528768C73.1136 0.459365 73.0998 0.390624 73.0731 0.326475C73.0463 0.262327 73.0071 0.20403 72.9575 0.154919C72.908 0.105809 72.8492 0.0668472 72.7844 0.0402648C72.7197 0.0136824 72.6503 3.44207e-07 72.5802 4.17093e-07C72.4857 -0.000117702 72.393 0.0248545 72.3116 0.0723134L69.9156 1.46004L68.5874 2.20575C68.5054 2.25185 68.4372 2.31861 68.3897 2.39925C68.3422 2.47988 68.3171 2.57153 68.3169 2.66488V12.5994C68.3168 12.6458 68.329 12.6915 68.3523 12.7318C68.3757 12.7721 68.4093 12.8056 68.4498 12.8289L71.7752 14.7393C71.8575 14.7865 71.9511 14.811 72.0463 14.8103C72.1414 14.8095 72.2346 14.7836 72.3162 14.7351L73.2557 14.1757C73.2955 14.1519 73.3283 14.1181 73.351 14.0779C73.3737 14.0376 73.3853 13.9922 73.3849 13.9462C73.3844 13.9001 73.3718 13.8549 73.3483 13.8151C73.3249 13.7754 73.2913 13.7423 73.251 13.7193L70.3229 12.0572ZM70.0451 3.23306L71.1117 2.59792C71.1521 2.57393 71.1983 2.56101 71.2455 2.56048C71.2926 2.55996 71.3391 2.57184 71.3801 2.59492C71.4211 2.618 71.4551 2.65144 71.4788 2.69184C71.5025 2.73223 71.5149 2.77812 71.5147 2.82481V8.92132C71.5147 8.96796 71.5022 9.01375 71.4785 9.05406C71.4548 9.09437 71.4208 9.12777 71.3799 9.15089L70.3133 9.75273C70.2727 9.77556 70.2268 9.78746 70.1801 9.78722C70.1335 9.78699 70.0877 9.77464 70.0474 9.7514C70.007 9.72816 69.9736 9.69486 69.9503 9.65481C69.9271 9.61476 69.9148 9.56936 69.9148 9.52317V3.46033C69.9151 3.41459 69.9273 3.36968 69.9501 3.3299C69.9729 3.29012 70.0056 3.25678 70.0451 3.23306Z" fill="#B1C0E1"/>
<path d="M73.6464 0.840331V10.116C73.6466 10.1624 73.6344 10.2081 73.6111 10.2484C73.5877 10.2887 73.5541 10.3222 73.5135 10.3455L71.3795 11.5699C71.3392 11.5931 71.3057 11.6264 71.2824 11.6664C71.2591 11.7065 71.2469 11.7519 71.2469 11.7981C71.2469 11.8443 71.2591 11.8897 71.2824 11.9297C71.3057 11.9698 71.3392 12.0031 71.3795 12.0263L74.3122 13.7067C74.3527 13.7299 74.3863 13.7632 74.4096 13.8032C74.433 13.8433 74.4452 13.8887 74.4452 13.935C74.4452 13.9812 74.433 14.0267 74.4096 14.0667C74.3863 14.1068 74.3527 14.1401 74.3122 14.1632L68.7165 17.3722C68.6755 17.3952 68.6415 17.4286 68.6177 17.4689C68.594 17.5092 68.5815 17.5551 68.5815 17.6017C68.5815 17.6484 68.594 17.6942 68.6177 17.7345C68.6415 17.7749 68.6755 17.8082 68.7165 17.8313L72.0512 19.721C72.3738 19.9039 72.739 20.0001 73.1108 20.0001C73.4825 20.0001 73.8478 19.9039 74.1704 19.721L81.3687 15.6317C81.6128 15.493 81.8156 15.293 81.9565 15.0519C82.0975 14.8108 82.1718 14.5371 82.1718 14.2585V6.02432C82.1718 5.65409 82.0734 5.29039 81.8865 4.96971C81.6996 4.64903 81.4308 4.38267 81.1071 4.19735L74.4456 0.383112C74.3646 0.336732 74.2727 0.312294 74.1791 0.312256C74.0856 0.312218 73.9937 0.336581 73.9127 0.382895C73.8316 0.429209 73.7644 0.495839 73.7176 0.576075C73.6709 0.656312 73.6463 0.747323 73.6464 0.839949V0.840331ZM80.1738 12.2012L75.5106 9.52291C75.4298 9.47652 75.3628 9.40994 75.3162 9.32983C75.2696 9.24972 75.2451 9.1589 75.2451 9.06645V5.55486C75.245 5.50843 75.2572 5.46279 75.2805 5.42253C75.3038 5.38226 75.3375 5.3488 75.378 5.32552C75.4186 5.30224 75.4647 5.28996 75.5115 5.28992C75.5584 5.28988 75.6045 5.30208 75.6451 5.32529L79.5119 7.54443C79.8349 7.72995 80.103 7.99622 80.2893 8.31658C80.4757 8.63695 80.5738 9.00016 80.5738 9.36986V11.9716C80.5739 12.0063 80.5671 12.0406 80.5538 12.0726C80.5405 12.1047 80.5209 12.1338 80.4962 12.1584C80.4716 12.1829 80.4422 12.2024 80.4099 12.2157C80.3776 12.2291 80.3429 12.2359 80.3079 12.236C80.2608 12.2362 80.2145 12.2237 80.1738 12.2V12.2012Z" fill="#B1C0E1"/>
<path d="M71.1097 15.4024L69.9159 16.0739L69.907 16.0685L68.0521 17.1368C67.9709 17.1835 67.8787 17.208 67.7849 17.208C67.691 17.208 67.5988 17.1835 67.5176 17.1368L65.1186 15.7594C64.7976 15.5743 64.5312 15.3093 64.3457 14.9907L65.6867 14.2221C65.7101 14.2649 65.7448 14.3006 65.7871 14.3254L67.12 15.0975C67.1605 15.1207 67.2064 15.1328 67.2531 15.1328C67.2999 15.1328 67.3458 15.1207 67.3863 15.0975L67.4033 15.0879C67.444 15.0647 67.4779 15.0313 67.5015 14.991C67.525 14.9507 67.5374 14.9049 67.5374 14.8583C67.5374 14.8118 67.525 14.766 67.5015 14.7257C67.4779 14.6854 67.444 14.652 67.4033 14.6288L66.3189 14.0063C66.2792 13.9833 66.2462 13.9507 66.2231 13.9114L67.8144 13C67.8378 13.0447 67.8734 13.082 67.9172 13.1075L71.112 14.9418C71.1528 14.965 71.1866 14.9984 71.2102 15.0387C71.2338 15.079 71.2462 15.1248 71.2462 15.1713C71.2462 15.2179 71.2338 15.2636 71.2102 15.3039C71.1866 15.3442 71.1528 15.3777 71.112 15.4009L71.1097 15.4024Z" fill="#B1C0E1"/>
<path d="M81.9647 15.0259C81.824 15.2737 81.6182 15.4793 81.3692 15.6208L74.1724 19.7178C73.85 19.9011 73.4847 19.9975 73.1129 19.9975C72.7412 19.9975 72.3759 19.9011 72.0535 19.7178L68.7192 17.8239C68.6786 17.8006 68.6448 17.7672 68.6213 17.7269C68.5978 17.6866 68.5854 17.6409 68.5854 17.5943C68.5854 17.5478 68.5978 17.5021 68.6213 17.4618C68.6448 17.4215 68.6786 17.388 68.7192 17.3648L73.1151 14.8376L74.315 14.1489C74.3559 14.1258 74.3898 14.0924 74.4135 14.0521C74.4371 14.0118 74.4496 13.966 74.4496 13.9194C74.4496 13.8727 74.4371 13.827 74.4135 13.7866C74.3898 13.7463 74.3559 13.7129 74.315 13.6898L73.1151 13.0011L71.3815 12.0063C71.3406 11.9832 71.3066 11.9498 71.283 11.9095C71.2593 11.8691 71.2469 11.8234 71.2469 11.7767C71.2469 11.7301 71.2593 11.6843 71.283 11.644C71.3066 11.6037 71.3406 11.5703 71.3815 11.5472L73.1155 10.5489L73.5154 10.3194C73.5522 10.2982 73.5832 10.2685 73.6059 10.2329L81.9647 15.0259Z" fill="#B1C0E1"/>
<path d="M73.2554 14.1441L73.1128 14.2286L72.3163 14.7038C72.2347 14.7523 72.1415 14.7783 72.0464 14.779C71.9512 14.7797 71.8576 14.7552 71.7753 14.708L68.4518 12.7988C68.4315 12.7868 68.4128 12.7723 68.3962 12.7556C68.3802 12.7397 68.3664 12.7218 68.3552 12.7024L69.0864 12.2815L70.2932 11.5894C70.2841 11.5962 70.2756 11.6037 70.2677 11.6119C70.2597 11.6195 70.2524 11.6278 70.2461 11.6368C70.2446 11.638 70.2435 11.6396 70.243 11.6414C70.2372 11.6484 70.2321 11.6559 70.2279 11.664C70.2259 11.667 70.2241 11.6702 70.2225 11.6735C70.2198 11.6789 70.2171 11.6842 70.2152 11.6892C70.2125 11.6943 70.2104 11.6995 70.2086 11.7049C70.2061 11.7107 70.2042 11.7167 70.2028 11.7229C70.2012 11.7258 70.2002 11.7291 70.2001 11.7325C70.1981 11.7404 70.1965 11.7484 70.1955 11.7566C70.1874 11.809 70.1955 11.8627 70.2188 11.9105C70.2422 11.9583 70.2796 11.998 70.3261 12.0244L73.1162 13.6072L73.2538 13.6838C73.3152 13.7185 73.3601 13.7759 73.3787 13.8434C73.3974 13.9109 73.3882 13.983 73.3531 14.0438C73.3299 14.0851 73.2962 14.1197 73.2554 14.1441Z" fill="#B1C0E1"/>
<path d="M88.9926 5.15512V15.015C88.9926 15.0496 88.9858 15.0839 88.9724 15.1159C88.9591 15.1479 88.9395 15.177 88.9149 15.2015C88.8902 15.226 88.8608 15.2455 88.8285 15.2588C88.7963 15.2721 88.7617 15.2789 88.7267 15.279H85.4948C85.0323 15.2794 84.5884 15.0985 84.2601 14.7758C84.1025 14.619 83.9766 14.4338 83.8892 14.2302C83.7972 14.0151 83.751 13.7835 83.7535 13.55V5.15512C83.7535 5.1205 83.7603 5.08621 83.7736 5.0542C83.787 5.0222 83.8065 4.99311 83.8312 4.9686C83.8559 4.94408 83.8852 4.92462 83.9175 4.91133C83.9498 4.89803 83.9844 4.89116 84.0194 4.89111H85.229C85.2639 4.89116 85.2985 4.89803 85.3308 4.91133C85.3631 4.92462 85.3924 4.94408 85.4171 4.9686C85.4418 4.99311 85.4614 5.0222 85.4747 5.0542C85.4881 5.08621 85.4949 5.1205 85.4948 5.15512V13.2856C85.4948 13.3202 85.5016 13.3545 85.515 13.3865C85.5283 13.4185 85.5479 13.4476 85.5725 13.4721C85.5972 13.4966 85.6266 13.5161 85.6589 13.5294C85.6911 13.5427 85.7257 13.5495 85.7607 13.5496H86.9711C87.006 13.5495 87.0406 13.5427 87.0729 13.5294C87.1052 13.5161 87.1345 13.4966 87.1592 13.4721C87.1839 13.4476 87.2035 13.4185 87.2168 13.3865C87.2301 13.3545 87.237 13.3202 87.2369 13.2856V5.15512C87.2369 5.1205 87.2437 5.08621 87.2571 5.0542C87.2704 5.0222 87.29 4.99311 87.3147 4.9686C87.3393 4.94408 87.3687 4.92462 87.4009 4.91133C87.4332 4.89803 87.4678 4.89116 87.5028 4.89111H88.7267C88.7617 4.89116 88.7963 4.89803 88.8285 4.91133C88.8608 4.92462 88.8902 4.94408 88.9149 4.9686C88.9395 4.99311 88.9591 5.0222 88.9724 5.0542C88.9858 5.08621 88.9926 5.1205 88.9926 5.15512Z" fill="#B1C0E1"/>
<path d="M95.0877 6.61707V9.2104C95.0901 9.44398 95.044 9.67555 94.9521 9.89069C94.8628 10.097 94.7345 10.2846 94.5741 10.4432C94.4126 10.6037 94.2209 10.7313 94.0099 10.8189C93.7955 10.9087 93.5649 10.9545 93.3321 10.9536H91.8558C91.8209 10.9536 91.7863 10.9605 91.754 10.9738C91.7217 10.9871 91.6924 11.0065 91.6677 11.0311C91.643 11.0556 91.6234 11.0847 91.6101 11.1167C91.5968 11.1487 91.5899 11.183 91.59 11.2176V15.0123C91.59 15.0469 91.5832 15.0812 91.5699 15.1132C91.5565 15.1452 91.5369 15.1743 91.5123 15.1988C91.4876 15.2233 91.4582 15.2428 91.426 15.2561C91.3937 15.2694 91.3591 15.2763 91.3241 15.2763H90.1145C90.0796 15.2763 90.0449 15.2694 90.0127 15.2561C89.9804 15.2428 89.951 15.2233 89.9264 15.1988C89.9017 15.1743 89.8821 15.1452 89.8688 15.1132C89.8554 15.0812 89.8486 15.0469 89.8486 15.0123V5.15244C89.8486 5.11783 89.8554 5.08353 89.8688 5.05153C89.8821 5.01953 89.9017 4.99044 89.9264 4.96593C89.951 4.94141 89.9804 4.92195 90.0127 4.90865C90.0449 4.89536 90.0796 4.88849 90.1145 4.88844H93.3321C93.5649 4.88748 93.7955 4.93329 94.0099 5.02312C94.2195 5.11002 94.4109 5.23499 94.5741 5.39158C94.7366 5.54851 94.8651 5.73647 94.9521 5.94407C95.0425 6.15708 95.0887 6.38598 95.0877 6.61707ZM93.3321 8.94679V6.88069C93.3321 6.84608 93.3253 6.81178 93.3119 6.77978C93.2986 6.74778 93.279 6.71869 93.2543 6.69418C93.2297 6.66966 93.2003 6.6502 93.168 6.6369C93.1358 6.62361 93.1012 6.61674 93.0662 6.61669H91.8558C91.8209 6.61674 91.7863 6.62361 91.754 6.6369C91.7217 6.6502 91.6924 6.66966 91.6677 6.69418C91.643 6.71869 91.6234 6.74778 91.6101 6.77978C91.5968 6.81178 91.5899 6.84608 91.59 6.88069V8.94679C91.5899 8.98141 91.5968 9.0157 91.6101 9.0477C91.6234 9.0797 91.643 9.10879 91.6677 9.13331C91.6924 9.15782 91.7217 9.17728 91.754 9.19058C91.7863 9.20387 91.8209 9.21074 91.8558 9.21079H93.0662C93.1366 9.21069 93.2041 9.18298 93.2539 9.13371C93.3038 9.08445 93.3319 9.01766 93.3321 8.94794V8.94679Z" fill="#B1C0E1"/>
<path d="M101.055 6.61738V13.5472C101.056 13.7783 101.01 14.0072 100.919 14.2202C100.832 14.4278 100.704 14.6158 100.541 14.7727C100.378 14.9293 100.187 15.0543 99.9773 15.1412C99.7628 15.2309 99.5322 15.2768 99.2994 15.2759H97.5573C97.3282 15.2762 97.1012 15.2316 96.8895 15.1448C96.6778 15.058 96.4855 14.9306 96.3237 14.7699C96.1619 14.6093 96.0337 14.4186 95.9466 14.2087C95.8595 13.9989 95.8151 13.7741 95.816 13.5472V12.5065C95.816 12.4719 95.8228 12.4376 95.8361 12.4056C95.8495 12.3736 95.869 12.3445 95.8937 12.32C95.9184 12.2955 95.9477 12.276 95.98 12.2627C96.0123 12.2494 96.0469 12.2426 96.0819 12.2425H97.2915C97.3264 12.2426 97.361 12.2494 97.3933 12.2627C97.4256 12.276 97.4549 12.2955 97.4796 12.32C97.5043 12.3445 97.5239 12.3736 97.5372 12.4056C97.5505 12.4376 97.5574 12.4719 97.5573 12.5065V13.2825C97.5573 13.3171 97.5641 13.3514 97.5774 13.3834C97.5908 13.4154 97.6104 13.4445 97.635 13.469C97.6597 13.4935 97.6891 13.5129 97.7214 13.5262C97.7536 13.5395 97.7882 13.5464 97.8232 13.5465H99.0336C99.0685 13.5464 99.1031 13.5395 99.1354 13.5262C99.1677 13.5129 99.197 13.4935 99.2217 13.469C99.2464 13.4445 99.266 13.4154 99.2793 13.3834C99.2926 13.3514 99.2995 13.3171 99.2994 13.2825V11.2164C99.2995 11.1817 99.2926 11.1474 99.2793 11.1154C99.266 11.0834 99.2464 11.0544 99.2217 11.0298C99.197 11.0053 99.1677 10.9859 99.1354 10.9726C99.1031 10.9593 99.0685 10.9524 99.0336 10.9524H97.5573C97.3245 10.9534 97.0939 10.9076 96.8795 10.8177C96.67 10.7313 96.4805 10.6035 96.3226 10.442C96.1659 10.2818 96.0402 10.0945 95.9517 9.88946C95.8597 9.67434 95.8135 9.44276 95.816 9.20918V6.61585C95.8151 6.38898 95.8595 6.16416 95.9466 5.95432C96.0337 5.74448 96.1619 5.55377 96.3237 5.39313C96.4855 5.23249 96.6778 5.1051 96.8895 5.01828C97.1012 4.93146 97.3282 4.88692 97.5573 4.88722H99.2994C99.5322 4.88625 99.7628 4.93207 99.9773 5.0219C100.187 5.10879 100.378 5.23376 100.541 5.39036C100.704 5.54729 100.833 5.73525 100.919 5.94284C101.01 6.15634 101.056 6.38578 101.055 6.61738ZM99.2994 8.9471V6.881C99.2995 6.84638 99.2926 6.81209 99.2793 6.78009C99.266 6.74809 99.2464 6.719 99.2217 6.69449C99.197 6.66997 99.1677 6.65051 99.1354 6.63721C99.1031 6.62392 99.0685 6.61705 99.0336 6.617H97.8232C97.7882 6.61705 97.7536 6.62392 97.7214 6.63721C97.6891 6.65051 97.6597 6.66997 97.635 6.69449C97.6104 6.719 97.5908 6.74809 97.5774 6.78009C97.5641 6.81209 97.5573 6.84638 97.5573 6.881V8.9471C97.5573 8.98171 97.5641 9.01601 97.5774 9.04801C97.5908 9.08001 97.6104 9.1091 97.635 9.13361C97.6597 9.15813 97.6891 9.17759 97.7214 9.19089C97.7536 9.20418 97.7882 9.21105 97.8232 9.2111H99.0336C99.104 9.211 99.1715 9.18328 99.2213 9.13402C99.2711 9.08476 99.2992 9.01796 99.2994 8.94825V8.9471Z" fill="#B1C0E1"/>
</svg>
