<svg width="22" height="22" viewBox="0 0 22 22" fill="none" xmlns="http://www.w3.org/2000/svg">
<path d="M11 14C12.114 14 13 13.1127 13 12C13 10.8873 12.114 10 11 10C9.886 10 9 10.8873 9 12C9 13.1127 9.886 14 11 14Z" fill="#205CF5"/>
<path d="M19.0823 10.2539C18.8662 9.1982 18.4442 8.19548 17.8402 7.30312C17.2467 6.42521 16.4906 5.66909 15.6127 5.07562C14.7202 4.47184 13.7175 4.04978 12.6619 3.83354C12.1074 3.72109 11.5429 3.6658 10.9771 3.66854V1.83337L7.33333 4.58337L10.9771 7.33337V5.50187C11.4208 5.50004 11.8644 5.54221 12.2925 5.63021C13.1129 5.79833 13.8923 6.12632 14.586 6.59546C15.2702 7.05676 15.859 7.64561 16.3203 8.32979C17.0366 9.38875 17.4185 10.6383 17.4167 11.9167C17.4165 12.7746 17.2451 13.6238 16.9125 14.4146C16.7507 14.7955 16.5531 15.1602 16.3222 15.5036C16.0904 15.845 15.827 16.1639 15.5357 16.456C14.6483 17.3417 13.5219 17.9492 12.2943 18.2041C11.4407 18.3765 10.5612 18.3765 9.7075 18.2041C8.88668 18.0358 8.10704 17.7075 7.41308 17.238C6.72969 16.7771 6.14148 16.1888 5.68058 15.5055C4.96518 14.4454 4.58306 13.1956 4.58333 11.9167H2.75C2.75098 13.5609 3.24215 15.1675 4.16075 16.5312C4.75461 17.4077 5.50996 18.163 6.38642 18.7569C7.74824 19.6786 9.3556 20.1697 11 20.1667C11.5585 20.1667 12.1156 20.1105 12.6628 19.999C13.7177 19.7811 14.7197 19.3592 15.6127 18.7569C16.0511 18.4615 16.4597 18.1241 16.8328 17.7495C17.2063 17.3749 17.5439 16.9661 17.8411 16.5285C18.762 15.167 19.2528 13.5604 19.25 11.9167C19.25 11.3582 19.1938 10.8011 19.0823 10.2539Z" fill="#205CF5"/>
</svg>
