<svg width="18" height="18" viewBox="0 0 18 18" fill="none" xmlns="http://www.w3.org/2000/svg">
<path d="M15.2998 5.40002L8.9998 9.00002" stroke="#A0B2FF" stroke-linecap="round" stroke-linejoin="round"/>
<path d="M15.2998 12.6L8.99976 8.99988" stroke="#A0B2FF" stroke-linecap="round" stroke-linejoin="round"/>
<path d="M2.7002 5.40002L2.70024 12.5001" stroke="#A0B2FF" stroke-linecap="round" stroke-linejoin="round"/>
<path d="M9 8.99988V16.2" stroke="#A0B2FF" stroke-linecap="round" stroke-linejoin="round"/>
<path d="M2.7 5.40005L9 1.80005" stroke="#A0B2FF" stroke-linecap="round" stroke-linejoin="round"/>
<path d="M15.2998 5.40005L8.9998 1.80005" stroke="#A0B2FF" stroke-linecap="round" stroke-linejoin="round"/>
<path d="M4.4999 5.39995C4.4999 6.39406 3.69402 7.19995 2.6999 7.19995C1.70579 7.19995 0.899902 6.39406 0.899902 5.39995C0.899902 4.40584 1.70579 3.59995 2.6999 3.59995C3.69402 3.59995 4.4999 4.40584 4.4999 5.39995Z" fill="#205CF5"/>
<path d="M4.4999 12.6C4.4999 13.5941 3.69402 14.4 2.6999 14.4C1.70579 14.4 0.899902 13.5941 0.899902 12.6C0.899902 11.6059 1.70579 10.8 2.6999 10.8C3.69402 10.8 4.4999 11.6059 4.4999 12.6Z" fill="#205CF5"/>
<path d="M17.1 5.39995C17.1 6.39406 16.2941 7.19995 15.3 7.19995C14.3059 7.19995 13.5 6.39406 13.5 5.39995C13.5 4.40584 14.3059 3.59995 15.3 3.59995C16.2941 3.59995 17.1 4.40584 17.1 5.39995Z" fill="#205CF5"/>
<path d="M17.1 12.6C17.1 13.5941 16.2941 14.4 15.3 14.4C14.3059 14.4 13.5 13.5941 13.5 12.6C13.5 11.6059 14.3059 10.8 15.3 10.8C16.2941 10.8 17.1 11.6059 17.1 12.6Z" fill="#205CF5"/>
<path d="M10.8002 1.79998C10.8002 2.79409 9.99431 3.59998 9.0002 3.59998C8.00608 3.59998 7.2002 2.79409 7.2002 1.79998C7.2002 0.805863 8.00608 -2.45571e-05 9.0002 -2.45571e-05C9.99431 -2.45571e-05 10.8002 0.805863 10.8002 1.79998Z" fill="#205CF5"/>
<path d="M10.8002 9.00005C10.8002 9.99416 9.99431 10.8 9.0002 10.8C8.00608 10.8 7.2002 9.99416 7.2002 9.00005C7.2002 8.00594 8.00608 7.20005 9.0002 7.20005C9.99431 7.20005 10.8002 8.00594 10.8002 9.00005Z" fill="#205CF5"/>
<path d="M10.8002 16.2C10.8002 17.1941 9.99431 18 9.0002 18C8.00608 18 7.2002 17.1941 7.2002 16.2C7.2002 15.2059 8.00608 14.4 9.0002 14.4C9.99431 14.4 10.8002 15.2059 10.8002 16.2Z" fill="#205CF5"/>
</svg>