<svg width="24" height="24" viewBox="0 0 24 24" fill="none" xmlns="http://www.w3.org/2000/svg">
<path d="M13.8199 22H10.1799C9.95182 22 9.73059 21.9221 9.55289 21.7792C9.37519 21.6362 9.25169 21.4368 9.20288 21.214L8.79588 19.33C8.25294 19.0921 7.73812 18.7946 7.26088 18.443L5.42388 19.028C5.20645 19.0973 4.97183 19.0902 4.759 19.0078C4.54617 18.9254 4.36794 18.7727 4.25388 18.575L2.42988 15.424C2.31703 15.2261 2.27467 14.9958 2.30973 14.7708C2.34479 14.5457 2.45519 14.3392 2.62288 14.185L4.04788 12.885C3.98308 12.2961 3.98308 11.7019 4.04788 11.113L2.62288 9.816C2.45496 9.66177 2.3444 9.45507 2.30933 9.22978C2.27427 9.00449 2.31677 8.77397 2.42988 8.576L4.24988 5.423C4.36394 5.22532 4.54218 5.07259 4.755 4.99019C4.96783 4.90778 5.20245 4.90066 5.41988 4.97L7.25688 5.555C7.50088 5.375 7.75488 5.207 8.01688 5.055C8.26988 4.913 8.52988 4.784 8.79588 4.669L9.20388 2.787C9.25246 2.5642 9.37572 2.36469 9.55323 2.22155C9.73074 2.07841 9.95185 2.00024 10.1799 2H13.8199C14.0479 2.00024 14.269 2.07841 14.4465 2.22155C14.6241 2.36469 14.7473 2.5642 14.7959 2.787L15.2079 4.67C15.7505 4.9079 16.265 5.20539 16.7419 5.557L18.5799 4.972C18.7972 4.90292 19.0316 4.91017 19.2442 4.99256C19.4568 5.07495 19.6349 5.22753 19.7489 5.425L21.5689 8.578C21.8009 8.985 21.7209 9.5 21.3759 9.817L19.9509 11.117C20.0157 11.7059 20.0157 12.3001 19.9509 12.889L21.3759 14.189C21.7209 14.507 21.8009 15.021 21.5689 15.428L19.7489 18.581C19.6348 18.7787 19.4566 18.9314 19.2438 19.0138C19.0309 19.0962 18.7963 19.1033 18.5789 19.034L16.7419 18.449C16.265 18.8003 15.7505 19.0975 15.2079 19.335L14.7959 21.214C14.7471 21.4366 14.6238 21.6359 14.4463 21.7788C14.2688 21.9218 14.0478 21.9998 13.8199 22ZM7.61988 16.229L8.43988 16.829C8.62488 16.965 8.81688 17.09 9.01688 17.204C9.20488 17.313 9.39688 17.411 9.59588 17.5L10.5289 17.909L10.9859 20H13.0159L13.4729 17.908L14.4059 17.499C14.8129 17.319 15.1999 17.096 15.5589 16.833L16.3789 16.233L18.4209 16.883L19.4359 15.125L17.8529 13.682L17.9649 12.67C18.0149 12.227 18.0149 11.78 17.9649 11.338L17.8529 10.326L19.4369 8.88L18.4209 7.121L16.3799 7.771L15.5589 7.171C15.1997 6.90669 14.8131 6.68173 14.4059 6.5L13.4729 6.091L13.0159 4H10.9859L10.5259 6.092L9.59588 6.5C9.18807 6.67861 8.80136 6.90198 8.44288 7.166L7.62188 7.766L5.58188 7.116L4.56488 8.88L6.14788 10.321L6.03588 11.334C5.98588 11.777 5.98588 12.224 6.03588 12.666L6.14788 13.678L4.56488 15.121L5.57988 16.879L7.61988 16.229ZM11.9959 16C10.935 16 9.9176 15.5786 9.16746 14.8284C8.41731 14.0783 7.99588 13.0609 7.99588 12C7.99588 10.9391 8.41731 9.92172 9.16746 9.17157C9.9176 8.42143 10.935 8 11.9959 8C13.0568 8 14.0742 8.42143 14.8243 9.17157C15.5745 9.92172 15.9959 10.9391 15.9959 12C15.9959 13.0609 15.5745 14.0783 14.8243 14.8284C14.0742 15.5786 13.0568 16 11.9959 16ZM11.9959 10C11.6042 10.0004 11.2213 10.1158 10.8947 10.3318C10.568 10.5479 10.3119 10.855 10.1583 11.2153C10.0046 11.5755 9.9601 11.9729 10.0303 12.3583C10.1004 12.7436 10.2822 13.0998 10.5529 13.3828C10.8237 13.6657 11.1716 13.863 11.5534 13.95C11.9353 14.037 12.3343 14.01 12.7009 13.8724C13.0676 13.7347 13.3858 13.4924 13.616 13.1756C13.8462 12.8587 13.9783 12.4812 13.9959 12.09V12.49V12C13.9959 11.4696 13.7852 10.9609 13.4101 10.5858C13.035 10.2107 12.5263 10 11.9959 10Z" fill="#627EF7"/>
</svg>
