<svg width="26" height="26" viewBox="0 0 26 26" fill="none" xmlns="http://www.w3.org/2000/svg">
<path d="M10.8337 11.9167H7.69308L7.69416 11.907C7.83561 11.2143 8.11247 10.5564 8.50883 9.97105C9.09865 9.10202 9.92598 8.42097 10.8922 8.00913C11.2193 7.87046 11.5606 7.7643 11.9083 7.69388C12.6297 7.54762 13.3731 7.54762 14.0945 7.69388C15.1312 7.90631 16.0825 8.41908 16.8299 9.1683L18.3639 7.63863C17.6725 6.94707 16.8546 6.39501 15.9546 6.01255C15.4956 5.81823 15.0184 5.67016 14.53 5.57055C13.5223 5.36581 12.4838 5.36581 11.4761 5.57055C10.9873 5.67057 10.5098 5.819 10.0504 6.01363C8.69682 6.58791 7.53808 7.54123 6.71374 8.7588C6.15895 9.5798 5.77099 10.5019 5.57191 11.4725C5.54158 11.6188 5.52533 11.7683 5.50366 11.9167H2.16699L6.50033 16.25L10.8337 11.9167ZM15.167 14.0834H18.3076L18.3065 14.092C18.0234 15.4806 17.205 16.7019 16.0282 17.4915C15.443 17.8882 14.7851 18.1651 14.0923 18.3062C13.3713 18.4525 12.6283 18.4525 11.9072 18.3062C11.2146 18.1648 10.5567 17.8879 9.97133 17.4915C9.68383 17.2971 9.41541 17.0758 9.16966 16.8307L7.63783 18.3625C8.32954 19.0539 9.14791 19.6056 10.0482 19.9875C10.5076 20.1825 10.9875 20.331 11.4728 20.4295C12.4801 20.6344 13.5184 20.6344 14.5257 20.4295C16.4676 20.0265 18.1757 18.8819 19.2869 17.2391C19.8412 16.4187 20.2288 15.4974 20.4277 14.5275C20.4569 14.3813 20.4742 14.2318 20.4959 14.0834H23.8337L19.5003 9.75005L15.167 14.0834Z" fill="#205CF5"/>
</svg>
