<svg width="32" height="32" viewBox="0 0 32 32" fill="none" xmlns="http://www.w3.org/2000/svg">
<path d="M32 16C32 24.8366 24.8366 32 16 32C7.16344 32 0 24.8366 0 16C0 7.16344 7.16344 0 16 0C24.8366 0 32 7.16344 32 16Z" fill="#205CF5"/>
<path d="M14.853 7.7991C15.4474 7.52814 16.2309 7.85329 17.2035 8.77455C17.2035 8.82874 17.1495 8.93712 17.0414 9.0997C16.5551 9.96676 16.366 11.5654 16.474 13.8956C17.0144 14.4375 17.3386 14.7627 17.4467 14.871C18.5274 13.733 19.3649 12.7576 19.9593 11.9447C20.2835 11.457 20.4456 10.9422 20.4456 10.4003C20.4456 10.2377 20.4726 10.1293 20.5266 10.0751C21.4992 10.0751 22.2287 10.5628 22.715 11.5383C22.715 11.6467 22.6069 11.7551 22.3908 11.8634C21.9585 12.026 21.5533 12.2428 21.175 12.5137C21.0129 12.6221 20.7427 12.8118 20.3645 13.0827C19.4459 13.7872 18.5543 14.4917 17.6898 15.1962C19.9592 17.6889 22.6339 19.2063 25.7139 19.7483C26.2002 19.8567 26.4704 19.965 26.5244 20.0734C26.5784 20.1276 26.4163 20.2089 26.0381 20.3173C24.0388 20.6966 22.8501 20.8592 22.472 20.805C21.9316 20.805 21.4723 20.5611 21.0941 20.0734C19.7432 18.6644 18.2033 16.8218 16.4743 14.5457C16.5283 15.9005 16.6094 18.0139 16.7174 20.886C16.7174 21.4821 16.7174 21.7802 16.7174 21.7802C16.8255 23.0807 16.5013 24.1104 15.7448 24.869C15.6367 24.869 15.3936 24.6523 15.0153 24.2187C14.475 23.5684 13.9346 23.0536 13.3943 22.6743C12.908 22.295 13.1782 22.1866 14.2048 22.3492C14.8533 22.4575 15.2315 22.4846 15.3395 22.4304C15.4476 22.3221 15.5287 21.184 15.5827 19.0164C15.6367 16.6321 15.6367 14.1934 15.5827 11.7005C15.5827 10.3999 15.3666 9.31604 14.9343 8.44898C14.8262 8.17802 14.8032 7.7991 14.8532 7.79869L14.853 7.7991ZM13.232 13.0015C13.9884 13.164 14.4747 13.5163 14.6909 14.0582C14.6909 14.1124 14.6099 14.2479 14.4478 14.4647C14.1236 14.844 13.9074 15.1962 13.7993 15.5214C12.7727 18.6645 10.9355 20.9135 8.28764 22.2682C8.01746 22.4307 7.82834 22.4849 7.72028 22.4307C7.66625 22.3224 7.77431 22.1598 8.04449 21.943C10.5842 19.8296 12.1782 17.3097 12.8265 14.3833C12.7184 14.3291 12.2051 14.4917 11.2865 14.871C10.5301 15.142 10.0708 15.2774 9.90864 15.2774C8.44971 14.7897 8.1255 14.4646 8.93602 14.302C10.7192 14.1394 12.043 13.7601 12.9074 13.164C13.0695 13.0556 13.1776 13.0014 13.2316 13.0014L13.232 13.0015Z" fill="white"/>
<path fill-rule="evenodd" clip-rule="evenodd" d="M14.8528 7.7987C14.8527 7.79871 14.8525 7.79872 14.8523 7.79873C14.8207 7.80188 14.8193 7.96101 14.8516 8.14594C14.8691 8.24629 14.8965 8.35424 14.9343 8.44898C15.3666 9.31604 15.5827 10.3999 15.5827 11.7005C15.6367 14.1934 15.6367 16.6321 15.5827 19.0164C15.5287 21.184 15.4476 22.3221 15.3395 22.4304C15.2315 22.4846 14.8533 22.4575 14.2048 22.3492C13.1782 22.1866 12.908 22.295 13.3943 22.6743C13.9346 23.0536 14.475 23.5684 15.0153 24.2187C15.3936 24.6523 15.6367 24.869 15.7448 24.869C16.5013 24.1104 16.8255 23.0807 16.7174 21.7802V20.886C16.6242 18.4088 16.5511 16.496 16.4981 15.1475C16.4896 14.9326 16.4817 14.732 16.4743 14.5457C16.5969 14.7071 16.7186 14.8664 16.8393 15.0235C18.4208 17.081 19.839 18.7643 21.0941 20.0734C21.4723 20.5611 21.9316 20.805 22.472 20.805C22.8501 20.8592 24.0388 20.6966 26.0381 20.3173C26.1051 20.2981 26.1654 20.2797 26.2188 20.2622C26.2231 20.2608 26.2274 20.2594 26.2316 20.258C26.2319 20.2579 26.2322 20.2578 26.2325 20.2577C26.2326 20.2577 26.2328 20.2576 26.2329 20.2576C26.3024 20.2345 26.3598 20.2129 26.4053 20.1929C26.5156 20.1442 26.5553 20.1044 26.5244 20.0734C26.4957 20.0159 26.4061 19.9584 26.2557 19.9008C26.247 19.8975 26.238 19.8942 26.2289 19.8908C26.0988 19.8433 25.9271 19.7958 25.7139 19.7483C22.7401 19.225 20.1442 17.7924 17.926 15.4506C17.8468 15.367 17.768 15.2822 17.6898 15.1962C17.7792 15.1233 17.869 15.0504 17.959 14.9775C18.7391 14.3459 19.5409 13.7143 20.3645 13.0827C20.7427 12.8118 21.0129 12.6221 21.175 12.5137C21.5533 12.2428 21.9585 12.026 22.3908 11.8634C22.6069 11.7551 22.715 11.6467 22.715 11.5383C22.2287 10.5628 21.4992 10.0751 20.5266 10.0751C20.4726 10.1293 20.4456 10.2377 20.4456 10.4003C20.4456 10.9422 20.2835 11.457 19.9593 11.9447C19.4092 12.6969 18.651 13.5884 17.6845 14.619C17.6066 14.7021 17.5273 14.7861 17.4467 14.871L16.474 13.8956C16.366 11.5654 16.5551 9.96676 17.0414 9.0997C17.1495 8.93712 17.2035 8.82874 17.2035 8.77455C16.4037 8.01704 15.7319 7.66256 15.1879 7.71112C15.0705 7.7216 14.959 7.75084 14.8535 7.79886C14.8534 7.7989 14.8533 7.79895 14.8532 7.79899C14.8532 7.79903 14.8531 7.79907 14.853 7.7991L14.8532 7.79869C14.8531 7.79869 14.8529 7.79869 14.8528 7.7987ZM14.7371 7.4713C14.6698 7.49473 14.6194 7.53551 14.5869 7.57193C14.5431 7.62104 14.5223 7.67118 14.5128 7.69752C14.4932 7.7518 14.4873 7.80388 14.4849 7.8346C14.4794 7.90335 14.4828 7.98214 14.4904 8.05737C14.5057 8.20891 14.5441 8.40467 14.6132 8.57779C14.6168 8.58671 14.6207 8.59549 14.625 8.60409C15.0265 9.40943 15.2369 10.4362 15.2369 11.7005C15.2369 11.703 15.2369 11.7055 15.237 11.708C15.2909 14.196 15.2909 16.6294 15.237 19.0082C15.21 20.0903 15.1764 20.9101 15.1364 21.4709C15.1164 21.7523 15.0952 21.9617 15.0736 22.1039C15.0734 22.1057 15.0731 22.1074 15.0729 22.1091C15.0507 22.1081 15.0263 22.1067 14.9995 22.1048C14.8262 22.0924 14.5817 22.0605 14.2617 22.007C14.2607 22.0069 14.2597 22.0067 14.2588 22.0066C13.9958 21.9649 13.7718 21.9391 13.5911 21.9315C13.4258 21.9246 13.2455 21.9296 13.1038 21.9865C13.0284 22.0167 12.9145 22.0815 12.8524 22.2165C12.7865 22.3595 12.8173 22.4955 12.8554 22.5815C12.9209 22.7292 13.06 22.8529 13.182 22.9481C13.1866 22.9516 13.1912 22.9551 13.196 22.9584C13.7054 23.316 14.2237 23.8078 14.7497 24.4408C14.7505 24.4417 14.7513 24.4427 14.7521 24.4436C14.7531 24.4448 14.7541 24.446 14.7551 24.4471C14.9477 24.6679 15.1141 24.8431 15.2516 24.9657C15.32 25.0266 15.3892 25.0818 15.4572 25.1238C15.5141 25.1589 15.6182 25.2159 15.7448 25.2159C15.8365 25.2159 15.9245 25.1793 15.9893 25.1143C16.8302 24.271 17.1741 23.1375 17.0633 21.7659V20.886C17.0633 20.8816 17.0632 20.8773 17.063 20.8729C16.9805 18.6797 16.9137 16.9287 16.8627 15.62C18.3254 17.5041 19.6489 19.0651 20.8326 20.301C21.2592 20.844 21.8019 21.1447 22.4489 21.1517C22.578 21.167 22.7438 21.164 22.9314 21.151C23.1378 21.1367 23.3926 21.1086 23.6938 21.0674C24.2967 20.9849 25.1003 20.8482 26.1024 20.6581C26.1127 20.6561 26.123 20.6537 26.1331 20.6508C26.3247 20.5959 26.4863 20.5413 26.598 20.4852C26.6448 20.4618 26.7309 20.4155 26.7944 20.3358C26.83 20.2913 26.8804 20.2087 26.8804 20.095C26.8804 20.0064 26.85 19.9342 26.8127 19.8806C26.761 19.7971 26.6903 19.7404 26.6352 19.7036C26.5676 19.6584 26.4897 19.6209 26.4097 19.5888C26.2493 19.5245 26.0394 19.4655 25.7889 19.4097C25.7838 19.4086 25.7787 19.4076 25.7736 19.4067C22.8868 18.8987 20.3625 17.512 18.1956 15.2317C18.9658 14.6084 19.7573 13.9851 20.5701 13.3617C20.9459 13.0925 21.2105 12.9068 21.3669 12.8023C21.3686 12.8011 21.3703 12.8 21.3721 12.7988C21.3734 12.7978 21.3747 12.7969 21.376 12.7959C21.7299 12.5425 22.1084 12.34 22.5122 12.1882C22.5235 12.1839 22.5346 12.1791 22.5455 12.1736C22.6698 12.1113 22.7875 12.0374 22.8785 11.9461C22.9702 11.8541 23.0608 11.7169 23.0608 11.5383C23.0608 11.4844 23.0483 11.4313 23.0243 11.3832C22.7607 10.8543 22.4205 10.4368 21.995 10.1523C21.5673 9.86638 21.0734 9.72828 20.5266 9.72828C20.4349 9.72828 20.3469 9.76482 20.2821 9.82986C20.1949 9.91726 20.1525 10.024 20.1303 10.1129C20.1076 10.204 20.0997 10.3022 20.0997 10.4002C20.0997 10.8658 19.9624 11.3123 19.6757 11.746C19.1386 12.4797 18.3945 13.3552 17.4398 14.3737L17.3632 14.2968C17.3586 14.2922 17.3603 14.294 17.3616 14.2952L17.1723 14.1054C17.1721 14.1052 17.179 14.1121 17.1713 14.1044L17.155 14.088C17.1543 14.0873 17.1534 14.0864 17.1523 14.0853L17.1408 14.0738C17.1402 14.0732 17.1393 14.0723 17.1378 14.0708L17.0111 13.9437C17.0124 13.945 17.0202 13.9529 17.0105 13.9431L16.9054 13.8377C16.8927 13.8249 16.9124 13.8447 16.8996 13.8319L16.8353 13.7674C16.8221 13.7541 16.8426 13.7747 16.8294 13.7614L16.8136 13.7456C16.7677 12.6511 16.7902 11.7338 16.8782 10.9898C16.9695 10.2186 17.1285 9.65705 17.3368 9.28049C17.3913 9.1979 17.4378 9.12075 17.4723 9.05158C17.5007 8.99467 17.5493 8.89002 17.5493 8.77455C17.5493 8.67913 17.5101 8.58792 17.441 8.5224C16.9396 8.04758 16.4652 7.70459 16.0186 7.51927C15.5763 7.33571 15.1382 7.29877 14.7371 7.4713ZM26.3033 19.8567C26.3033 19.8568 26.302 19.8577 26.2991 19.8593C26.3018 19.8575 26.3033 19.8566 26.3033 19.8567ZM26.2571 20.2848C26.257 20.2848 26.2561 20.2841 26.2546 20.2829C26.2564 20.2841 26.2572 20.2848 26.2571 20.2848ZM13.2707 12.6568C13.282 12.6581 13.2933 12.6599 13.3044 12.6623C14.1324 12.8403 14.7395 13.2462 15.012 13.9294C15.0283 13.9704 15.0367 14.0141 15.0367 14.0582C15.0367 14.1441 15.0085 14.2158 14.9936 14.2507C14.975 14.2943 14.9512 14.3378 14.9267 14.3789C14.8772 14.4615 14.8083 14.5605 14.7244 14.6727C14.7199 14.6788 14.7152 14.6846 14.7103 14.6904C14.4033 15.0495 14.2168 15.3626 14.1277 15.6303C13.0772 18.8455 11.1878 21.1703 8.45515 22.5718C8.3113 22.6576 8.17068 22.7262 8.03817 22.7642C7.9097 22.801 7.73311 22.8249 7.56562 22.7409C7.49869 22.7074 7.44443 22.653 7.41097 22.5858C7.30006 22.3634 7.39471 22.153 7.47307 22.0351C7.55602 21.9104 7.68214 21.7898 7.82597 21.6742C10.1587 19.7323 11.665 17.4514 12.3621 14.8289C12.1275 14.9081 11.8139 15.0283 11.4182 15.1917C11.4131 15.1938 11.408 15.1958 11.4028 15.1976C11.022 15.3341 10.711 15.4381 10.4723 15.5086C10.2505 15.574 10.0476 15.6243 9.90864 15.6243C9.87147 15.6243 9.83454 15.6183 9.79928 15.6065C9.42874 15.4826 9.12235 15.3665 8.8841 15.2579C8.65648 15.1541 8.45492 15.0416 8.32675 14.913C8.26272 14.8488 8.18087 14.7451 8.16055 14.6025C8.13693 14.4367 8.2063 14.2995 8.29636 14.2092C8.37604 14.1293 8.4755 14.0799 8.56112 14.0469C8.65153 14.012 8.75564 13.9845 8.8682 13.9619C8.88026 13.9595 8.89245 13.9577 8.90471 13.9566C10.6654 13.7961 11.9192 13.4246 12.7115 12.8782C12.7129 12.8773 12.7142 12.8763 12.7156 12.8754C12.8023 12.8175 12.8832 12.7681 12.9554 12.7319C13.0121 12.7034 13.1165 12.6546 13.2316 12.6546C13.2446 12.6546 13.2575 12.6553 13.2704 12.6568L13.2707 12.6568ZM12.4603 14.4342C12.6129 14.3899 12.7205 14.3697 12.783 14.3736C12.8014 14.3748 12.8159 14.378 12.8265 14.3833C12.8016 14.4956 12.7754 14.6072 12.7477 14.7183C12.7474 14.7196 12.7471 14.7208 12.7468 14.7221C12.0531 17.5046 10.4856 19.9116 8.04449 21.943C7.98127 21.9937 7.92693 22.0415 7.88147 22.0863C7.87257 22.095 7.86401 22.1037 7.85579 22.1122C7.72653 22.2465 7.68136 22.3527 7.72028 22.4307C7.7935 22.4675 7.90394 22.4544 8.05159 22.3916C8.06122 22.3875 8.07101 22.3832 8.08096 22.3787C8.14358 22.3502 8.21247 22.3134 8.28764 22.2682C10.9355 20.9135 12.7727 18.6645 13.7993 15.5214C13.9074 15.1962 14.1236 14.844 14.4478 14.4647C14.6099 14.2479 14.6909 14.1124 14.6909 14.0582C14.4747 13.5163 13.9884 13.164 13.232 13.0015L13.2316 13.0014C13.1776 13.0014 13.0695 13.0556 12.9074 13.164C12.043 13.7601 10.7192 14.1394 8.93602 14.302C8.1255 14.4646 8.44971 14.7897 9.90864 15.2774C10.0708 15.2774 10.5301 15.142 11.2865 14.871C11.8088 14.6553 12.2001 14.5097 12.4603 14.4342ZM7.81426 22.1044C7.81429 22.1043 7.81516 22.1042 7.81679 22.1042C7.81505 22.1044 7.81423 22.1044 7.81426 22.1044Z" fill="white"/>
</svg>
