<svg width="32" height="32" viewBox="0 0 87.547439 84.530304" fill="none" xmlns="http://www.w3.org/2000/svg">
<g
   id="Layer_2"
   transform="translate(0.09743584)">
	<g
   id="Layer_1-2">
		<path
   style="fill:#326de6"
   d="M 43.697266 0 C 42.897266 0 41.997266 -0.00078125 41.197266 0.19921875 L 10.697266 14.900391 C 9.1972608 15.600391 8.0972656 16.899609 7.6972656 18.599609 L 0.09765625 51.5 C -0.20234375 53.2 0.19726587 54.900781 1.1972656 56.300781 L 22.296875 82.400391 C 23.496875 83.600391 25.196484 84.4 26.896484 84.5 L 60.597656 84.5 C 62.397656 84.7 64.097266 83.900391 65.197266 82.400391 L 86.296875 56.300781 C 87.296875 54.900781 87.698047 53.2 87.498047 51.5 L 79.896484 18.800781 C 79.396484 17.200781 78.197266 15.899609 76.697266 15.099609 L 46.197266 0.5 C 45.397266 0.1 44.497266 0 43.697266 0 z M 66.515625 15.484375 A 1.4619351 1.4619351 0 0 1 68.019531 16.947266 A 2.9127558 2.9127558 0 0 1 67.322266 18.832031 A 16.523949 16.523949 0 0 0 64.300781 24.134766 A 6.6495148 6.6495148 0 0 1 61.210938 27.787109 C 55.292678 31.042497 50.023438 33.441406 50.023438 33.441406 C 51.547517 33.407901 52.888258 33.539943 54.078125 33.78125 L 54.794922 32.212891 A 0.26693874 0.26693874 0 0 1 55.302734 32.298828 L 55.462891 34.126953 C 55.704079 34.200806 55.934194 34.280377 56.160156 34.363281 L 57.441406 32.927734 A 0.26693874 0.26693874 0 0 1 57.902344 33.162109 L 57.511719 34.970703 C 57.70188 35.067399 57.867852 35.173517 58.044922 35.275391 L 59.410156 33.9375 A 0.26693874 0.26693874 0 0 1 59.853516 34.201172 L 59.308594 36.103516 C 59.440078 36.203833 59.557825 36.304741 59.679688 36.40625 L 61.484375 35.480469 A 0.26693874 0.26693874 0 0 1 61.828125 35.865234 L 60.775391 37.470703 C 60.969304 37.684973 61.146122 37.893588 61.304688 38.095703 L 63.212891 37.695312 A 0.26693874 0.26693874 0 0 1 63.443359 38.15625 L 62.115234 39.328125 C 62.15577 39.402437 62.230824 39.511093 62.261719 39.574219 A 0.4464948 0.4464948 0 0 1 62.029297 40.183594 A 48.930273 48.930273 0 0 0 51.714844 46.09375 C 49.086166 47.966168 46.207502 49.350532 43.730469 50.332031 C 43.076373 54.285127 40.473796 56.885623 39.478516 57.75 A 0.87976722 0.87976722 0 0 1 38.634766 57.923828 A 0.87995885 0.87995885 0 0 1 38.033203 56.925781 C 38.437075 54.75056 38.408972 53.11241 38.332031 52.101562 C 38.290797 52.112159 38.202408 52.138735 38.164062 52.148438 A 13.074058 13.074058 0 0 0 35.507812 53.115234 A 11.895733 11.895733 0 0 0 34.857422 53.480469 A 11.838628 11.838628 0 0 0 34.330078 53.794922 A 11.895733 11.895733 0 0 0 33.837891 54.140625 A 11.838628 11.838628 0 0 0 33.228516 54.59375 C 32.991842 54.790181 32.768649 54.997504 32.558594 55.212891 C 32.369385 55.406902 32.194752 55.609111 32.027344 55.816406 C 31.508815 57.117507 31.306818 58.67221 32.125 60.228516 A 5.1377563 5.1377563 0 0 0 35.498047 62.789062 A 26.202921 26.202921 0 0 0 41.576172 63.449219 A 4.1583421 4.1583421 0 0 0 44.960938 61.724609 C 46.624465 59.405902 50.130251 55.252983 54.955078 53.447266 A 34.752434 34.752434 0 0 0 60.173828 51.050781 C 61.569843 50.242875 63.193231 51.655259 62.607422 53.158203 A 7.7023228 7.7023228 0 0 1 60.019531 56.652344 C 56.332021 59.349134 52.257813 62.816608 52.257812 66.779297 C 52.257812 66.779297 51.966213 71.210845 55.501953 73.949219 A 1.1662521 1.1662521 0 0 1 54.792969 76.033203 C 51.436784 76.075553 46.506377 74.963299 42.957031 69.091797 A 22.909207 22.909207 0 0 1 38.742188 70.107422 L 38.738281 70.107422 C 35.66417 70.582412 32.957403 70.666419 30.652344 70.337891 L 30.65625 70.347656 C 30.65625 70.347656 14.041675 69.733055 14.634766 53.652344 C 14.811605 48.857623 16.281456 44.724826 18.251953 41.277344 C 18.16014 39.986781 17.79688 38.65623 17.28125 37.388672 A 1.4696003 1.4696003 0 0 1 17.421875 36.001953 L 19.126953 33.505859 A 0.15886017 0.15886017 0 0 0 18.912109 33.28125 L 16.152344 35.037109 C 15.659283 34.137796 15.146296 33.32412 14.689453 32.648438 A 2.1703863 2.1703863 0 0 1 15.625 29.427734 C 18.291513 28.306515 21.524198 27.723456 25.607422 28.181641 A 36.480542 36.480542 0 0 0 31.316406 28.324219 C 48.430863 18.814384 61.805489 16.163693 66.345703 15.5 A 1.4619351 1.4619351 0 0 1 66.515625 15.484375 z "
   transform="translate(-0.09743584)"
   id="path6" />
		
		
	<g
   id="g857"
   transform="matrix(0.19162867,0,0,0.19162867,8.490619,13.182287)"><g
     id="g849"
     style="fill:#485a75"><path
       id="path839"
       data-original="#485a75"
       d="m 192.963,97.984 c -4.249,-8.947 -6.27,-19.006 -6.563,-29.928 a 1.414,1.414 0 0 0 -2.736,-0.449 55.314,55.314 0 0 0 -2.656,9.6 21.038,21.038 0 0 0 3.958,16.393 35.833,35.833 0 0 0 5.808,6.066 1.419,1.419 0 0 0 2.189,-1.682 z"
       style="fill:#485a75" /><path
       id="path841"
       data-original="#485a75"
       d="m 177.85,105.342 c -4.249,-8.947 -6.27,-19.006 -6.563,-29.928 a 1.414,1.414 0 0 0 -2.736,-0.449 55.314,55.314 0 0 0 -2.656,9.6 21.038,21.038 0 0 0 3.958,16.394 35.72,35.72 0 0 0 5.808,6.066 1.419,1.419 0 0 0 2.189,-1.683 z"
       style="fill:#485a75" /><path
       id="path843"
       data-original="#485a75"
       d="m 163.212,112.168 c -4.249,-8.947 -6.27,-19.006 -6.563,-29.928 a 1.414,1.414 0 0 0 -2.736,-0.449 55.314,55.314 0 0 0 -2.656,9.6 21.038,21.038 0 0 0 3.958,16.394 35.718,35.718 0 0 0 5.808,6.066 1.419,1.419 0 0 0 2.189,-1.683 z"
       style="fill:#485a75" /><path
       id="path845"
       data-original="#485a75"
       d="m 282.539,41.775 a 3.464,3.464 0 0 1 -2.442,-5.922 l 2.594,-2.577 a 3.4644893,3.4644893 0 1 1 4.883,4.916 l -2.594,2.577 a 3.455,3.455 0 0 1 -2.441,1.006 z"
       style="fill:#485a75" /><circle
       id="circle847"
       data-original="#485a75"
       r="5.0100002"
       cy="49.93"
       cx="242.799"
       style="fill:#485a75" /></g></g><path
   style="opacity:1;fill:#326de6;fill-opacity:1;stroke:none;stroke-width:0.70809567;stroke-linecap:butt;stroke-linejoin:miter;stroke-miterlimit:4;stroke-dasharray:none;stroke-opacity:1"
   d="m 39.03763,34.543061 c -1.527793,-1.496038 -1.827598,-2.980669 -1.058708,-5.242707 0.127475,-0.375025 0.218266,-0.50615 0.350457,-0.50615 0.152165,0 0.188106,0.09647 0.244306,0.655726 0.216618,2.155597 0.449111,3.24366 0.975953,4.567454 0.461821,1.160417 0.302867,1.323615 -0.512008,0.525677 z"
   id="path900"
   transform="translate(-0.09743584)" /><path
   style="opacity:1;fill:#326de6;fill-opacity:1;stroke:none;stroke-width:0.70809567;stroke-linecap:butt;stroke-linejoin:miter;stroke-miterlimit:4;stroke-dasharray:none;stroke-opacity:1"
   d="m 42.006337,33.406311 c -1.337815,-1.184989 -1.866757,-2.629191 -1.538123,-4.199632 0.240017,-1.146966 0.464694,-1.723928 0.67132,-1.723928 0.159683,0 0.190274,0.122336 0.292808,1.17094 0.16981,1.736629 0.586255,3.459239 1.068721,4.420732 0.174454,0.347664 0.153619,0.638924 -0.04552,0.636332 -0.05889,-7.68e-4 -0.261033,-0.137766 -0.449207,-0.304444 z"
   id="path902"
   transform="translate(-0.09743584)" /><path
   style="opacity:1;fill:#326de6;fill-opacity:1;stroke:none;stroke-width:0.70809567;stroke-linecap:butt;stroke-linejoin:miter;stroke-miterlimit:4;stroke-dasharray:none;stroke-opacity:1"
   d="m 44.593492,31.684332 c -1.06996,-1.096616 -1.495754,-2.317349 -1.27225,-3.647492 0.06476,-0.385406 0.209609,-0.983895 0.321888,-1.329977 0.160604,-0.495034 0.243576,-0.629239 0.389027,-0.629239 0.167866,0 0.195552,0.106755 0.300777,1.15978 0.178804,1.789343 0.514135,3.175579 1.092636,4.516885 0.109635,0.254197 0.118901,0.363706 0.03765,0.444957 -0.173562,0.173562 -0.231396,0.139321 -0.869728,-0.514914 z"
   id="path904"
   transform="translate(-0.09743584)" /><path
   style="opacity:1;fill:#326de6;fill-opacity:1;stroke:none;stroke-width:0.70809567;stroke-linecap:butt;stroke-linejoin:miter;stroke-miterlimit:4;stroke-dasharray:none;stroke-opacity:1"
   d="m 54.796786,23.600645 c -0.300846,-0.126947 -0.598408,-0.559802 -0.598408,-0.870489 0,-0.192938 0.100882,-0.378642 0.330349,-0.608109 0.289083,-0.289083 0.372038,-0.323583 0.664085,-0.276191 0.411876,0.06684 0.590137,0.209069 0.754324,0.601856 0.107229,0.256525 0.107229,0.352363 0,0.608889 -0.06999,0.167444 -0.190498,0.356886 -0.267791,0.420982 -0.193757,0.160673 -0.644482,0.223522 -0.882559,0.123062 z"
   id="path906"
   transform="translate(-0.09743584)" /><path
   style="opacity:1;fill:#326de6;fill-opacity:1;stroke:none;stroke-width:0.70809567;stroke-linecap:butt;stroke-linejoin:miter;stroke-miterlimit:4;stroke-dasharray:none;stroke-opacity:1"
   d="m 62.366634,20.995747 c -0.30085,-0.260136 -0.326767,-0.517366 -0.08785,-0.871899 0.220552,-0.327277 0.758517,-0.743997 0.960464,-0.743997 0.06271,0 0.225096,0.08737 0.360847,0.194149 0.379108,0.298207 0.323778,0.598735 -0.208173,1.130685 -0.485833,0.485834 -0.722376,0.552984 -1.025291,0.291062 z"
   id="path908"
   transform="translate(-0.09743584)" /></g>
</g>
</svg>
